<svg width="22" height="22" viewBox="0 0 22 22" fill="none" xmlns="http://www.w3.org/2000/svg">
    <rect x="7" y="6.88867" width="8" height="8" fill="white" />
    <path
        d="M10.0667 11.5106L8.82222 10.2661C8.64444 10.0884 8.43703 9.99948 8.2 9.99948C7.96296 9.99948 7.75555 10.0884 7.57777 10.2661C7.4 10.4439 7.31111 10.6552 7.31111 10.8999C7.31111 11.1447 7.4 11.3556 7.57777 11.5328L9.44444 13.4217C9.62222 13.5995 9.82963 13.6884 10.0667 13.6884C10.3037 13.6884 10.5111 13.5995 10.6889 13.4217L14.4667 9.64392C14.6444 9.46615 14.7333 9.25518 14.7333 9.01103C14.7333 8.76689 14.6444 8.55563 14.4667 8.37726C14.2889 8.19889 14.0779 8.11 13.8338 8.11059C13.5896 8.11118 13.3784 8.20007 13.2 8.37726L10.0667 11.5106ZM11 19.6884C10.8963 19.6884 10.8 19.681 10.7111 19.6661C10.6222 19.6513 10.5333 19.6291 10.4444 19.5995C8.44444 18.9328 6.85185 17.6996 5.66666 15.8999C4.48148 14.1002 3.88889 12.163 3.88889 10.0884V5.88837C3.88889 5.518 3.99644 5.18466 4.21155 4.88837C4.42666 4.59207 4.70429 4.37726 5.04444 4.24392L10.3778 2.24392C10.5852 2.16985 10.7926 2.13281 11 2.13281C11.2074 2.13281 11.4148 2.16985 11.6222 2.24392L16.9556 4.24392C17.2963 4.37726 17.5742 4.59207 17.7893 4.88837C18.0044 5.18466 18.1117 5.518 18.1111 5.88837V10.0884C18.1111 12.1624 17.5185 14.0996 16.3333 15.8999C15.1481 17.7002 13.5556 18.9334 11.5556 19.5995C11.4667 19.6291 11.3778 19.6513 11.2889 19.6661C11.2 19.681 11.1037 19.6884 11 19.6884Z"
        fill="#E2B808" />
</svg>