<svg width="60" height="60" viewBox="0 0 60 60" fill="none" xmlns="http://www.w3.org/2000/svg">
    <path
        d="M26.4126 5.18765C25.4276 5.66015 24.5251 6.43015 23.2626 7.50765L23.0651 7.67265C21.9752 8.65519 20.5806 9.23331 19.1151 9.31015L18.8601 9.33015C17.2051 9.46265 16.0226 9.55515 14.9926 9.92015C13.822 10.3337 12.7587 11.0039 11.8806 11.8816C11.0025 12.7592 10.3318 13.8222 9.91765 14.9926C9.55515 16.0226 9.46265 17.2051 9.33015 18.8601L9.31015 19.1151C9.23331 20.5806 8.65519 21.9752 7.67265 23.0651L7.50765 23.2601C6.43015 24.5251 5.65765 25.4276 5.18765 26.4126C4.65266 27.5329 4.375 28.7587 4.375 30.0001C4.375 31.2416 4.65266 32.4674 5.18765 33.5876C5.66015 34.5726 6.43015 35.4751 7.50765 36.7376L7.67265 36.9351C8.69765 38.1351 9.18265 39.2826 9.31015 40.8851L9.33015 41.1401C9.46265 42.7951 9.55515 43.9776 9.92015 45.0076C10.3337 46.1783 11.0039 47.2416 11.8816 48.1197C12.7592 48.9978 13.8222 49.6685 14.9926 50.0826C16.0226 50.4451 17.2051 50.5376 18.8601 50.6701L19.1151 50.6901C20.6876 50.8151 21.8401 51.2851 23.0651 52.3276L23.2626 52.4926C24.5251 53.5701 25.4276 54.3426 26.4126 54.8126C27.5329 55.3476 28.7587 55.6253 30.0001 55.6253C31.2416 55.6253 32.4674 55.3476 33.5876 54.8126C34.5726 54.3401 35.4751 53.5701 36.7376 52.4926L36.9351 52.3276C38.1351 51.3026 39.2826 50.8176 40.8851 50.6901L41.1401 50.6701C42.7951 50.5376 43.9776 50.4451 45.0076 50.0801C46.1783 49.6666 47.2416 48.9964 48.1197 48.1187C48.9978 47.241 49.6685 46.1781 50.0826 45.0076C50.4451 43.9776 50.5376 42.7951 50.6701 41.1401L50.6901 40.8851C50.8151 39.3126 51.2851 38.1601 52.3276 36.9351L52.4926 36.7376C53.5701 35.4751 54.3426 34.5726 54.8126 33.5876C55.3476 32.4674 55.6253 31.2416 55.6253 30.0001C55.6253 28.7587 55.3476 27.5329 54.8126 26.4126C54.3401 25.4276 53.5701 24.5251 52.4926 23.2626L52.3276 23.0651C51.3451 21.9752 50.767 20.5806 50.6901 19.1151L50.6701 18.8601C50.5376 17.2051 50.4451 16.0226 50.0801 14.9926C49.6666 13.822 48.9964 12.7587 48.1187 11.8806C47.241 11.0025 46.1781 10.3318 45.0076 9.91765C43.9776 9.55515 42.7951 9.46265 41.1401 9.33015L40.8851 9.31015C39.4197 9.23331 38.0251 8.65519 36.9351 7.67265L36.7376 7.50765C35.4751 6.43015 34.5726 5.65765 33.5876 5.18765C32.4674 4.65266 31.2416 4.375 30.0001 4.375C28.7587 4.375 27.5329 4.65266 26.4126 5.18765ZM39.4326 21.7301C39.8353 22.0216 40.1058 22.4611 40.1846 22.9519C40.2633 23.4428 40.1439 23.9448 39.8526 24.3476L30.8601 36.8001C30.4749 37.3338 29.9743 37.7736 29.3955 38.0869C28.8167 38.4002 28.1747 38.5789 27.5173 38.6096C26.8599 38.6404 26.204 38.5224 25.5985 38.2645C24.993 38.0066 24.4535 37.6155 24.0201 37.1201L20.2551 32.8201C20.0928 32.6347 19.9686 32.419 19.8896 32.1855C19.8106 31.952 19.7783 31.7052 19.7947 31.4593C19.8111 31.2133 19.8757 30.973 19.985 30.752C20.0942 30.531 20.2459 30.3337 20.4314 30.1714C20.6169 30.009 20.8325 29.8848 21.066 29.8058C21.2995 29.7268 21.5463 29.6946 21.7923 29.7109C22.0382 29.7273 22.2786 29.792 22.4995 29.9012C22.7205 30.0105 22.9178 30.1622 23.0801 30.3476L26.8426 34.6501C26.9045 34.7206 26.9814 34.7761 27.0677 34.8128C27.1539 34.8495 27.2473 34.8663 27.341 34.8619C27.4346 34.8576 27.526 34.8323 27.6086 34.7878C27.6911 34.7434 27.7625 34.681 27.8176 34.6051L36.8126 22.1526C36.9568 21.9527 37.139 21.7832 37.3487 21.6537C37.5585 21.5242 37.7917 21.4374 38.035 21.3981C38.2784 21.3589 38.5271 21.368 38.7669 21.425C39.0067 21.482 39.2329 21.5857 39.4326 21.7301Z"
        fill="#E2B808" />
</svg>