<svg width="25" height="25" viewBox="0 0 25 25" fill="none" xmlns="http://www.w3.org/2000/svg">
    <path
        d="M18.5394 21.9475C17.4507 23.0029 16.2619 22.8363 15.1176 22.3364C13.9067 21.8253 12.7957 21.8031 11.5181 22.3364C9.91829 23.0252 9.07395 22.8252 8.11852 21.9475C2.69698 16.3593 3.49688 7.8493 9.65166 7.53822C11.1515 7.61599 12.1958 8.36034 13.0734 8.427C14.3844 8.16037 15.6398 7.3938 17.0396 7.49378C18.7172 7.6271 19.9837 8.29368 20.8169 9.49353C17.3507 11.571 18.1728 16.1371 21.3502 17.4148C20.7169 19.0812 19.8948 20.7366 18.5283 21.9586L18.5394 21.9475ZM12.9624 7.47157C12.7957 4.9941 14.8066 2.94991 17.1174 2.74994C17.4396 5.61624 14.5177 7.74931 12.9624 7.47157Z"
        fill="#1E1E1E" />
</svg>