<svg width="137" height="152" viewBox="0 0 137 152" fill="none" xmlns="http://www.w3.org/2000/svg">
<path d="M104.994 48.0243H89.582C88.9449 48.025 88.3139 47.8999 87.7251 47.6564C87.1364 47.4128 86.6015 47.0556 86.1509 46.6051C85.7004 46.1546 85.3431 45.6196 85.0996 45.0309C84.8561 44.4421 84.731 43.8111 84.7316 43.174V38.8543C84.7316 37.5679 84.2206 36.3342 83.311 35.4245C82.4014 34.5149 81.1677 34.0039 79.8813 34.0039H71.7539" stroke="#8A2BE1" stroke-width="0.121026" stroke-linecap="round" stroke-linejoin="round"/>
<path d="M124.428 110.884H106.233C105.112 110.884 104.203 111.792 104.203 112.913C104.203 114.034 105.112 114.943 106.233 114.943H124.428C125.549 114.943 126.458 114.034 126.458 112.913C126.458 111.792 125.549 110.884 124.428 110.884Z" fill="#B2C2FD"/>
<path d="M104.682 151.394L104.072 151.348L107.177 112.205L107.787 112.252L104.682 151.394Z" fill="#B2C2FD"/>
<path d="M126.616 151.394L127.277 151.343L124.149 112.205L123.488 112.256L126.616 151.394Z" fill="#B2C2FD"/>
<path d="M115.248 151.423H115.881V112.178H115.248V151.423Z" fill="#B2C2FD"/>
<path d="M125.047 126.217H106.236V126.789H125.047V126.217Z" fill="#B2C2FD"/>
<path d="M55.1403 143.542C55.1403 143.542 54.079 146.26 57.3281 147.266C60.5772 148.271 62.9465 148.574 64.734 148.551C66.5215 148.527 67.5967 148.183 69.3889 148.704C71.181 149.226 72.8521 150.343 73.9413 149.612C74.8397 149.016 74.579 146.819 74.579 146.819L64.6316 144.845L55.1403 143.542Z" fill="#8A2BE1"/>
<path d="M74.8174 140.725L77.2007 134.004L69.1571 131.15L66.8809 139.618L68.2959 142.49L72.6622 143.123L74.8174 140.725Z" fill="#ECC351"/>
<path d="M66.8756 139.618C66.8756 139.618 62.365 141.629 60.2284 142.188C58.0919 142.746 55.7179 141.573 55.136 143.542C54.5542 145.511 60.1167 146.182 63.3798 146.535C66.6428 146.889 69.1425 146.102 70.7205 146.936C72.2985 147.769 74.3234 147.359 74.5561 146.829C74.7888 146.298 75.1426 141.28 74.8121 140.726C74.8121 140.726 74.207 141.629 71.037 141.07C67.8671 140.512 66.8756 139.618 66.8756 139.618Z" fill="#E25469"/>
<path d="M62.3836 142.937H62.3278C62.3033 142.946 62.2774 142.95 62.2514 142.948C62.2255 142.947 62.2001 142.94 62.1767 142.929C62.1533 142.918 62.1324 142.902 62.1152 142.883C62.0979 142.863 62.0848 142.841 62.0764 142.816L61.6854 141.676C61.6766 141.651 61.6728 141.625 61.6741 141.599C61.6754 141.573 61.6819 141.548 61.6932 141.524C61.7044 141.501 61.7203 141.48 61.7397 141.463C61.7591 141.446 61.7818 141.433 61.8064 141.424H61.8576C61.8824 141.415 61.9086 141.412 61.9348 141.413C61.9609 141.415 61.9865 141.422 62.0099 141.434C62.0334 141.445 62.0542 141.462 62.0713 141.482C62.0883 141.502 62.1011 141.525 62.109 141.55L62.5046 142.686C62.52 142.735 62.516 142.788 62.4935 142.835C62.4711 142.882 62.4318 142.918 62.3836 142.937Z" fill="white"/>
<path d="M63.4021 142.485H63.3509C63.3265 142.494 63.3005 142.498 63.2746 142.496C63.2486 142.495 63.2232 142.489 63.1998 142.477C63.1764 142.466 63.1555 142.45 63.1383 142.431C63.1211 142.411 63.1079 142.389 63.0995 142.364L62.7039 141.224C62.6872 141.174 62.6905 141.119 62.713 141.071C62.7355 141.024 62.7756 140.986 62.8249 140.968H62.8808C62.9052 140.959 62.9311 140.955 62.9571 140.956C62.983 140.958 63.0084 140.964 63.0318 140.975C63.0552 140.987 63.0761 141.002 63.0934 141.022C63.1106 141.041 63.1238 141.064 63.1321 141.089L63.5278 142.229C63.5442 142.28 63.5403 142.335 63.5168 142.383C63.4934 142.43 63.4522 142.467 63.4021 142.485Z" fill="white"/>
<path d="M64.5857 142.024H64.5299C64.5055 142.033 64.4795 142.037 64.4536 142.036C64.4276 142.034 64.4022 142.028 64.3788 142.017C64.3554 142.005 64.3345 141.99 64.3173 141.97C64.3001 141.951 64.2869 141.928 64.2785 141.903L63.8829 140.763C63.8666 140.713 63.8707 140.659 63.8942 140.611C63.9177 140.564 63.9588 140.529 64.0085 140.512H64.0598C64.0842 140.503 64.1101 140.499 64.1361 140.5C64.162 140.502 64.1874 140.508 64.2108 140.519C64.2342 140.531 64.2551 140.546 64.2724 140.566C64.2896 140.585 64.3028 140.608 64.3111 140.633L64.7068 141.773C64.7233 141.822 64.7199 141.876 64.6973 141.923C64.6747 141.97 64.6347 142.006 64.5857 142.024Z" fill="white"/>
<path d="M65.7489 141.568L65.693 141.592C65.643 141.608 65.5886 141.604 65.5416 141.58C65.4945 141.557 65.4586 141.516 65.4417 141.466L65.0506 140.325C65.0418 140.301 65.038 140.275 65.0393 140.249C65.0407 140.223 65.0471 140.198 65.0584 140.174C65.0697 140.151 65.0855 140.13 65.105 140.113C65.1244 140.096 65.1471 140.082 65.1717 140.074H65.2275C65.252 140.065 65.2779 140.061 65.3038 140.063C65.3298 140.064 65.3552 140.071 65.3786 140.082C65.402 140.093 65.4229 140.109 65.4401 140.128C65.4574 140.148 65.4705 140.171 65.4789 140.195L65.8699 141.336C65.8822 141.382 65.8766 141.432 65.8542 141.475C65.8318 141.518 65.7943 141.551 65.7489 141.568Z" fill="white"/>
<path d="M83.5488 148.96C83.5488 148.96 83.5488 151.883 86.9282 151.664C90.3077 151.445 92.6398 150.878 94.3016 150.217C95.9633 149.556 96.8431 148.848 98.6864 148.699C100.53 148.55 102.508 148.997 103.267 147.922C103.886 147.042 102.862 145.087 102.862 145.087L92.8679 146.8L83.5488 148.96Z" fill="#8A2BE1"/>
<path d="M100.922 139.296L100.321 131.564L91.6445 133.51L93.1155 141.102L95.4615 143.276L99.7626 142.308L100.922 139.296Z" fill="#ECC351"/>
<path d="M93.1093 141.103C93.1093 141.103 89.6135 144.59 87.8214 145.879C86.0292 147.168 83.3853 146.917 83.5482 148.961C83.7111 151.004 89.134 149.645 92.318 148.812C95.5019 147.978 97.5454 146.345 99.3002 146.563C101.055 146.782 102.815 145.67 102.843 145.088C102.871 144.506 101.404 139.697 100.902 139.302C100.902 139.302 100.659 140.358 97.4988 140.973C94.3382 141.587 93.1093 141.103 93.1093 141.103Z" fill="#E25469"/>
<path d="M90.0978 145.822L90.0512 145.859C90.0109 145.893 89.959 145.909 89.9068 145.905C89.8546 145.9 89.8062 145.876 89.7719 145.836L88.9992 144.905C88.9658 144.865 88.9495 144.813 88.9538 144.761C88.9582 144.709 88.9828 144.66 89.0225 144.626L89.069 144.589C89.1086 144.555 89.1597 144.539 89.2112 144.544C89.2626 144.548 89.3102 144.573 89.3437 144.612L90.121 145.543C90.1545 145.583 90.1708 145.635 90.1664 145.687C90.1621 145.74 90.1374 145.788 90.0978 145.822Z" fill="white"/>
<path d="M90.8889 145.018L90.847 145.06C90.8061 145.093 90.7539 145.108 90.7017 145.103C90.6494 145.098 90.6013 145.072 90.5677 145.032L89.795 144.101C89.7586 144.063 89.7383 144.013 89.7383 143.961C89.7383 143.909 89.7586 143.859 89.795 143.822L89.8416 143.784C89.8613 143.767 89.8842 143.754 89.9091 143.746C89.9339 143.738 89.9601 143.735 89.9861 143.737C90.0122 143.739 90.0375 143.747 90.0607 143.759C90.0838 143.771 90.1043 143.787 90.1209 143.808L90.8936 144.739C90.9294 144.777 90.9489 144.827 90.948 144.879C90.9472 144.931 90.926 144.981 90.8889 145.018Z" fill="white"/>
<path d="M91.8255 144.17L91.7836 144.208C91.7463 144.244 91.6962 144.264 91.644 144.264C91.5918 144.264 91.5417 144.244 91.5043 144.208L90.7316 143.277C90.6982 143.236 90.6819 143.185 90.6862 143.132C90.6906 143.08 90.7152 143.032 90.7549 142.997L90.7968 142.96C90.8371 142.927 90.889 142.91 90.9412 142.915C90.9934 142.919 91.0419 142.944 91.0761 142.983L91.8488 143.914C91.8765 143.953 91.8894 144 91.8852 144.047C91.8809 144.094 91.8597 144.138 91.8255 144.17Z" fill="white"/>
<path d="M92.7513 143.327L92.7094 143.365C92.6897 143.382 92.6667 143.395 92.6419 143.403C92.6171 143.411 92.5909 143.414 92.5648 143.412C92.5388 143.41 92.5134 143.402 92.4903 143.39C92.4672 143.378 92.4467 143.361 92.4301 143.341L91.6574 142.41C91.6402 142.391 91.6272 142.368 91.6191 142.343C91.611 142.318 91.6079 142.292 91.61 142.266C91.6122 142.24 91.6196 142.214 91.6317 142.191C91.6438 142.168 91.6605 142.148 91.6807 142.131L91.7226 142.089C91.7635 142.056 91.8157 142.041 91.8679 142.046C91.9202 142.051 91.9683 142.077 92.0019 142.117L92.7746 143.048C92.808 143.088 92.8243 143.14 92.8199 143.192C92.8156 143.245 92.7909 143.293 92.7513 143.327Z" fill="white"/>
<path d="M103.611 96.4814C103.611 96.4814 84.317 98.4458 78.4193 102.375C72.5216 106.303 70.4223 124.252 67.918 134.093L78.8057 136.886C78.8057 136.886 83.6002 122.051 85.7461 115.436C87.892 108.821 113.619 105.968 113.619 105.968L103.611 96.4814Z" fill="#8A2BE1"/>
<path d="M68.1839 132.422L79.3695 135.527L78.4479 138.594L67.3926 135.457L68.1839 132.422Z" fill="#8A2BE1"/>
<path d="M124.339 98.9952C124.339 98.9952 126.839 114.719 117.729 115.79C108.619 116.861 99.0677 115.366 99.0677 115.366C99.0677 115.366 99.6449 117.563 100.878 136.816L89.6835 138.431C89.6835 138.431 87.6446 130.453 86.1272 122.223C83.9114 110.218 83.958 106.224 88.0682 102.831C92.1785 99.4374 105.096 97.9805 105.096 97.9805L124.339 98.9952Z" fill="#8A2BE1"/>
<path d="M84.9368 114.965C84.2944 109.673 84.6622 106.731 86.4543 104.436C87.2366 103.454 88.2643 102.696 89.4334 102.239C93.7279 100.547 98.2051 99.3611 102.774 98.7061" stroke="#8A2BE1" stroke-width="0.121026" stroke-linecap="round" stroke-linejoin="round"/>
<path d="M88.9531 135.857L100.856 133.632L101.005 136.997C101.005 136.997 89.6839 139.255 89.6839 138.91C89.6839 138.566 88.9531 135.857 88.9531 135.857Z" fill="#8A2BE1"/>
<path d="M103.366 55.0161C103.366 55.0161 105.274 53.9129 105.609 53.2938C105.944 52.6747 106.289 51.8461 106.61 51.1479C106.931 50.4496 107.457 50.0028 106.834 49.7514C106.21 49.5 105.102 51.1479 105.102 51.1479C105.205 50.2956 105.462 49.4692 105.861 48.7087C106.531 47.4054 107.439 45.9437 106.987 45.7343C106.788 45.6183 106.561 45.5573 106.331 45.5574C106.331 45.5574 106.452 44.9197 106.107 44.7567C105.763 44.5938 105.279 45.036 105.279 45.036C105.279 45.036 104.79 44.6543 104.511 44.7428C104.231 44.8312 102.556 46.4465 101.802 47.8895C101.802 47.8895 102.937 45.2455 102.765 45.1943C102.593 45.1431 101.806 45.441 100.945 47.4286C100.084 49.4163 99.5254 52.8329 99.5254 52.8329L103.366 55.0161Z" fill="#ECC351"/>
<path d="M105.279 45.0127C104.757 45.6365 104.279 46.296 103.85 46.9864C103.226 48.0197 102.453 49.4534 102.453 49.4534" stroke="#8A2BE1" stroke-width="0.125681" stroke-linecap="round" stroke-linejoin="round"/>
<path d="M106.329 45.5342C106.329 45.5342 104.854 47.9826 103.76 49.9935" stroke="#8A2BE1" stroke-width="0.125681" stroke-linecap="round" stroke-linejoin="round"/>
<path d="M105.933 50.5072C106.78 50.4575 107.393 49.1627 107.302 47.6152C107.211 46.0676 106.451 44.8534 105.604 44.9031C104.757 44.9529 104.144 46.2477 104.235 47.7952C104.326 49.3428 105.086 50.557 105.933 50.5072Z" fill="#E25469"/>
<path d="M106.68 50.6406C107.583 50.5875 108.237 49.2068 108.14 47.5566C108.043 45.9064 107.232 44.6117 106.329 44.6647C105.426 44.7177 104.772 46.0985 104.869 47.7487C104.966 49.3989 105.777 50.6936 106.68 50.6406Z" fill="#8A2BE1"/>
<path d="M87.4132 80.6545C82.656 77.7033 85.3884 71.1539 85.3884 71.1539C88.2604 66.2617 88.2278 70.9631 90.5646 68.1702C98.8875 58.232 104.459 60.1545 104.459 60.1545L107.345 64.0553L96.9976 75.7529C96.9976 75.7529 90.1503 82.3349 87.4132 80.6545Z" fill="#ECC351"/>
<path d="M116.756 59.2886C116.756 59.1629 117.133 49.9789 117.124 49.8439L116.524 49.8066C114.196 50.7935 111.441 52.3808 109.122 53.3676L108.736 58.353C108.736 58.353 105.85 60.6804 105.836 61.1924C105.79 62.9659 115.071 68.2166 116.756 59.2886Z" fill="#ECC351"/>
<path d="M105.543 48.9365C105.753 52.9025 106.628 56.9941 110.426 57.0593C113.079 57.1058 116.189 53.9498 117.315 50.7612C117.85 49.3996 118.279 47.999 118.6 46.5719C118.749 45.6874 118.8 45.1289 118.8 45.1289L118.498 43.0993L118.316 41.9124C118.316 41.9124 117.613 41.0884 116.803 40.1575C115.807 39.0077 113.787 40.0737 113.764 40.0039C113.74 39.934 108.643 38.2769 106.674 40.0737C106.503 40.2233 106.357 40.3993 106.241 40.595C106.156 40.7387 106.096 40.8962 106.064 41.0605C106.013 41.3817 105.943 41.8658 105.855 42.457C105.827 42.713 105.79 42.9923 105.757 43.2902C105.701 43.7883 105.65 44.3375 105.608 44.9241C105.502 46.2588 105.48 47.599 105.543 48.9365Z" fill="#ECC351"/>
<path d="M111.133 48.3965C111.479 48.2562 111.853 48.1959 112.226 48.22C112.6 48.2442 112.962 48.3523 113.288 48.5362" stroke="#8A2BE1" stroke-width="0.232743" stroke-linecap="round" stroke-linejoin="round"/>
<path d="M106.512 48.2292C106.859 48.0891 107.234 48.0294 107.608 48.0544C107.982 48.0794 108.346 48.1884 108.672 48.3735" stroke="#8A2BE1" stroke-width="0.232743" stroke-linecap="round" stroke-linejoin="round"/>
<path d="M109.193 56.8727C109.594 56.9927 110.009 57.0554 110.427 57.0589C111.991 57.0868 113.713 56.0022 115.082 54.4521" stroke="#8A2BE1" stroke-width="0.121026" stroke-linecap="round" stroke-linejoin="round"/>
<path d="M118.782 46.5534C118.782 46.5534 120.845 38.3004 115.99 37.4578C115.99 37.4578 111.8 33.734 107.611 36.3733C105.595 37.6487 105.283 41.3493 105.362 42.5503C105.409 43.3043 105.6 43.9467 105.702 43.9467C105.986 43.8862 106.14 43.1647 107.099 43.5557C110.902 45.1477 114.668 42.4758 115.664 43.3137C116.66 44.1515 117.214 51.2269 117.214 51.2269C117.214 51.2269 117.865 48.1547 118.782 46.5534Z" fill="#8A2BE1"/>
<path d="M114.453 45.022C115.764 44.9957 116.805 43.8678 116.778 42.5027C116.751 41.1376 115.666 40.0523 114.354 40.0785C113.043 40.1047 112.003 41.2326 112.03 42.5977C112.057 43.9628 113.142 45.0482 114.453 45.022Z" fill="#8A2BE1"/>
<path d="M108.145 43.8836C110.466 43.8382 112.309 41.8449 112.262 39.4313C112.215 37.0178 110.295 35.098 107.974 35.1434C105.653 35.1888 103.81 37.1821 103.857 39.5957C103.904 42.0092 105.824 43.929 108.145 43.8836Z" fill="#8A2BE1"/>
<path d="M110.28 43.2781C112.601 43.2327 114.444 41.2394 114.397 38.8259C114.35 36.4123 112.43 34.4926 110.109 34.538C107.788 34.5833 105.945 36.5767 105.992 38.9902C106.039 41.4037 107.959 43.3235 110.28 43.2781Z" fill="#8A2BE1"/>
<path d="M115.029 42.2501C116.892 42.2136 118.372 40.613 118.334 38.675C118.297 36.737 116.755 35.1955 114.892 35.2319C113.028 35.2683 111.548 36.8689 111.586 38.8069C111.624 40.745 113.165 42.2865 115.029 42.2501Z" fill="#8A2BE1"/>
<path d="M110.708 45.6891C112.019 45.6635 113.06 44.5363 113.034 43.1714C113.007 41.8066 111.923 40.7209 110.612 40.7466C109.301 40.7722 108.26 41.8994 108.287 43.2642C108.313 44.6291 109.398 45.7147 110.708 45.6891Z" fill="#8A2BE1"/>
<path d="M105.603 43.881C105.976 44.812 107 45.8919 109.756 44.5885C114.038 42.5776 116.524 44.286 116.51 43.2759C116.496 42.2658 114.006 41.4837 110.924 41.5303C107.842 41.5768 105.245 42.95 105.603 43.881Z" fill="#8A2BE1"/>
<path d="M117.437 47.1401C117.437 47.1401 119.904 45.9438 119.536 48.2293C119.169 50.5148 116.869 51.2363 116.869 51.2363L117.437 47.1401Z" fill="#ECC351"/>
<path d="M117.901 47.9265C117.901 47.9265 119.763 47.61 117.641 49.849L117.901 47.9265Z" fill="#8A2BE1"/>
<path d="M108.304 46.2735C108.304 46.2735 107.331 45.3798 106.377 45.7569L108.304 46.2735Z" fill="#8A2BE1"/>
<path d="M113.763 46.2085C113.675 46.2085 112.367 45.8128 111.436 46.5948L113.763 46.2085Z" fill="#8A2BE1"/>
<path d="M109.794 48.8057C109.794 48.8057 109.938 49.8484 109.459 50.0951C108.979 50.3418 108.681 51.3565 109.952 51.1052" stroke="#8A2BE1" stroke-width="0.121026" stroke-linecap="round" stroke-linejoin="round"/>
<path d="M108.303 52.6553C108.341 52.7793 108.39 52.8994 108.452 53.0137C108.539 53.2766 108.703 53.5074 108.923 53.6768C109.142 53.8463 109.407 53.9466 109.683 53.9651C109.96 53.9835 110.236 53.9193 110.475 53.7806C110.715 53.6418 110.909 53.4348 111.03 53.1859C111.111 53.069 111.183 52.946 111.245 52.8182L108.303 52.6553Z" fill="white"/>
<path d="M127.649 62.4265C124.107 69.1668 123.413 87.5116 124.279 99.2604C116.501 101.099 106.162 98.9672 99.543 97.1378C100.502 84.5697 98.2117 70.7773 101.87 59.6615C101.87 59.6615 106.023 58.4606 108.75 58.3535C106.451 61.4676 115.067 62.3101 116.887 58.3535C116.873 58.3535 125.652 60.1736 127.649 62.4265Z" fill="#E25469"/>
<path d="M101.601 71.6846C100.1 73.2599 98.4564 74.692 96.6902 75.9625C93.6832 75.1804 93.106 69.6737 90.5645 68.1516C96.5227 60.9552 101.857 59.6611 101.857 59.6611L101.601 71.6846Z" fill="#E25469"/>
<path d="M99.7383 73.4355L100.013 68.6689" stroke="#8A2BE1" stroke-width="0.121026" stroke-linecap="round" stroke-linejoin="round"/>
<path d="M115.5 77.969C115.197 77.384 114.769 76.8724 114.248 76.4702C113.47 75.9302 111.059 75.5392 110.621 75.4693C110.184 75.3995 109.891 76.7867 109.891 76.7867L114.545 79.0489L115.5 77.969Z" fill="#ECC351"/>
<path d="M105.539 84.5322C105.604 84.7054 105.723 84.8532 105.878 84.9538C106.033 85.0544 106.216 85.1024 106.401 85.0908L113.523 85.1466C114.076 85.1466 114.491 84.7417 114.388 84.3088L111.242 71.4102H102.197L105.539 84.5322Z" fill="#8A2BE1"/>
<path d="M131.359 73.8164C128.908 75.1877 126.108 75.8077 123.306 75.5992L124.736 83.4892C121.156 81.5667 118.354 80.5892 117.753 80.2308C117.506 79.8405 117.221 79.4757 116.901 79.1416C116.115 78.2571 115.849 77.6939 114.979 77.545C113.95 77.3364 112.937 77.0612 111.944 76.721C110.838 76.4311 109.711 76.2257 108.574 76.1066C108.108 76.0787 106.689 76.8653 108.718 77.8242C108.718 77.8242 108.434 79.2207 109.314 79.8119C109.104 80.0585 108.997 80.3756 109.012 80.6989C109.028 81.0221 109.166 81.3274 109.398 81.5528C109.398 81.5528 108.872 82.3907 110.017 83.2611C110.839 83.8693 111.829 84.209 112.852 84.234C113.674 84.3756 114.508 84.441 115.342 84.4295C115.966 85.4536 118.033 86.8966 121.528 89.3031C128.692 94.2326 132.793 93.4041 132.793 88.94C132.804 83.8644 132.324 78.7996 131.359 73.8164Z" fill="#ECC351"/>
<path d="M108.709 77.8242C108.709 77.8242 109.882 78.1594 111.344 78.6761C112.218 78.984 113.119 79.213 114.034 79.3603" stroke="#8A2BE1" stroke-width="0.17223" stroke-miterlimit="10"/>
<path d="M109.305 79.8125C110.408 80.4191 111.574 80.9044 112.782 81.2602" stroke="#8A2BE1" stroke-width="0.17223" stroke-miterlimit="10"/>
<path d="M109.389 81.5527C110.249 82.1845 111.188 82.701 112.182 83.0888" stroke="#8A2BE1" stroke-width="0.17223" stroke-miterlimit="10"/>
<path d="M127.58 62.3242C129.146 63.9979 130.225 66.0679 130.699 68.3104C131.565 72.1599 132.747 76.6891 132.23 77.0336C129.028 79.3191 123.232 78.2299 123.232 78.2299L121.459 68.6176L127.58 62.3242Z" fill="#E25469"/>
<path d="M123.804 78.2943L122.92 71.8613" stroke="#8A2BE1" stroke-width="0.121026" stroke-linecap="round" stroke-linejoin="round"/>
<path d="M124.734 83.4893C124.734 83.4893 130.264 84.6576 131.405 87.5111" stroke="#8A2BE1" stroke-width="0.121026" stroke-linecap="round" stroke-linejoin="round"/>
<path d="M119.195 49.0498C119.292 47.3997 118.638 46.0189 117.735 45.9659C116.831 45.9128 116.02 47.2076 115.923 48.8578C115.827 50.508 116.48 51.8887 117.384 51.9417C118.287 51.9948 119.098 50.7 119.195 49.0498Z" fill="#8A2BE1"/>
<path d="M119.829 49.0938C119.92 47.5463 119.307 46.2515 118.46 46.2017C117.613 46.152 116.853 47.3662 116.762 48.9138C116.671 50.4613 117.284 51.7561 118.131 51.8059C118.978 51.8556 119.738 50.6414 119.829 49.0938Z" fill="#E25469"/>
<path d="M119.559 49.0927C119.608 48.2689 119.281 47.5795 118.829 47.553C118.377 47.5265 117.972 48.1728 117.924 48.9966C117.875 49.8205 118.202 50.5098 118.654 50.5363C119.105 50.5628 119.511 49.9165 119.559 49.0927Z" fill="white"/>
<path d="M118.902 46.4829L117.971 46.4457C117.971 46.3572 118.348 37.0382 113.098 35.828L113.479 35.5254C115.993 36.1026 117.497 38.1135 118.353 41.5441C118.747 43.1601 118.931 44.8199 118.902 46.4829Z" fill="#E25469"/>
<path d="M85.3867 71.1359C89.4145 64.3186 94.2501 58.0122 99.7889 52.3535L103.704 54.4715C103.704 54.4715 95.7903 71.6433 91.0284 74.9296C89.4411 76.0235 85.3867 71.1359 85.3867 71.1359Z" fill="#ECC351"/>
<path d="M93.4967 72.3926L91.416 75.4043" stroke="#8A2BE1" stroke-width="0.121026" stroke-linecap="round" stroke-linejoin="round"/>
<path d="M71.7108 5.78115V99.8093C71.7108 101.217 71.1517 102.566 70.1565 103.562C69.1613 104.557 67.8116 105.116 66.4042 105.116H15.4382C14.7409 105.116 14.0504 104.98 13.406 104.713C12.7616 104.447 12.1761 104.056 11.6828 103.563C11.1896 103.07 10.7983 102.485 10.5313 101.841C10.2644 101.197 10.127 100.507 10.127 99.8093V5.78115C10.1282 4.37334 10.6883 3.02361 11.6842 2.02858C12.6801 1.03354 14.0303 0.474609 15.4382 0.474609H66.4089C67.8151 0.477074 69.1629 1.03709 70.1568 2.03186C71.1507 3.02663 71.7095 4.37495 71.7108 5.78115Z" fill="#8A2BE1"/>
<path d="M74.8355 32.7656H71.5352V35.2932H74.8355V32.7656Z" fill="#8A2BE1"/>
<path d="M69.4635 6.59616V97.3659C69.4635 97.8433 69.3694 98.3161 69.1867 98.7572C69.004 99.1982 68.7362 99.599 68.3987 99.9366C68.0611 100.274 67.6603 100.542 67.2192 100.725C66.7782 100.907 66.3054 101.001 65.828 101.001H16.6401C15.6755 101.001 14.7503 100.619 14.0678 99.9369C13.3853 99.2552 13.0012 98.3305 13 97.3659V6.59616C13.0025 5.63193 13.3869 4.70796 14.0692 4.02658C14.7514 3.3452 15.6759 2.96194 16.6401 2.96071H29.6737C29.8359 2.96194 29.991 3.02721 30.1052 3.14231C30.2194 3.25741 30.2835 3.413 30.2835 3.57515V5.06005H52.1893V3.5705C52.1893 3.40834 52.2534 3.25276 52.3676 3.13766C52.4818 3.02256 52.6369 2.95728 52.7991 2.95605H65.8327C66.7961 2.95975 67.7189 3.34473 68.3992 4.02685C69.0796 4.70897 69.4622 5.63273 69.4635 6.59616Z" fill="#8A2BE1"/>
<path d="M64.3144 19.1592H17.5284C16.5052 19.1592 15.6758 19.9886 15.6758 21.0118V56.5749C15.6758 57.5981 16.5052 58.4276 17.5284 58.4276H64.3144C65.3376 58.4276 66.1671 57.5981 66.1671 56.5749V21.0118C66.1671 19.9886 65.3376 19.1592 64.3144 19.1592Z" fill="#8A2BE1"/>
<path d="M54.9452 27.5146H26.9043V49.0108H54.9452V27.5146Z" fill="#8A2BE1"/>
<path d="M53.6331 28.292H28.2129V47.7819H53.6331V28.292Z" fill="white"/>
<path d="M40.9199 27.6636V47.3584C40.9199 47.3584 47.5857 45.0309 53.1855 47.8657V27.4123C53.1855 27.4123 46.3149 25.3269 40.9199 27.6636Z" fill="#DAE4FE"/>
<path d="M40.9199 47.3586V27.6639C40.9199 27.6639 46.8735 24.2565 52.0637 25.0711V45.4222C52.0637 45.4222 45.3979 43.8814 40.9199 47.3586Z" fill="white"/>
<path d="M40.9191 27.6636V47.3584C40.9191 47.3584 34.2533 45.0309 28.6582 47.8657V27.4123C28.6582 27.4123 35.5288 25.3269 40.9191 27.6636Z" fill="#DAE4FE"/>
<path d="M40.9191 47.3586V27.6639C40.9191 27.6639 34.9656 24.2565 29.7754 25.0711V45.4222C29.7754 45.4222 36.4412 43.8814 40.9191 47.3586Z" fill="white"/>
<path d="M40.9238 27.6641V47.3541" stroke="#27385F" stroke-width="0.0837875" stroke-linecap="round" stroke-linejoin="round"/>
<path d="M41.8359 30.9365C41.8359 30.9365 45.9043 27.9853 50.5871 28.6463" stroke="#DAE4FE" stroke-width="0.288601" stroke-linecap="round" stroke-linejoin="round"/>
<path d="M41.8359 33.4404C41.8359 33.4404 45.9043 30.4892 50.5871 31.1502" stroke="#DAE4FE" stroke-width="0.288601" stroke-linecap="round" stroke-linejoin="round"/>
<path d="M41.8359 35.9684C41.8359 35.9684 45.9276 32.9939 50.5824 33.6409" stroke="#DAE4FE" stroke-width="0.288601" stroke-linecap="round" stroke-linejoin="round"/>
<path d="M41.8359 38.449C41.8359 38.449 45.9276 35.5025 50.5824 36.1588" stroke="#DAE4FE" stroke-width="0.288601" stroke-linecap="round" stroke-linejoin="round"/>
<path d="M41.8359 40.9531C41.8359 40.9531 45.9043 38.0019 50.5871 38.6629" stroke="#DAE4FE" stroke-width="0.288601" stroke-linecap="round" stroke-linejoin="round"/>
<path d="M41.8359 43.4531C41.8359 43.4531 45.9043 40.5019 50.5871 41.1629" stroke="#DAE4FE" stroke-width="0.288601" stroke-linecap="round" stroke-linejoin="round"/>
<path d="M39.7511 30.9365C39.7511 30.9365 35.6781 27.9853 31 28.6463" stroke="#DAE4FE" stroke-width="0.288601" stroke-linecap="round" stroke-linejoin="round"/>
<path d="M39.7511 33.4404C39.7511 33.4404 35.6781 30.4892 31 31.1502" stroke="#DAE4FE" stroke-width="0.288601" stroke-linecap="round" stroke-linejoin="round"/>
<path d="M39.7511 35.9677C39.7511 35.9677 35.6781 33.0166 31 33.6776" stroke="#DAE4FE" stroke-width="0.288601" stroke-linecap="round" stroke-linejoin="round"/>
<path d="M39.7511 38.4492C39.7511 38.4492 35.6781 35.498 31 36.159" stroke="#DAE4FE" stroke-width="0.288601" stroke-linecap="round" stroke-linejoin="round"/>
<path d="M39.7511 40.9531C39.7511 40.9531 35.6781 38.0019 31 38.6629" stroke="#DAE4FE" stroke-width="0.288601" stroke-linecap="round" stroke-linejoin="round"/>
<path d="M39.7511 43.4531C39.7511 43.4531 35.6781 40.5019 31 41.1629" stroke="#DAE4FE" stroke-width="0.288601" stroke-linecap="round" stroke-linejoin="round"/>
<path d="M63.5892 62.7422H2.75485C1.75223 62.7422 0.939453 63.555 0.939453 64.5576V95.3309C0.939453 96.3335 1.75223 97.1463 2.75485 97.1463H63.5892C64.5918 97.1463 65.4046 96.3335 65.4046 95.3309V64.5576C65.4046 63.555 64.5918 62.7422 63.5892 62.7422Z" fill="white" stroke="#8A2BE1" stroke-width="0.465486" stroke-miterlimit="10"/>
<path d="M55.7174 87.2881H10.6211V88.6845H55.7174V87.2881Z" fill="#DAE4FE"/>
<path d="M47.962 91.0674H18.3711V92.4638H47.962V91.0674Z" fill="#DAE4FE"/>
<path d="M60.0324 68.6689H5.92899C5.53566 68.6689 5.2168 68.9878 5.2168 69.3811C5.2168 69.7745 5.53566 70.0933 5.92899 70.0933H60.0324C60.4258 70.0933 60.7446 69.7745 60.7446 69.3811C60.7446 68.9878 60.4258 68.6689 60.0324 68.6689Z" fill="#DAE4FE"/>
<path d="M30.4089 68.6689H5.92899C5.53566 68.6689 5.2168 68.9878 5.2168 69.3811C5.2168 69.7745 5.53566 70.0933 5.92899 70.0933H30.4089C30.8022 70.0933 31.1211 69.7745 31.1211 69.3811C31.1211 68.9878 30.8022 68.6689 30.4089 68.6689Z" fill="#8A2BE1"/>
<path d="M31.7023 71.1126C32.5378 71.1126 33.2151 70.4353 33.2151 69.5997C33.2151 68.7642 32.5378 68.0869 31.7023 68.0869C30.8668 68.0869 30.1895 68.7642 30.1895 69.5997C30.1895 70.4353 30.8668 71.1126 31.7023 71.1126Z" fill="white"/>
<path d="M31.7041 70.6376C32.2773 70.6376 32.7421 70.1728 32.7421 69.5996C32.7421 69.0263 32.2773 68.5615 31.7041 68.5615C31.1308 68.5615 30.666 69.0263 30.666 69.5996C30.666 70.1728 31.1308 70.6376 31.7041 70.6376Z" fill="#E25469"/>
<path d="M33.1685 82.5772C35.4976 82.5772 37.3858 80.689 37.3858 78.3599C37.3858 76.0307 35.4976 74.1426 33.1685 74.1426C30.8393 74.1426 28.9512 76.0307 28.9512 78.3599C28.9512 80.689 30.8393 82.5772 33.1685 82.5772Z" fill="#E25469"/>
<path d="M32.3969 76.5352H31.7871V80.1892H32.3969V76.5352Z" fill="white"/>
<path d="M34.5512 76.5352H33.9414V80.1892H34.5512V76.5352Z" fill="white"/>
<path d="M48.7212 82.5772C51.0504 82.5772 52.9385 80.689 52.9385 78.3599C52.9385 76.0307 51.0504 74.1426 48.7212 74.1426C46.3921 74.1426 44.5039 76.0307 44.5039 78.3599C44.5039 80.689 46.3921 82.5772 48.7212 82.5772Z" fill="#8A2BE1"/>
<path d="M48.9913 78.1877L46.8873 76.9728C46.8562 76.9548 46.8209 76.9453 46.785 76.9453C46.7491 76.9453 46.7138 76.9547 46.6827 76.9726C46.6516 76.9905 46.6257 77.0163 46.6077 77.0474C46.5897 77.0785 46.5802 77.1137 46.5801 77.1496V79.5795C46.5802 79.6154 46.5897 79.6507 46.6077 79.6817C46.6257 79.7128 46.6516 79.7386 46.6827 79.7565C46.7138 79.7744 46.7491 79.7838 46.785 79.7838C46.8209 79.7838 46.8562 79.7743 46.8873 79.7564L48.9913 78.5414C49.0234 78.5244 49.0503 78.499 49.0691 78.4678C49.0879 78.4366 49.0978 78.4009 49.0978 78.3646C49.0978 78.3282 49.0879 78.2925 49.0691 78.2613C49.0503 78.2302 49.0234 78.2047 48.9913 78.1877Z" fill="white"/>
<path d="M51.3604 78.1877L49.2564 76.9728C49.2253 76.9548 49.1901 76.9453 49.1542 76.9453C49.1182 76.9453 49.083 76.9547 49.0518 76.9726C49.0207 76.9905 48.9949 77.0163 48.9768 77.0474C48.9588 77.0785 48.9493 77.1137 48.9492 77.1496V79.5795C48.9493 79.6154 48.9588 79.6507 48.9768 79.6817C48.9949 79.7128 49.0207 79.7386 49.0518 79.7565C49.083 79.7744 49.1182 79.7838 49.1542 79.7838C49.1901 79.7838 49.2253 79.7743 49.2564 79.7564L51.3604 78.5414C51.3913 78.5234 51.417 78.4976 51.4348 78.4666C51.4526 78.4355 51.462 78.4003 51.462 78.3646C51.462 78.3288 51.4526 78.2936 51.4348 78.2626C51.417 78.2315 51.3913 78.2057 51.3604 78.1877Z" fill="white"/>
<path d="M17.4556 82.5772C19.7847 82.5772 21.6729 80.689 21.6729 78.3599C21.6729 76.0307 19.7847 74.1426 17.4556 74.1426C15.1264 74.1426 13.2383 76.0307 13.2383 78.3599C13.2383 80.689 15.1264 82.5772 17.4556 82.5772Z" fill="#8A2BE1"/>
<path d="M17.1807 78.1877L19.2847 76.9728C19.3158 76.9548 19.3511 76.9453 19.387 76.9453C19.4229 76.9453 19.4582 76.9547 19.4893 76.9726C19.5204 76.9905 19.5463 77.0163 19.5643 77.0474C19.5823 77.0785 19.5918 77.1137 19.5919 77.1496V79.5795C19.5918 79.6154 19.5823 79.6507 19.5643 79.6817C19.5463 79.7128 19.5204 79.7386 19.4893 79.7565C19.4582 79.7744 19.4229 79.7838 19.387 79.7838C19.3511 79.7838 19.3158 79.7743 19.2847 79.7564L17.1807 78.5414C17.1486 78.5244 17.1217 78.499 17.1029 78.4678C17.0841 78.4366 17.0742 78.4009 17.0742 78.3646C17.0742 78.3282 17.0841 78.2925 17.1029 78.2613C17.1217 78.2302 17.1486 78.2047 17.1807 78.1877Z" fill="white"/>
<path d="M14.8105 78.1877L16.9145 76.9728C16.9456 76.9548 16.9809 76.9453 17.0168 76.9453C17.0527 76.9453 17.088 76.9547 17.1191 76.9726C17.1503 76.9905 17.1761 77.0163 17.1941 77.0474C17.2122 77.0785 17.2217 77.1137 17.2218 77.1496V79.5795C17.2217 79.6154 17.2122 79.6507 17.1941 79.6817C17.1761 79.7128 17.1503 79.7386 17.1191 79.7565C17.088 79.7744 17.0527 79.7838 17.0168 79.7838C16.9809 79.7838 16.9456 79.7743 16.9145 79.7564L14.8105 78.5414C14.7796 78.5234 14.754 78.4976 14.7362 78.4666C14.7184 78.4355 14.709 78.4003 14.709 78.3646C14.709 78.3288 14.7184 78.2936 14.7362 78.2626C14.754 78.2315 14.7796 78.2057 14.8105 78.1877Z" fill="white"/>
<path d="M59.4277 38.9848L61.029 37.4115L59.4277 35.8428" stroke="white" stroke-width="0.465486" stroke-linecap="round" stroke-linejoin="round"/>
<path d="M22.4204 38.9848L20.8145 37.4115L22.4204 35.8428" stroke="white" stroke-width="0.465486" stroke-linecap="round" stroke-linejoin="round"/>
<path d="M59.8187 50.8682H21.0996V52.2367H59.8187V50.8682Z" fill="#8A2BE1"/>
<path d="M53.2973 54.2109H27.6211V55.5795H53.2973V54.2109Z" fill="#8A2BE1"/>
<path d="M26.5402 14.7479H25.1858L24.9609 15.4072H24.0409L25.3646 11.8193H26.3715L27.6953 15.4072H26.7651L26.5402 14.7479ZM26.3153 14.0835L25.8655 12.7546L25.4106 14.0835H26.3153ZM28.8834 11.7937V13.879C28.8834 14.1175 28.9362 14.2998 29.0419 14.4259C29.1509 14.552 29.3077 14.615 29.5121 14.615C29.7165 14.615 29.8716 14.552 29.9772 14.4259C30.0862 14.2998 30.1408 14.1175 30.1408 13.879V11.7937H31.0147V13.879C31.0147 14.2198 30.9483 14.5077 30.8154 14.7428C30.6825 14.9745 30.5002 15.15 30.2685 15.2692C30.0402 15.3851 29.7813 15.443 29.4916 15.443C29.202 15.443 28.9465 15.3851 28.725 15.2692C28.5035 15.1534 28.3297 14.9779 28.2037 14.7428C28.0776 14.5077 28.0146 14.2198 28.0146 13.879V11.7937H28.8834ZM34.8494 13.5928C34.8494 13.9472 34.7727 14.2624 34.6194 14.5384C34.4695 14.8109 34.2514 15.0239 33.9652 15.1772C33.6824 15.3306 33.3484 15.4072 32.9634 15.4072H31.5988V11.7937H32.9634C33.3518 11.7937 33.6875 11.8687 33.9703 12.0186C34.2531 12.1685 34.4695 12.3798 34.6194 12.6524C34.7727 12.925 34.8494 13.2384 34.8494 13.5928ZM32.8867 14.6252C33.2275 14.6252 33.4915 14.5349 33.6789 14.3544C33.8698 14.1738 33.9652 13.9199 33.9652 13.5928C33.9652 13.2657 33.8698 13.0119 33.6789 12.8313C33.4915 12.6507 33.2275 12.5604 32.8867 12.5604H32.4727V14.6252H32.8867ZM36.2212 11.7937V15.4072H35.3472V11.7937H36.2212ZM38.5419 11.7375C38.8826 11.7375 39.191 11.8176 39.467 11.9777C39.7464 12.1345 39.9662 12.3542 40.1263 12.637C40.2865 12.9164 40.3665 13.2333 40.3665 13.5877C40.3665 13.9421 40.2848 14.2607 40.1212 14.5435C39.9611 14.8263 39.7413 15.0478 39.4619 15.2079C39.1859 15.3646 38.8792 15.443 38.5419 15.443C38.2046 15.443 37.8962 15.3646 37.6168 15.2079C37.3408 15.0478 37.121 14.8263 36.9575 14.5435C36.7973 14.2607 36.7173 13.9421 36.7173 13.5877C36.7173 13.2333 36.7973 12.9164 36.9575 12.637C37.121 12.3542 37.3408 12.1345 37.6168 11.9777C37.8962 11.8176 38.2046 11.7375 38.5419 11.7375ZM38.5419 12.5502C38.2557 12.5502 38.0274 12.6439 37.857 12.8313C37.6901 13.0153 37.6066 13.2674 37.6066 13.5877C37.6066 13.9046 37.6901 14.1567 37.857 14.3441C38.0274 14.5315 38.2557 14.6252 38.5419 14.6252C38.8247 14.6252 39.0513 14.5315 39.2217 14.3441C39.392 14.1567 39.4772 13.9046 39.4772 13.5877C39.4772 13.2708 39.392 13.0187 39.2217 12.8313C39.0547 12.6439 38.8281 12.5502 38.5419 12.5502ZM44.0478 13.5468C44.2659 13.5979 44.4379 13.7035 44.564 13.8637C44.6935 14.0238 44.7582 14.2095 44.7582 14.4208C44.7582 14.7309 44.6543 14.9728 44.4465 15.1466C44.242 15.3203 43.9473 15.4072 43.5623 15.4072H41.8807V11.7937H43.5214C43.8894 11.7937 44.1739 11.8738 44.3749 12.0339C44.5759 12.1941 44.6765 12.4224 44.6765 12.7188C44.6765 12.9369 44.6185 13.1192 44.5027 13.2657C44.3868 13.4088 44.2352 13.5025 44.0478 13.5468ZM42.7547 13.2708H43.3271C43.6304 13.2708 43.782 13.1413 43.782 12.8824C43.782 12.6234 43.627 12.4939 43.3169 12.4939H42.7547V13.2708ZM43.3783 14.6968C43.702 14.6968 43.8638 14.5639 43.8638 14.2981C43.8638 14.1687 43.8212 14.0681 43.736 13.9966C43.6508 13.9216 43.5299 13.8841 43.3731 13.8841H42.7547V14.6968H43.3783ZM46.9372 11.7375C47.2779 11.7375 47.5863 11.8176 47.8623 11.9777C48.1417 12.1345 48.3615 12.3542 48.5216 12.637C48.6817 12.9164 48.7618 13.2333 48.7618 13.5877C48.7618 13.9421 48.68 14.2607 48.5165 14.5435C48.3563 14.8263 48.1366 15.0478 47.8572 15.2079C47.5812 15.3646 47.2745 15.443 46.9372 15.443C46.5998 15.443 46.2915 15.3646 46.0121 15.2079C45.7361 15.0478 45.5163 14.8263 45.3528 14.5435C45.1926 14.2607 45.1125 13.9421 45.1125 13.5877C45.1125 13.2333 45.1926 12.9164 45.3528 12.637C45.5163 12.3542 45.7361 12.1345 46.0121 11.9777C46.2915 11.8176 46.5998 11.7375 46.9372 11.7375ZM46.9372 12.5502C46.651 12.5502 46.4227 12.6439 46.2523 12.8313C46.0853 13.0153 46.0019 13.2674 46.0019 13.5877C46.0019 13.9046 46.0853 14.1567 46.2523 14.3441C46.4227 14.5315 46.651 14.6252 46.9372 14.6252C47.22 14.6252 47.4466 14.5315 47.6169 14.3441C47.7873 14.1567 47.8725 13.9046 47.8725 13.5877C47.8725 13.2708 47.7873 13.0187 47.6169 12.8313C47.45 12.6439 47.2234 12.5502 46.9372 12.5502ZM50.9701 11.7375C51.3108 11.7375 51.6192 11.8176 51.8952 11.9777C52.1746 12.1345 52.3944 12.3542 52.5545 12.637C52.7147 12.9164 52.7947 13.2333 52.7947 13.5877C52.7947 13.9421 52.713 14.2607 52.5494 14.5435C52.3893 14.8263 52.1695 15.0478 51.8901 15.2079C51.6141 15.3646 51.3074 15.443 50.9701 15.443C50.6328 15.443 50.3244 15.3646 50.045 15.2079C49.769 15.0478 49.5492 14.8263 49.3857 14.5435C49.2255 14.2607 49.1455 13.9421 49.1455 13.5877C49.1455 13.2333 49.2255 12.9164 49.3857 12.637C49.5492 12.3542 49.769 12.1345 50.045 11.9777C50.3244 11.8176 50.6328 11.7375 50.9701 11.7375ZM50.9701 12.5502C50.6839 12.5502 50.4556 12.6439 50.2852 12.8313C50.1183 13.0153 50.0348 13.2674 50.0348 13.5877C50.0348 13.9046 50.1183 14.1567 50.2852 14.3441C50.4556 14.5315 50.6839 14.6252 50.9701 14.6252C51.2529 14.6252 51.4795 14.5315 51.6499 14.3441C51.8202 14.1567 51.9054 13.9046 51.9054 13.5877C51.9054 13.2708 51.8202 13.0187 51.6499 12.8313C51.4829 12.6439 51.2563 12.5502 50.9701 12.5502ZM54.9877 13.5621L56.4443 15.4072H55.3864L54.1597 13.787V15.4072H53.2857V11.7937H54.1597V13.3833L55.3966 11.7937H56.4443L54.9877 13.5621Z" fill="white"/>
<path d="M81.6225 20.8258L90.9741 29.7818C91.0397 29.833 91.118 29.8657 91.2006 29.8763C91.2832 29.887 91.3671 29.8754 91.4437 29.8426C91.5202 29.8097 91.5865 29.757 91.6358 29.6898C91.685 29.6227 91.7153 29.5435 91.7235 29.4606V11.5534C91.7153 11.4705 91.685 11.3913 91.6358 11.3242C91.5865 11.257 91.5202 11.2042 91.4437 11.1714C91.3671 11.1386 91.2832 11.127 91.2006 11.1376C91.118 11.1483 91.0397 11.181 90.9741 11.2322L81.6225 20.1881C81.5413 20.2745 81.4961 20.3885 81.4961 20.507C81.4961 20.6255 81.5413 20.7395 81.6225 20.8258Z" fill="#DAE4FE"/>
<path d="M86.0292 22.004L80.8111 25.2252C80.7624 25.255 80.7066 25.2712 80.6495 25.2723C80.5924 25.2734 80.536 25.2592 80.4862 25.2312C80.4364 25.2032 80.395 25.1624 80.3662 25.1131C80.3374 25.0638 80.3222 25.0077 80.3224 24.9505V16.1063C80.321 16.0482 80.3356 15.9909 80.3646 15.9406C80.3936 15.8903 80.4359 15.8489 80.4869 15.8211C80.5378 15.7932 80.5954 15.7799 80.6534 15.7826C80.7115 15.7853 80.7676 15.8038 80.8158 15.8363L86.0199 19.1552C86.0651 19.1844 86.1023 19.2244 86.1283 19.2715C86.1543 19.3186 86.1683 19.3714 86.1689 19.4252V21.7061C86.1736 21.7636 86.1632 21.8214 86.1387 21.8737C86.1142 21.9259 86.0765 21.9709 86.0292 22.004Z" fill="#DAE4FE"/>
<path d="M94.2833 27.6313C94.2274 27.6374 94.1709 27.6316 94.1174 27.6144C94.0639 27.5971 94.0146 27.5688 93.9728 27.5313C93.9309 27.4937 93.8975 27.4478 93.8746 27.3965C93.8517 27.3451 93.8398 27.2896 93.8398 27.2334C93.8398 27.1771 93.8517 27.1216 93.8746 27.0702C93.8975 27.0189 93.9309 26.973 93.9728 26.9354C94.0146 26.8979 94.0639 26.8696 94.1174 26.8523C94.1709 26.8351 94.2274 26.8293 94.2833 26.8354C95.1146 26.8354 95.9378 26.6716 96.7059 26.3535C97.474 26.0353 98.1718 25.569 98.7597 24.9812C99.3475 24.3933 99.8138 23.6954 100.132 22.9274C100.45 22.1593 100.614 21.3361 100.614 20.5048C100.614 19.6734 100.45 18.8502 100.132 18.0821C99.8138 17.3141 99.3475 16.6162 98.7597 16.0283C98.1718 15.4405 97.474 14.9742 96.7059 14.656C95.9378 14.3379 95.1146 14.1741 94.2833 14.1741C94.1783 14.1741 94.0777 14.1325 94.0035 14.0583C93.9293 13.9841 93.8876 13.8834 93.8876 13.7785C93.8876 13.6735 93.9293 13.5729 94.0035 13.4987C94.0777 13.4245 94.1783 13.3828 94.2833 13.3828C96.1412 13.4303 97.9071 14.2017 99.2044 15.5326C100.502 16.8635 101.228 18.6485 101.228 20.5071C101.228 22.3656 100.502 24.1507 99.2044 25.4815C97.9071 26.8124 96.1412 27.5838 94.2833 27.6313Z" fill="#DAE4FE"/>
<path d="M94.2824 25.6621C94.1774 25.6621 94.0768 25.6204 94.0026 25.5462C93.9284 25.472 93.8867 25.3713 93.8867 25.2664C93.8867 25.1615 93.9284 25.0608 94.0026 24.9866C94.0768 24.9124 94.1774 24.8708 94.2824 24.8708C95.4151 24.8338 96.4891 24.3578 97.2772 23.5434C98.0654 22.7291 98.5061 21.6401 98.5061 20.5068C98.5061 19.3735 98.0654 18.2846 97.2772 17.4702C96.4891 16.6559 95.4151 16.1799 94.2824 16.1429C94.1774 16.1429 94.0768 16.1012 94.0026 16.027C93.9284 15.9528 93.8867 15.8522 93.8867 15.7472C93.8867 15.6423 93.9284 15.5416 94.0026 15.4674C94.0768 15.3932 94.1774 15.3516 94.2824 15.3516C95.6228 15.3918 96.8949 15.9526 97.8288 16.915C98.7627 17.8775 99.285 19.1658 99.285 20.5068C99.285 21.8479 98.7627 23.1362 97.8288 24.0986C96.8949 25.061 95.6228 25.6218 94.2824 25.6621Z" fill="#DAE4FE"/>
<path d="M94.2833 23.8328C94.2274 23.8389 94.1709 23.8331 94.1174 23.8159C94.0639 23.7986 94.0146 23.7703 93.9728 23.7328C93.9309 23.6952 93.8975 23.6493 93.8746 23.598C93.8517 23.5466 93.8398 23.491 93.8398 23.4348C93.8398 23.3786 93.8517 23.3231 93.8746 23.2717C93.8975 23.2204 93.9309 23.1745 93.9728 23.1369C94.0146 23.0994 94.0639 23.0711 94.1174 23.0538C94.1709 23.0366 94.2274 23.0308 94.2833 23.0369C94.9355 23.0089 95.5517 22.7301 96.0033 22.2587C96.4549 21.7873 96.707 21.1597 96.707 20.5069C96.707 19.8541 96.4549 19.2266 96.0033 18.7552C95.5517 18.2838 94.9355 18.005 94.2833 17.977C94.2274 17.9831 94.1709 17.9773 94.1174 17.96C94.0639 17.9428 94.0146 17.9145 93.9728 17.8769C93.9309 17.8394 93.8975 17.7935 93.8746 17.7421C93.8517 17.6908 93.8398 17.6352 93.8398 17.579C93.8398 17.5228 93.8517 17.4672 93.8746 17.4159C93.8975 17.3646 93.9309 17.3187 93.9728 17.2811C94.0146 17.2436 94.0639 17.2153 94.1174 17.198C94.1709 17.1808 94.2274 17.175 94.2833 17.181C95.1438 17.2132 95.9584 17.5777 96.5558 18.1979C97.1533 18.8182 97.4871 19.6458 97.4871 20.5069C97.4871 21.3681 97.1533 22.1957 96.5558 22.8159C95.9584 23.4361 95.1438 23.8006 94.2833 23.8328Z" fill="#DAE4FE"/>
<path d="M112.73 19.9551V25.4897" stroke="#DAE4FE" stroke-width="0.633061" stroke-miterlimit="10" stroke-linecap="round"/>
<path d="M115.729 17.1387V28.301" stroke="#DAE4FE" stroke-width="0.633061" stroke-miterlimit="10" stroke-linecap="round"/>
<path d="M118.721 16.2129V29.2325" stroke="#DAE4FE" stroke-width="0.633061" stroke-miterlimit="10" stroke-linecap="round"/>
<path d="M124.711 19.7695V25.6766" stroke="#DAE4FE" stroke-width="0.633061" stroke-miterlimit="10" stroke-linecap="round"/>
<path d="M121.715 17.7119V27.7338" stroke="#DAE4FE" stroke-width="0.633061" stroke-miterlimit="10" stroke-linecap="round"/>
<path d="M127.705 17.2881V28.1572" stroke="#DAE4FE" stroke-width="0.633061" stroke-miterlimit="10" stroke-linecap="round"/>
<path d="M130.697 16.2129V29.2325" stroke="#DAE4FE" stroke-width="0.633061" stroke-miterlimit="10" stroke-linecap="round"/>
<path d="M133.695 18.4941V26.9474" stroke="#DAE4FE" stroke-width="0.633061" stroke-miterlimit="10" stroke-linecap="round"/>
<path d="M136.689 20.1924V25.2522" stroke="#DAE4FE" stroke-width="0.633061" stroke-miterlimit="10" stroke-linecap="round"/>
</svg>
