<svg width="32" height="32" viewBox="0 0 32 32" fill="none" xmlns="http://www.w3.org/2000/svg">
    <path fill-rule="evenodd" clip-rule="evenodd"
        d="M17.3333 4.00008C17.3333 3.64646 17.1928 3.30732 16.9428 3.05727C16.6927 2.80722 16.3536 2.66675 16 2.66675C15.6464 2.66675 15.3072 2.80722 15.0572 3.05727C14.8071 3.30732 14.6666 3.64646 14.6666 4.00008V5.00008H13.924C12.4947 4.99999 11.1191 5.54461 10.0772 6.52306C9.03533 7.50152 8.40552 8.84026 8.31597 10.2667L8.02131 14.9787C7.9074 16.775 7.3043 18.5059 6.27731 19.9841C6.06482 20.2895 5.93498 20.6447 5.90043 21.0152C5.86588 21.3856 5.92778 21.7587 6.08012 22.0982C6.23247 22.4376 6.47006 22.7319 6.7698 22.9523C7.06954 23.1727 7.42122 23.3118 7.79064 23.3561L12.3333 23.9001V25.3334C12.3333 26.3059 12.7196 27.2385 13.4072 27.9261C14.0949 28.6138 15.0275 29.0001 16 29.0001C16.9724 29.0001 17.9051 28.6138 18.5927 27.9261C19.2803 27.2385 19.6666 26.3059 19.6666 25.3334V23.9001L24.2093 23.3547C24.5785 23.3104 24.93 23.1712 25.2295 22.9509C25.5291 22.7305 25.7665 22.4365 25.9188 22.0972C26.0711 21.758 26.1331 21.3851 26.0987 21.0148C26.0644 20.6446 25.9348 20.2895 25.7226 19.9841C24.6956 18.5059 24.0926 16.775 23.9786 14.9787L23.684 10.2681C23.5948 8.84136 22.9651 7.50229 21.9232 6.52355C20.8813 5.54481 19.5055 5.00001 18.076 5.00008H17.3333V4.00008ZM14.3333 25.3334C14.3333 25.7754 14.5089 26.1994 14.8215 26.5119C15.134 26.8245 15.5579 27.0001 16 27.0001C16.442 27.0001 16.8659 26.8245 17.1785 26.5119C17.491 26.1994 17.6666 25.7754 17.6666 25.3334V24.3334H14.3333V25.3334Z"
        fill="white" />
    <circle cx="23" cy="7" r="5" fill="#ED1F24" />
</svg>