<svg width="120" height="121" viewBox="0 0 120 121" fill="none" xmlns="http://www.w3.org/2000/svg">
    <path
        d="M24.999 55.9841L32.499 33.4841H87.499L94.999 55.9841M87.499 80.9841C85.5099 80.9841 83.6022 80.194 82.1957 78.7874C80.7892 77.3809 79.999 75.4733 79.999 73.4841C79.999 71.495 80.7892 69.5873 82.1957 68.1808C83.6022 66.7743 85.5099 65.9841 87.499 65.9841C89.4881 65.9841 91.3958 66.7743 92.8023 68.1808C94.2088 69.5873 94.999 71.495 94.999 73.4841C94.999 75.4733 94.2088 77.3809 92.8023 78.7874C91.3958 80.194 89.4881 80.9841 87.499 80.9841ZM32.499 80.9841C30.5099 80.9841 28.6022 80.194 27.1957 78.7874C25.7892 77.3809 24.999 75.4733 24.999 73.4841C24.999 71.495 25.7892 69.5873 27.1957 68.1808C28.6022 66.7743 30.5099 65.9841 32.499 65.9841C34.4881 65.9841 36.3958 66.7743 37.8023 68.1808C39.2088 69.5873 39.999 71.495 39.999 73.4841C39.999 75.4733 39.2088 77.3809 37.8023 78.7874C36.3958 80.194 34.4881 80.9841 32.499 80.9841ZM94.599 30.9841C93.599 28.0841 90.799 25.9841 87.499 25.9841H32.499C29.199 25.9841 26.399 28.0841 25.399 30.9841L14.999 60.9841V100.984C14.999 102.31 15.5258 103.582 16.4635 104.52C17.4012 105.457 18.6729 105.984 19.999 105.984H24.999C26.3251 105.984 27.5969 105.457 28.5346 104.52C29.4722 103.582 29.999 102.31 29.999 100.984V95.9841H89.999V100.984C89.999 102.31 90.5258 103.582 91.4635 104.52C92.4012 105.457 93.6729 105.984 94.999 105.984H99.999C101.325 105.984 102.597 105.457 103.535 104.52C104.472 103.582 104.999 102.31 104.999 100.984V60.9841L94.599 30.9841Z"
        fill="#25632D" />
</svg>