<svg width="17" height="17" viewBox="0 0 17 17" fill="none" xmlns="http://www.w3.org/2000/svg">
    <path fill-rule="evenodd" clip-rule="evenodd"
        d="M8.24998 0.149902C12.6683 0.149902 16.25 3.73164 16.25 8.14988C16.25 12.5682 12.6683 16.1499 8.24998 16.1499C3.83173 16.1499 0.25 12.5682 0.25 8.14988C0.25 3.73164 3.83173 0.149902 8.24998 0.149902ZM1.85001 8.14988C1.85001 11.6845 4.71538 14.5499 8.24998 14.5499C9.72898 14.5499 11.0908 14.0482 12.1745 13.2058L3.19412 4.2254C2.35161 5.30915 1.85001 6.67088 1.85001 8.14988ZM8.24998 1.74991C6.77102 1.74991 5.40925 2.25155 4.3255 3.09402L13.3059 12.0744C14.1483 10.9907 14.65 9.62888 14.65 8.14988C14.65 4.61529 11.7846 1.74991 8.24998 1.74991Z"
        fill="#E1171A" />
</svg>