<svg width="25" height="24" viewBox="0 0 25 24" fill="none" xmlns="http://www.w3.org/2000/svg">
    <path
        d="M20.75 22H4.75C4.48478 22 4.23043 21.8946 4.04289 21.7071C3.85536 21.5196 3.75 21.2652 3.75 21V3C3.75 2.73478 3.85536 2.48043 4.04289 2.29289C4.23043 2.10536 4.48478 2 4.75 2H20.75C21.0152 2 21.2696 2.10536 21.4571 2.29289C21.6446 2.48043 21.75 2.73478 21.75 3V21C21.75 21.2652 21.6446 21.5196 21.4571 21.7071C21.2696 21.8946 21.0152 22 20.75 22ZM19.75 20V4H5.75V20H19.75ZM8.75 7H16.75V9H8.75V7ZM8.75 11H16.75V13H8.75V11ZM8.75 15H16.75V17H8.75V15Z"
        fill="#858B93" />
</svg>