<svg width="24" height="25" viewBox="0 0 24 25" fill="none" xmlns="http://www.w3.org/2000/svg">
    <path
        d="M2.99979 9.6683C2.99979 7.98083 2.99979 7.13799 3.5241 6.61367C4.04842 6.08936 4.89126 6.08936 6.57873 6.08936H17.3156C19.003 6.08936 19.8459 6.08936 20.3702 6.61367C20.8945 7.13799 20.8945 7.98083 20.8945 9.6683C20.8945 10.0897 20.8945 10.3009 20.7639 10.4324C20.6324 10.563 20.4203 10.563 19.9998 10.563H3.89452C3.4731 10.563 3.26194 10.563 3.13042 10.4324C2.99979 10.3009 2.99979 10.0888 2.99979 9.6683Z"
        fill="#D5DBE7" />
    <path fill-rule="evenodd" clip-rule="evenodd"
        d="M2.99979 17.721C2.99979 19.4084 2.99979 20.2513 3.5241 20.7756C4.04842 21.2999 4.89126 21.2999 6.57873 21.2999H17.3156C19.003 21.2999 19.8459 21.2999 20.3702 20.7756C20.8945 20.2513 20.8945 19.4084 20.8945 17.721V13.2473C20.8945 12.8259 20.8945 12.6147 20.7639 12.4832C20.6324 12.3525 20.4203 12.3525 19.9998 12.3525H3.89452C3.4731 12.3525 3.26194 12.3525 3.13042 12.4832C2.99979 12.6147 2.99979 12.8267 2.99979 13.2473V17.721ZM7.47347 15.0367C7.47347 14.6153 7.47347 14.4042 7.6041 14.2726C7.73563 14.142 7.94768 14.142 8.36821 14.142H10.1577C10.5791 14.142 10.7903 14.142 10.9218 14.2726C11.0524 14.4042 11.0524 14.6153 11.0524 15.0367C11.0524 15.4582 11.0524 15.6693 10.9218 15.8009C10.7903 15.9315 10.5782 15.9315 10.1577 15.9315H8.36821C7.94679 15.9315 7.73563 15.9315 7.6041 15.8009C7.47347 15.6693 7.47347 15.4573 7.47347 15.0367ZM7.6041 17.8516C7.47347 17.9831 7.47347 18.1952 7.47347 18.6157C7.47347 19.0362 7.47347 19.2483 7.6041 19.3798C7.73563 19.5104 7.94768 19.5104 8.36821 19.5104H10.1577C10.5791 19.5104 10.7903 19.5104 10.9218 19.3798C11.0524 19.2483 11.0524 19.0362 11.0524 18.6157C11.0524 18.1952 11.0524 17.9831 10.9218 17.8516C10.7903 17.721 10.5782 17.721 10.1577 17.721H8.36821C7.94679 17.721 7.73563 17.721 7.6041 17.8516ZM12.8419 15.0367C12.8419 14.6153 12.8419 14.4042 12.9725 14.2726C13.104 14.142 13.3161 14.142 13.7366 14.142H15.5261C15.9475 14.142 16.1587 14.142 16.2902 14.2726C16.4208 14.4042 16.4208 14.6153 16.4208 15.0367C16.4208 15.4582 16.4208 15.6693 16.2902 15.8009C16.1587 15.9315 15.9466 15.9315 15.5261 15.9315H13.7366C13.3152 15.9315 13.104 15.9315 12.9725 15.8009C12.8419 15.6693 12.8419 15.4573 12.8419 15.0367ZM12.9725 17.8516C12.8419 17.9831 12.8419 18.1952 12.8419 18.6157C12.8419 19.0362 12.8419 19.2483 12.9725 19.3798C13.104 19.5104 13.3152 19.5104 13.7366 19.5104H15.5261C15.9475 19.5104 16.1587 19.5104 16.2902 19.3798C16.4208 19.2483 16.4208 19.0362 16.4208 18.6157C16.4208 18.1952 16.4208 17.9831 16.2902 17.8516C16.1587 17.721 15.9466 17.721 15.5261 17.721H13.7366C13.3152 17.721 13.104 17.721 12.9725 17.8516Z"
        fill="#D5DBE7" />
    <path d="M7.47348 4.2998V6.98402M16.4208 4.2998V6.98402" stroke="#D5DBE7" stroke-width="1.78947"
        stroke-linecap="round" />
</svg>