<svg width="24" height="25" viewBox="0 0 24 25" fill="none" xmlns="http://www.w3.org/2000/svg">
    <path
        d="M19.5 6.08105H16.9012L15.6234 4.1648C15.555 4.0622 15.4623 3.97806 15.3535 3.91984C15.2448 3.86162 15.1233 3.83113 15 3.83105H9C8.87665 3.83113 8.75522 3.86162 8.64648 3.91984C8.53773 3.97806 8.44502 4.0622 8.37656 4.1648L7.09781 6.08105H4.5C3.90326 6.08105 3.33097 6.31811 2.90901 6.74006C2.48705 7.16202 2.25 7.73432 2.25 8.33105V18.8311C2.25 19.4278 2.48705 20.0001 2.90901 20.422C3.33097 20.844 3.90326 21.0811 4.5 21.0811H19.5C20.0967 21.0811 20.669 20.844 21.091 20.422C21.5129 20.0001 21.75 19.4278 21.75 18.8311V8.33105C21.75 7.73432 21.5129 7.16202 21.091 6.74006C20.669 6.31811 20.0967 6.08105 19.5 6.08105ZM15.375 13.2061C15.375 13.8736 15.1771 14.5261 14.8062 15.0811C14.4354 15.6361 13.9083 16.0687 13.2916 16.3241C12.6749 16.5796 11.9963 16.6464 11.3416 16.5162C10.6869 16.386 10.0855 16.0645 9.61351 15.5925C9.14151 15.1205 8.82007 14.5192 8.68985 13.8645C8.55962 13.2098 8.62646 12.5312 8.88191 11.9145C9.13735 11.2978 9.56993 10.7707 10.125 10.3998C10.68 10.029 11.3325 9.83105 12 9.83105C12.8951 9.83105 13.7535 10.1866 14.3865 10.8196C15.0194 11.4525 15.375 12.3109 15.375 13.2061Z"
        fill="" />
</svg>