<svg width="25" height="24" viewBox="0 0 25 24" fill="none" xmlns="http://www.w3.org/2000/svg">
    <path
        d="M15.939 3.66992C16.4849 3.66994 17.02 3.82195 17.4844 4.10893C17.9488 4.39591 18.3241 4.80652 18.5683 5.29476L19.9237 8.00446C20.1628 7.90646 20.4009 7.80748 20.6322 7.69282C20.8648 7.57664 21.1341 7.55763 21.3807 7.63996C21.6273 7.7223 21.8312 7.89924 21.9474 8.13186C22.0635 8.36448 22.0826 8.63373 22.0002 8.88037C21.9179 9.12701 21.7409 9.33084 21.5083 9.44702C21.0242 9.6881 20.8027 9.76258 20.8027 9.76258L21.7396 11.6373C21.9444 12.046 22.0503 12.4958 22.0503 12.9525V15.4299C22.0502 15.8436 21.963 16.2525 21.7941 16.6301C21.6252 17.0077 21.3786 17.3454 21.0703 17.6212V18.8599C21.0703 19.2498 20.9154 19.6237 20.6397 19.8994C20.364 20.175 19.9901 20.3299 19.6003 20.3299C19.2104 20.3299 18.8365 20.175 18.5608 19.8994C18.2851 19.6237 18.1303 19.2498 18.1303 18.8599V18.3699H6.37026V18.8599C6.37026 19.2498 6.21538 19.6237 5.9397 19.8994C5.66403 20.175 5.29013 20.3299 4.90026 20.3299C4.51039 20.3299 4.13649 20.175 3.86081 19.8994C3.58513 19.6237 3.43026 19.2498 3.43026 18.8599V17.6212C2.82854 17.0822 2.45026 16.3002 2.45026 15.4299V12.9525C2.45044 12.4963 2.5568 12.0463 2.76092 11.6383L3.6978 9.76258C3.46035 9.66433 3.22571 9.55943 2.99416 9.448C2.87864 9.39069 2.77558 9.31115 2.69086 9.21393C2.60615 9.11671 2.54145 9.00373 2.50048 8.88146C2.45951 8.7592 2.44308 8.63005 2.45212 8.50141C2.46116 8.37278 2.49549 8.2472 2.55316 8.13186C2.67171 7.90027 2.87669 7.72466 3.12374 7.64305C3.37078 7.56143 3.64003 7.58037 3.87322 7.69576C4.1045 7.80683 4.33904 7.90973 4.57686 8.00446L5.9322 5.29476C6.1764 4.80652 6.55172 4.39591 7.01611 4.10893C7.4805 3.82195 8.01563 3.66994 8.56154 3.66992H15.939ZM18.9476 10.4358C17.2816 10.9621 14.911 11.5099 12.2503 11.5099C9.58956 11.5099 7.21894 10.9611 5.55294 10.4358L4.51414 12.5134C4.44584 12.6497 4.41027 12.8 4.41026 12.9525V15.4299C4.41026 15.6898 4.51351 15.9391 4.69729 16.1229C4.88108 16.3067 5.13034 16.4099 5.39026 16.4099H19.1103C19.3702 16.4099 19.6194 16.3067 19.8032 16.1229C19.987 15.9391 20.0903 15.6898 20.0903 15.4299V12.9525C20.0901 12.8004 20.0545 12.6504 19.9864 12.5144L18.9476 10.4358ZM7.84026 12.4899C8.23013 12.4899 8.60403 12.6448 8.8797 12.9205C9.15538 13.1962 9.31026 13.5701 9.31026 13.9599C9.31026 14.3498 9.15538 14.7237 8.8797 14.9994C8.60403 15.275 8.23013 15.4299 7.84026 15.4299C7.45039 15.4299 7.07649 15.275 6.80081 14.9994C6.52513 14.7237 6.37026 14.3498 6.37026 13.9599C6.37026 13.5701 6.52513 13.1962 6.80081 12.9205C7.07649 12.6448 7.45039 12.4899 7.84026 12.4899ZM16.6603 12.4899C17.0501 12.4899 17.424 12.6448 17.6997 12.9205C17.9754 13.1962 18.1303 13.5701 18.1303 13.9599C18.1303 14.3498 17.9754 14.7237 17.6997 14.9994C17.424 15.275 17.0501 15.4299 16.6603 15.4299C16.2704 15.4299 15.8965 15.275 15.6208 14.9994C15.3451 14.7237 15.1903 14.3498 15.1903 13.9599C15.1903 13.5701 15.3451 13.1962 15.6208 12.9205C15.8965 12.6448 16.2704 12.4899 16.6603 12.4899ZM15.939 5.62992H8.56154C8.37959 5.63002 8.20126 5.68077 8.04652 5.77648C7.89178 5.8722 7.76675 6.0091 7.68542 6.17186L6.44082 8.65812C7.95786 9.11382 10.0021 9.54992 12.2503 9.54992C14.4984 9.54992 16.5427 9.11382 18.0587 8.65812L16.8151 6.17186C16.7338 6.0091 16.6087 5.8722 16.454 5.77648C16.2993 5.68077 16.1209 5.63002 15.939 5.62992Z"
        fill="#25632D" />
</svg>