<svg width="25" height="24" viewBox="0 0 25 24" fill="none" xmlns="http://www.w3.org/2000/svg">
    <path
        d="M15.9387 3.66992C16.4846 3.66994 17.0198 3.82195 17.4842 4.10893C17.9486 4.39591 18.3239 4.80652 18.5681 5.29476L19.9234 8.00446C20.1625 7.90646 20.4007 7.80748 20.632 7.69282C20.8646 7.57664 21.1338 7.55763 21.3805 7.63996C21.6271 7.7223 21.8309 7.89924 21.9471 8.13186C22.0633 8.36448 22.0823 8.63373 22 8.88037C21.9176 9.12701 21.7407 9.33084 21.5081 9.44702C21.024 9.6881 20.8025 9.76258 20.8025 9.76258L21.7394 11.6373C21.9442 12.046 22.05 12.4958 22.05 12.9525V15.4299C22.05 15.8436 21.9627 16.2525 21.7938 16.6301C21.625 17.0077 21.3783 17.3454 21.07 17.6212V18.8599C21.07 19.2498 20.9151 19.6237 20.6395 19.8994C20.3638 20.175 19.9899 20.3299 19.6 20.3299C19.2101 20.3299 18.8362 20.175 18.5606 19.8994C18.2849 19.6237 18.13 19.2498 18.13 18.8599V18.3699H6.37001V18.8599C6.37001 19.2498 6.21514 19.6237 5.93946 19.8994C5.66378 20.175 5.28988 20.3299 4.90001 20.3299C4.51014 20.3299 4.13624 20.175 3.86057 19.8994C3.58489 19.6237 3.43001 19.2498 3.43001 18.8599V17.6212C2.82829 17.0822 2.45001 16.3002 2.45001 15.4299V12.9525C2.4502 12.4963 2.55655 12.0463 2.76067 11.6383L3.69755 9.76258C3.46011 9.66433 3.22547 9.55943 2.99391 9.448C2.8784 9.39069 2.77533 9.31115 2.69062 9.21393C2.6059 9.11671 2.54121 9.00373 2.50024 8.88146C2.45927 8.7592 2.44283 8.63005 2.45187 8.50141C2.46091 8.37278 2.49525 8.2472 2.55291 8.13186C2.67147 7.90027 2.87645 7.72466 3.12349 7.64305C3.37054 7.56143 3.63978 7.58037 3.87297 7.69576C4.10425 7.80683 4.3388 7.90973 4.57661 8.00446L5.93195 5.29476C6.17616 4.80652 6.55148 4.39591 7.01587 4.10893C7.48026 3.82195 8.01538 3.66994 8.56129 3.66992H15.9387ZM18.9473 10.4358C17.2813 10.9621 14.9107 11.5099 12.25 11.5099C9.58931 11.5099 7.21869 10.9611 5.55269 10.4358L4.51389 12.5134C4.44559 12.6497 4.41002 12.8 4.41001 12.9525V15.4299C4.41001 15.6898 4.51326 15.9391 4.69705 16.1229C4.88083 16.3067 5.1301 16.4099 5.39001 16.4099H19.11C19.3699 16.4099 19.6192 16.3067 19.803 16.1229C19.9868 15.9391 20.09 15.6898 20.09 15.4299V12.9525C20.0898 12.8004 20.0543 12.6504 19.9861 12.5144L18.9473 10.4358ZM7.84001 12.4899C8.22988 12.4899 8.60378 12.6448 8.87946 12.9205C9.15514 13.1962 9.31001 13.5701 9.31001 13.9599C9.31001 14.3498 9.15514 14.7237 8.87946 14.9994C8.60378 15.275 8.22988 15.4299 7.84001 15.4299C7.45014 15.4299 7.07624 15.275 6.80057 14.9994C6.52489 14.7237 6.37001 14.3498 6.37001 13.9599C6.37001 13.5701 6.52489 13.1962 6.80057 12.9205C7.07624 12.6448 7.45014 12.4899 7.84001 12.4899ZM16.66 12.4899C17.0499 12.4899 17.4238 12.6448 17.6995 12.9205C17.9751 13.1962 18.13 13.5701 18.13 13.9599C18.13 14.3498 17.9751 14.7237 17.6995 14.9994C17.4238 15.275 17.0499 15.4299 16.66 15.4299C16.2701 15.4299 15.8962 15.275 15.6206 14.9994C15.3449 14.7237 15.19 14.3498 15.19 13.9599C15.19 13.5701 15.3449 13.1962 15.6206 12.9205C15.8962 12.6448 16.2701 12.4899 16.66 12.4899ZM15.9387 5.62992H8.56129C8.37934 5.63002 8.20102 5.68077 8.04628 5.77648C7.89154 5.8722 7.7665 6.0091 7.68517 6.17186L6.44057 8.65812C7.95761 9.11382 10.0019 9.54992 12.25 9.54992C14.4981 9.54992 16.5424 9.11382 18.0585 8.65812L16.8149 6.17186C16.7335 6.0091 16.6085 5.8722 16.4537 5.77648C16.299 5.68077 16.1207 5.63002 15.9387 5.62992Z"
        fill="#858B93" />
</svg>