<svg width="36" height="36" viewBox="0 0 36 36" fill="none" xmlns="http://www.w3.org/2000/svg">
    <path fill-rule="evenodd" clip-rule="evenodd"
        d="M18 36C8.05838 36 0 27.9416 0 18C0 8.05838 8.05838 0 18 0C27.9416 0 36 8.05838 36 18C36 27.9416 27.9416 36 18 36ZM18.315 26.2406C19.4715 27.0405 20.9385 27.5164 22.527 27.5164C22.9223 27.5164 23.3119 27.4875 23.6959 27.4298C23.8275 27.4837 23.9546 27.5501 24.111 27.6401C24.4485 27.8381 24.8985 28.1419 25.461 28.5514C25.9211 28.8877 26.5725 28.5626 26.5725 27.9967V26.3531C26.8088 26.2001 27.0319 26.0344 27.2419 25.8559C28.5131 24.7781 29.25 23.3044 29.25 21.7237C29.25 20.6831 28.935 19.71 28.3815 18.8696C28.2065 19.4662 27.9701 20.043 27.6761 20.5909C27.7939 20.9546 27.8535 21.3322 27.855 21.7237C27.855 22.887 27.306 23.985 26.334 24.8085C26.0831 25.0203 25.8131 25.2082 25.5274 25.3699C25.4213 25.4295 25.3331 25.5162 25.2716 25.6212C25.2101 25.7262 25.1776 25.8456 25.1775 25.9673V26.6692C24.5104 26.2417 24.0525 26.0404 23.7038 26.0404C23.6646 26.0417 23.6255 26.0451 23.5868 26.0505C22.6093 26.2138 21.6074 26.1483 20.6595 25.8592C19.8918 26.0583 19.1073 26.1863 18.3161 26.2418L18.315 26.2406ZM9.91575 22.9534C10.2861 23.2681 10.6786 23.5557 11.0903 23.814V26.6175C11.0903 27.3263 11.9059 27.7312 12.4808 27.3105C14.067 26.1517 15.1695 25.497 15.4451 25.4318C16.0826 25.533 16.7306 25.5836 17.3891 25.5836C23.2391 25.5836 28.0294 21.5258 28.0294 16.4486C28.0294 11.3704 23.238 7.3125 17.3891 7.3125C11.5402 7.3125 6.75 11.3704 6.75 16.4475C6.75 18.9338 7.90875 21.2524 9.91575 22.9534ZM15.4834 23.7026C14.9175 23.7026 14.0906 24.102 12.8351 24.9446V23.328C12.834 23.1759 12.7929 23.0268 12.7158 22.8957C12.6388 22.7646 12.5286 22.656 12.3964 22.581C11.9203 22.3102 11.4699 21.9965 11.0509 21.6439C9.41625 20.2612 8.49375 18.4118 8.49375 16.4475C8.49375 12.3862 12.4493 9.036 17.3891 9.036C22.3301 9.036 26.2845 12.3862 26.2845 16.4475C26.2845 20.5087 22.3301 23.8601 17.3891 23.8601C16.7921 23.8601 16.2056 23.8114 15.6296 23.7139C15.5812 23.7069 15.5323 23.7032 15.4834 23.7026ZM12.8542 18.1721C13.6249 18.1721 14.2493 17.5534 14.2493 16.7929C14.2493 16.0312 13.6249 15.4136 12.8542 15.4136C12.0836 15.4136 11.4592 16.0312 11.4592 16.7929C11.4592 17.5545 12.0836 18.1721 12.8542 18.1721ZM17.3891 18.1721C18.1597 18.1721 18.7841 17.5534 18.7841 16.7929C18.7841 16.0312 18.1597 15.4136 17.3891 15.4136C16.6185 15.4136 15.9941 16.0312 15.9941 16.7929C15.9941 17.5545 16.6185 18.1721 17.3891 18.1721ZM21.924 18.1721C22.6946 18.1721 23.319 17.5534 23.319 16.7929C23.319 16.0312 22.6946 15.4136 21.924 15.4136C21.1534 15.4136 20.529 16.0312 20.529 16.7929C20.529 17.5545 21.1534 18.1721 21.924 18.1721Z"
        fill="#25632D" />
</svg>