<svg width="24" height="25" viewBox="0 0 24 25" fill="none" xmlns="http://www.w3.org/2000/svg">
    <path
        d="M12 2.69971C14.5461 2.69971 16.9879 3.71113 18.7882 5.51148C20.5886 7.31183 21.6 9.75363 21.6 12.2997C21.6 14.8458 20.5886 17.2876 18.7882 19.0879C16.9879 20.8883 14.5461 21.8997 12 21.8997C9.45392 21.8997 7.01212 20.8883 5.21177 19.0879C3.41142 17.2876 2.39999 14.8458 2.39999 12.2997C2.39999 9.75363 3.41142 7.31183 5.21177 5.51148C7.01212 3.71113 9.45392 2.69971 12 2.69971ZM11.4 6.29971C11.2409 6.29971 11.0883 6.36292 10.9757 6.47544C10.8632 6.58797 10.8 6.74058 10.8 6.89971V12.8997L10.8096 13.0077C10.8349 13.1458 10.9078 13.2707 11.0157 13.3606C11.1236 13.4505 11.2596 13.4998 11.4 13.4997H15L15.108 13.4901C15.2555 13.4634 15.3877 13.3824 15.4785 13.2631C15.5693 13.1438 15.6122 12.9948 15.5986 12.8455C15.5851 12.6962 15.5161 12.5573 15.4053 12.4563C15.2945 12.3553 15.1499 12.2994 15 12.2997H12V6.89971L11.9904 6.79171C11.9651 6.65357 11.8922 6.52868 11.7843 6.43877C11.6764 6.34887 11.5404 6.29966 11.4 6.29971Z"
        fill="#D5DBE7" />
</svg>