<svg width="16" height="16" viewBox="0 0 16 16" fill="none" xmlns="http://www.w3.org/2000/svg">
    <g clip-path="url(#clip0_2182_13835)">
        <path fill-rule="evenodd" clip-rule="evenodd"
            d="M0.25 8.1499C0.25 6.16078 1.04018 4.25312 2.4467 2.8466C3.85322 1.44008 5.76088 0.649902 7.75 0.649902C9.73912 0.649902 11.6468 1.44008 13.0533 2.8466C14.4598 4.25312 15.25 6.16078 15.25 8.1499C15.25 10.139 14.4598 12.0467 13.0533 13.4532C11.6468 14.8597 9.73912 15.6499 7.75 15.6499C5.76088 15.6499 3.85322 14.8597 2.4467 13.4532C1.04018 12.0467 0.25 10.139 0.25 8.1499ZM7.322 11.3599L11.64 5.9619L10.86 5.3379L7.178 9.9389L4.57 7.7659L3.93 8.5339L7.322 11.3599Z"
            fill="#25632D" />
    </g>
    <defs>
        <clipPath id="clip0_2182_13835">
            <rect width="15" height="15" fill="white" transform="translate(0.25 0.649902)" />
        </clipPath>
    </defs>
</svg>