<svg width="17" height="17" viewBox="0 0 17 17" fill="none" xmlns="http://www.w3.org/2000/svg">
    <path fill-rule="evenodd" clip-rule="evenodd"
        d="M0.25 8.1499C0.25 6.02817 1.09285 3.99334 2.59315 2.49305C4.09344 0.992757 6.12827 0.149902 8.25 0.149902C10.3717 0.149902 12.4066 0.992757 13.9069 2.49305C15.4071 3.99334 16.25 6.02817 16.25 8.1499C16.25 10.2716 15.4071 12.3065 13.9069 13.8068C12.4066 15.307 10.3717 16.1499 8.25 16.1499C6.12827 16.1499 4.09344 15.307 2.59315 13.8068C1.09285 12.3065 0.25 10.2716 0.25 8.1499ZM7.79347 11.5739L12.3993 5.81604L11.5673 5.15044L7.63987 10.0582L4.858 7.7403L4.17533 8.5595L7.79347 11.5739Z"
        fill="#858B93" />
</svg>