<svg width="24" height="24" viewBox="0 0 24 24" fill="none" xmlns="http://www.w3.org/2000/svg">
    <path
        d="M7.1998 4.80039C7.1998 4.16387 7.45266 3.55342 7.90275 3.10333C8.35284 2.65325 8.96328 2.40039 9.5998 2.40039H16.7998C17.4363 2.40039 18.0468 2.65325 18.4969 3.10333C18.9469 3.55342 19.1998 4.16387 19.1998 4.80039V16.8004C19.1998 17.4369 18.9469 18.0474 18.4969 18.4974C18.0468 18.9475 17.4363 19.2004 16.7998 19.2004H9.5998C8.96328 19.2004 8.35284 18.9475 7.90275 18.4974C7.45266 18.0474 7.1998 17.4369 7.1998 16.8004V4.80039ZM4.7998 7.20039C4.79982 6.77911 4.91072 6.36526 5.12136 6.00043C5.332 5.63559 5.63497 5.33263 5.9998 5.12199V17.4004C5.9998 18.196 6.31588 18.9591 6.87848 19.5217C7.44109 20.0843 8.20415 20.4004 8.9998 20.4004H16.4782C16.2676 20.7652 15.9646 21.0682 15.5998 21.2788C15.2349 21.4895 14.8211 21.6004 14.3998 21.6004H8.9998C7.8859 21.6004 6.81761 21.1579 6.02996 20.3702C5.2423 19.5826 4.7998 18.5143 4.7998 17.4004V7.20039Z"
        fill="#25632D" />
</svg>