<svg width="22" height="23" viewBox="0 0 22 23" fill="none" xmlns="http://www.w3.org/2000/svg">
    <rect x="0.5" y="1.33105" width="20.5" height="20.5" rx="10.25" fill="#25632D" />
    <rect x="0.5" y="1.33105" width="20.5" height="20.5" rx="10.25" stroke="#25632D" />
    <path
        d="M10.75 1.83105C8.82164 1.83105 6.93657 2.40288 5.33319 3.47423C3.72982 4.54557 2.48013 6.06831 1.74218 7.84989C1.00422 9.63147 0.811142 11.5919 1.18735 13.4832C1.56355 15.3745 2.49215 17.1118 3.85571 18.4753C5.21928 19.8389 6.95656 20.7675 8.84787 21.1437C10.7392 21.5199 12.6996 21.3268 14.4812 20.5889C16.2627 19.8509 17.7855 18.6012 18.8568 16.9979C19.9282 15.3945 20.5 13.5094 20.5 11.5811C20.4973 8.99603 19.4692 6.51767 17.6413 4.68978C15.8134 2.86189 13.335 1.83378 10.75 1.83105ZM14.2806 14.0504C14.3503 14.1201 14.4056 14.2028 14.4433 14.2939C14.481 14.3849 14.5004 14.4825 14.5004 14.5811C14.5004 14.6796 14.481 14.7772 14.4433 14.8682C14.4056 14.9593 14.3503 15.042 14.2806 15.1117C14.2109 15.1814 14.1282 15.2366 14.0372 15.2743C13.9461 15.3121 13.8486 15.3315 13.75 15.3315C13.6515 15.3315 13.5539 15.3121 13.4628 15.2743C13.3718 15.2366 13.2891 15.1814 13.2194 15.1117L10.75 12.6414L8.28063 15.1117C8.21095 15.1814 8.12822 15.2366 8.03718 15.2743C7.94613 15.3121 7.84855 15.3315 7.75 15.3315C7.65146 15.3315 7.55388 15.3121 7.46283 15.2743C7.37179 15.2366 7.28906 15.1814 7.21938 15.1117C7.1497 15.042 7.09442 14.9593 7.05671 14.8682C7.019 14.7772 6.99959 14.6796 6.99959 14.5811C6.99959 14.4825 7.019 14.3849 7.05671 14.2939C7.09442 14.2028 7.1497 14.1201 7.21938 14.0504L9.68969 11.5811L7.21938 9.11168C7.07865 8.97095 6.99959 8.78008 6.99959 8.58105C6.99959 8.38203 7.07865 8.19116 7.21938 8.05043C7.36011 7.9097 7.55098 7.83064 7.75 7.83064C7.94903 7.83064 8.1399 7.9097 8.28063 8.05043L10.75 10.5207L13.2194 8.05043C13.2891 7.98075 13.3718 7.92547 13.4628 7.88776C13.5539 7.85005 13.6515 7.83064 13.75 7.83064C13.8486 7.83064 13.9461 7.85005 14.0372 7.88776C14.1282 7.92547 14.2109 7.98075 14.2806 8.05043C14.3503 8.12011 14.4056 8.20284 14.4433 8.29388C14.481 8.38493 14.5004 8.48251 14.5004 8.58105C14.5004 8.6796 14.481 8.77718 14.4433 8.86823C14.4056 8.95927 14.3503 9.042 14.2806 9.11168L11.8103 11.5811L14.2806 14.0504Z"
        fill="white" />
</svg>