<svg width="21" height="21" viewBox="0 0 21 21" fill="none" xmlns="http://www.w3.org/2000/svg">
<g clip-path="url(#clip0_2117_439)">
<path d="M19.4717 4.31202C19.1672 4.18518 18.8318 4.15183 18.5083 4.21624C18.1847 4.28065 17.8877 4.43989 17.655 4.67369L15.5 6.82869L11.6783 3.00702C11.3658 2.69457 10.9419 2.51904 10.5 2.51904C10.0581 2.51904 9.63421 2.69457 9.32167 3.00702L5.5 6.82869L3.345 4.67369C3.11191 4.44067 2.81497 4.28199 2.49172 4.21771C2.16846 4.15344 1.83341 4.18644 1.52891 4.31256C1.22441 4.43867 0.964138 4.65224 0.780997 4.92626C0.597857 5.20027 0.50007 5.52244 0.5 5.85202V14.6737C0.501323 15.7784 0.940735 16.8374 1.72185 17.6185C2.50296 18.3996 3.562 18.839 4.66667 18.8404H16.3333C17.438 18.839 18.497 18.3996 19.2782 17.6185C20.0593 16.8374 20.4987 15.7784 20.5 14.6737V5.85202C20.5001 5.52241 20.4024 5.20018 20.2194 4.92606C20.0364 4.65195 19.7761 4.43826 19.4717 4.31202Z" fill="#FFD500"/>
</g>
<defs>
<clipPath id="clip0_2117_439">
<rect width="20" height="20" fill="white" transform="translate(0.5 0.506836)"/>
</clipPath>
</defs>
</svg>
