<svg width="60" height="60" viewBox="0 0 60 60" fill="none" xmlns="http://www.w3.org/2000/svg">
    <path
        d="M30 5.625C25.1791 5.625 20.4664 7.05457 16.458 9.73293C12.4495 12.4113 9.32533 16.2181 7.48045 20.6721C5.63556 25.126 5.15286 30.027 6.09337 34.7553C7.03388 39.4836 9.35538 43.8268 12.7643 47.2357C16.1732 50.6446 20.5164 52.9661 25.2447 53.9066C29.973 54.8472 34.874 54.3644 39.3279 52.5196C43.7819 50.6747 47.5887 47.5505 50.2671 43.542C52.9454 39.5336 54.375 34.8209 54.375 30C54.3682 23.5374 51.7979 17.3415 47.2282 12.7718C42.6585 8.20209 36.4626 5.63182 30 5.625ZM38.8266 36.1734C39.0008 36.3476 39.139 36.5545 39.2332 36.7821C39.3275 37.0097 39.3761 37.2536 39.3761 37.5C39.3761 37.7464 39.3275 37.9903 39.2332 38.2179C39.139 38.4455 39.0008 38.6524 38.8266 38.8266C38.6524 39.0008 38.4456 39.139 38.2179 39.2332C37.9903 39.3275 37.7464 39.376 37.5 39.376C37.2536 39.376 37.0097 39.3275 36.7821 39.2332C36.5545 39.139 36.3477 39.0008 36.1734 38.8266L30 32.6508L23.8266 38.8266C23.6524 39.0008 23.4456 39.139 23.2179 39.2332C22.9903 39.3275 22.7464 39.376 22.5 39.376C22.2536 39.376 22.0097 39.3275 21.7821 39.2332C21.5545 39.139 21.3477 39.0008 21.1734 38.8266C20.9992 38.6524 20.8611 38.4455 20.7668 38.2179C20.6725 37.9903 20.624 37.7464 20.624 37.5C20.624 37.2536 20.6725 37.0097 20.7668 36.7821C20.8611 36.5545 20.9992 36.3476 21.1734 36.1734L27.3492 30L21.1734 23.8266C20.8216 23.4747 20.624 22.9976 20.624 22.5C20.624 22.0024 20.8216 21.5253 21.1734 21.1734C21.5253 20.8216 22.0025 20.624 22.5 20.624C22.9976 20.624 23.4747 20.8216 23.8266 21.1734L30 27.3492L36.1734 21.1734C36.3477 20.9992 36.5545 20.861 36.7821 20.7668C37.0097 20.6725 37.2536 20.624 37.5 20.624C37.7464 20.624 37.9903 20.6725 38.2179 20.7668C38.4456 20.861 38.6524 20.9992 38.8266 21.1734C39.0008 21.3476 39.139 21.5545 39.2332 21.7821C39.3275 22.0097 39.3761 22.2536 39.3761 22.5C39.3761 22.7464 39.3275 22.9903 39.2332 23.2179C39.139 23.4455 39.0008 23.6524 38.8266 23.8266L32.6508 30L38.8266 36.1734Z"
        fill="#E1171A" />
</svg>