<svg width="23" height="27" viewBox="0 0 23 27" fill="none" xmlns="http://www.w3.org/2000/svg">
<path opacity="0.2" d="M5.1 1.80005H14.459C14.7502 1.79992 15.0382 1.86035 15.3047 1.97748C15.5713 2.09461 15.8106 2.26589 16.0074 2.48045L22.047 9.06325C22.4025 9.45054 22.5999 9.95711 22.6 10.4828V24.9001C22.6 25.457 22.3787 25.9911 21.9849 26.385C21.5911 26.7788 21.057 27 20.5 27H5.1C4.54305 27 4.0089 26.7788 3.61508 26.385C3.22125 25.9911 3 25.457 3 24.9001V3.90005C3 3.34309 3.22125 2.80895 3.61508 2.41512C4.0089 2.0213 4.54305 1.80005 5.1 1.80005Z" fill="#6A707C"/>
<path d="M5.09844 15.8C4.91279 15.8 4.73474 15.7263 4.60346 15.595C4.47219 15.4637 4.39844 15.2857 4.39844 15.1C4.39844 14.9144 4.47219 14.7363 4.60346 14.605C4.73474 14.4738 4.91279 14.4 5.09844 14.4H14.8984C15.0841 14.4 15.2621 14.4738 15.3934 14.605C15.5247 14.7363 15.5984 14.9144 15.5984 15.1C15.5984 15.2857 15.5247 15.4637 15.3934 15.595C15.2621 15.7263 15.0841 15.8 14.8984 15.8H5.09844ZM5.09844 20C4.91279 20 4.73474 19.9263 4.60346 19.795C4.47219 19.6637 4.39844 19.4857 4.39844 19.3C4.39844 19.1144 4.47219 18.9363 4.60346 18.805C4.73474 18.6738 4.91279 18.6 5.09844 18.6H14.8984C15.0841 18.6 15.2621 18.6738 15.3934 18.805C15.5247 18.9363 15.5984 19.1144 15.5984 19.3C15.5984 19.4857 15.5247 19.6637 15.3934 19.795C15.2621 19.9263 15.0841 20 14.8984 20H5.09844Z" fill=""/>
<path fill-rule="evenodd" clip-rule="evenodd" d="M11.6582 0.400025H2.29922C1.74226 0.400025 1.20812 0.621274 0.814295 1.0151C0.420468 1.40893 0.199219 1.94307 0.199219 2.50002V23.5C0.199219 24.057 0.420468 24.5911 0.814295 24.9849C1.20812 25.3788 1.74226 25.6 2.29922 25.6H17.6992C18.2562 25.6 18.7903 25.3788 19.1841 24.9849C19.578 24.5911 19.7992 24.057 19.7992 23.5V9.08283C19.7991 8.55709 19.6018 8.05052 19.2462 7.66323L13.2066 1.08042C13.0098 0.865868 12.7705 0.694585 12.5039 0.577453C12.2374 0.460321 11.9494 0.399899 11.6582 0.400025ZM1.59922 2.50002C1.59922 2.31437 1.67297 2.13633 1.80424 2.00505C1.93552 1.87377 2.11357 1.80002 2.29922 1.80002H11.6582C11.7554 1.79992 11.8514 1.82003 11.9404 1.85907C12.0293 1.89812 12.1092 1.95525 12.1748 2.02682L18.2144 8.60962C18.3331 8.73865 18.399 8.90752 18.3992 9.08283V23.5C18.3992 23.6857 18.3255 23.8637 18.1942 23.995C18.0629 24.1263 17.8849 24.2 17.6992 24.2H2.29922C2.11357 24.2 1.93552 24.1263 1.80424 23.995C1.67297 23.8637 1.59922 23.6857 1.59922 23.5V2.50002Z" fill=""/>
<path d="M11.4 8.80002H19.1C19.2857 8.80002 19.4637 8.87377 19.595 9.00505C19.7263 9.13632 19.8 9.31437 19.8 9.50002C19.8 9.68568 19.7263 9.86372 19.595 9.995C19.4637 10.1263 19.2857 10.2 19.1 10.2H10.7C10.5143 10.2 10.3363 10.1263 10.205 9.995C10.0737 9.86372 10 9.68568 10 9.50002V1.10002C10 0.914373 10.0737 0.736325 10.205 0.60505C10.3363 0.473774 10.5143 0.400024 10.7 0.400024C10.8857 0.400024 11.0637 0.473774 11.195 0.60505C11.3263 0.736325 11.4 0.914373 11.4 1.10002V8.80002Z" fill=""/>
</svg>
