<svg width="24" height="25" viewBox="0 0 24 25" fill="none" xmlns="http://www.w3.org/2000/svg">
    <path
        d="M12 2.5498C10.0716 2.5498 8.18657 3.12163 6.58319 4.19298C4.97982 5.26432 3.73013 6.78706 2.99218 8.56864C2.25422 10.3502 2.06114 12.3106 2.43735 14.2019C2.81355 16.0933 3.74215 17.8305 5.10571 19.1941C6.46928 20.5577 8.20656 21.4863 10.0979 21.8625C11.9892 22.2387 13.9496 22.0456 15.7312 21.3076C17.5127 20.5697 19.0355 19.32 20.1068 17.7166C21.1782 16.1132 21.75 14.2282 21.75 12.2998C21.7473 9.71478 20.7192 7.23642 18.8913 5.40853C17.0634 3.58064 14.585 2.55253 12 2.5498ZM13.125 16.7998H12.75V17.5498C12.75 17.7487 12.671 17.9395 12.5303 18.0801C12.3897 18.2208 12.1989 18.2998 12 18.2998C11.8011 18.2998 11.6103 18.2208 11.4697 18.0801C11.329 17.9395 11.25 17.7487 11.25 17.5498V16.7998H9.75C9.55109 16.7998 9.36033 16.7208 9.21967 16.5801C9.07902 16.4395 9 16.2487 9 16.0498C9 15.8509 9.07902 15.6601 9.21967 15.5195C9.36033 15.3788 9.55109 15.2998 9.75 15.2998H13.125C13.4234 15.2998 13.7095 15.1813 13.9205 14.9703C14.1315 14.7593 14.25 14.4732 14.25 14.1748C14.25 13.8764 14.1315 13.5903 13.9205 13.3793C13.7095 13.1683 13.4234 13.0498 13.125 13.0498H10.875C10.1788 13.0498 9.51113 12.7732 9.01885 12.281C8.52657 11.7887 8.25 11.121 8.25 10.4248C8.25 9.72861 8.52657 9.06093 9.01885 8.56865C9.51113 8.07637 10.1788 7.7998 10.875 7.7998H11.25V7.0498C11.25 6.85089 11.329 6.66013 11.4697 6.51947C11.6103 6.37882 11.8011 6.2998 12 6.2998C12.1989 6.2998 12.3897 6.37882 12.5303 6.51947C12.671 6.66013 12.75 6.85089 12.75 7.0498V7.7998H14.25C14.4489 7.7998 14.6397 7.87882 14.7803 8.01947C14.921 8.16013 15 8.35089 15 8.5498C15 8.74872 14.921 8.93948 14.7803 9.08013C14.6397 9.22079 14.4489 9.2998 14.25 9.2998H10.875C10.5766 9.2998 10.2905 9.41833 10.0795 9.62931C9.86853 9.84029 9.75 10.1264 9.75 10.4248C9.75 10.7232 9.86853 11.0093 10.0795 11.2203C10.2905 11.4313 10.5766 11.5498 10.875 11.5498H13.125C13.8212 11.5498 14.4889 11.8264 14.9812 12.3186C15.4734 12.8109 15.75 13.4786 15.75 14.1748C15.75 14.871 15.4734 15.5387 14.9812 16.031C14.4889 16.5232 13.8212 16.7998 13.125 16.7998Z"
        fill="#D5DBE7" />
</svg>