<svg width="175" height="59" viewBox="0 0 175 59" fill="none" xmlns="http://www.w3.org/2000/svg">
    <rect x="1.44006" y="1.63049" width="172.833" height="56.6429" rx="7.9881" fill="black" />
    <rect x="1.44006" y="1.63049" width="172.833" height="56.6429" rx="7.9881" stroke="#A6A6A6"
        stroke-width="1.45238" />
    <path
        d="M26.5741 29.1704L12.4639 44.4847C12.4652 44.4874 12.4652 44.4915 12.4665 44.4942C12.8999 46.1571 14.3842 47.3809 16.1468 47.3809C16.8519 47.3809 17.5132 47.1857 18.0804 46.8442L18.1254 46.8171L34.0075 37.4456L26.5741 29.1704Z"
        fill="#EA4335" />
    <path
        d="M40.8482 26.5621L40.8349 26.5526L33.978 22.4882L26.2529 29.5179L34.0058 37.4434L40.8256 33.4196C42.021 32.7583 42.8334 31.4694 42.8334 29.9841C42.8334 28.5069 42.033 27.2248 40.8482 26.5621Z"
        fill="#FBBC04" />
    <path
        d="M12.4629 15.4184C12.3781 15.7383 12.333 16.0744 12.333 16.4213V43.4828C12.333 43.8298 12.3781 44.1659 12.4642 44.4844L27.0581 29.5618L12.4629 15.4184Z"
        fill="#4285F4" />
    <path
        d="M26.6768 29.9521L33.9791 22.4861L18.1155 13.0807C17.539 12.727 16.8658 12.5237 16.1462 12.5237C14.3836 12.5237 12.8966 13.7502 12.4632 15.4144C12.4632 15.4158 12.4619 15.4171 12.4619 15.4185L26.6768 29.9521Z"
        fill="#34A853" />
    <path
        d="M58.6207 14.5803C56.2243 14.5803 54.7138 16.3522 54.7138 19.0101C54.7138 21.7115 56.3114 23.3527 58.6498 23.3527C60.3926 23.3527 62.0919 22.5103 62.0919 20.0122V19.4748H58.3302V18.5453H63.0795V24.1805H62.2517L62.15 22.5248C61.5981 23.556 60.291 24.3403 58.6062 24.3403C55.6579 24.3403 53.6245 22.2198 53.6245 19.0101C53.6245 15.8293 55.6579 13.5927 58.6352 13.5927C60.8283 13.5927 62.5276 14.8417 62.9343 16.7298H61.8014C61.3657 15.3065 60.1457 14.5803 58.6207 14.5803ZM71.8268 24.166H65.5961V13.767H71.8123V14.7255H66.6418V18.4727H71.333V19.4167H66.6418V23.2074H71.8268V24.166ZM72.8609 14.7255V13.767H80.3116V14.7255H77.1018V24.166H76.0561V14.7255H72.8609ZM86.8248 13.767V24.166H85.7791V13.767H86.8248ZM88.264 14.7255V13.767H95.7148V14.7255H92.505V24.166H91.4593V14.7255H88.264ZM110.448 18.9665C110.448 22.1182 108.401 24.3403 105.496 24.3403C102.577 24.3403 100.543 22.1182 100.543 18.9665C100.543 15.8148 102.591 13.5782 105.496 13.5782C108.415 13.5782 110.448 15.8003 110.448 18.9665ZM109.374 18.9665C109.374 16.3667 107.791 14.5948 105.496 14.5948C103.201 14.5948 101.633 16.3667 101.633 18.9665C101.633 21.5663 103.201 23.3382 105.496 23.3382C107.791 23.3382 109.374 21.5517 109.374 18.9665ZM113.39 24.166H112.345V13.767H113.405L119.127 22.4232V13.767H120.158V24.166H119.127L113.39 15.5098V24.166Z"
        fill="white" />
    <path
        d="M136.538 49.094H138.904V33.1011H136.538V49.094ZM157.846 38.862L155.134 45.7959H155.053L152.238 38.862H149.69L153.91 48.5529L151.505 53.944H153.971L160.476 38.862H157.846ZM144.43 47.2774C143.654 47.2774 142.574 46.8872 142.574 45.9187C142.574 44.6855 143.919 44.2121 145.082 44.2121C146.121 44.2121 146.612 44.4386 147.243 44.7469C147.059 46.2283 145.795 47.2774 144.43 47.2774ZM144.715 38.5127C143.003 38.5127 141.228 39.2739 140.495 40.9613L142.594 41.8454C143.043 40.9613 143.879 40.6722 144.756 40.6722C145.979 40.6722 147.223 41.4129 147.243 42.7307V42.8944C146.815 42.6475 145.898 42.2778 144.776 42.2778C142.513 42.2778 140.208 43.5328 140.208 45.8778C140.208 48.0181 142.064 49.3972 144.144 49.3972C145.735 49.3972 146.612 48.677 147.162 47.8326H147.243V49.0672H149.526V42.9353C149.526 40.0965 147.427 38.5127 144.715 38.5127ZM130.095 40.8091H126.731V35.3272H130.095C131.864 35.3272 132.868 36.8048 132.868 38.0675C132.868 39.3072 131.864 40.8091 130.095 40.8091ZM130.035 33.1011H124.366V49.094H126.731V43.0351H130.035C132.656 43.0351 135.234 41.1187 135.234 38.0675C135.234 35.0163 132.656 33.1011 130.035 33.1011ZM99.1252 47.28C97.491 47.28 96.1231 45.8996 96.1231 44.0036C96.1231 42.0872 97.491 40.685 99.1252 40.685C100.739 40.685 102.004 42.0872 102.004 44.0036C102.004 45.8996 100.739 47.28 99.1252 47.28ZM101.842 39.7575H101.76C101.228 39.1191 100.208 38.5421 98.9211 38.5421C96.2245 38.5421 93.7536 40.9319 93.7536 44.0036C93.7536 47.0535 96.2245 49.4241 98.9211 49.4241C100.208 49.4241 101.228 48.8471 101.76 48.187H101.842V48.9712C101.842 51.0527 100.739 52.1657 98.9616 52.1657C97.5113 52.1657 96.6124 51.1141 96.2448 50.2275L94.1821 51.0936C94.7742 52.5367 96.3475 54.3086 98.9616 54.3086C101.739 54.3086 104.088 52.6595 104.088 48.6412V38.8709H101.842V39.7575ZM105.723 49.094H108.092V33.0999H105.723V49.094ZM111.584 43.8181C111.523 41.7161 113.197 40.6441 114.402 40.6441C115.342 40.6441 116.139 41.1174 116.404 41.798L111.584 43.8181ZM118.937 42.004C118.488 40.7886 117.119 38.5421 114.321 38.5421C111.543 38.5421 109.236 40.7464 109.236 43.9831C109.236 47.033 111.523 49.4241 114.586 49.4241C117.058 49.4241 118.488 47.8991 119.08 47.0126L117.242 45.7755C116.629 46.6825 115.791 47.28 114.586 47.28C113.381 47.28 112.523 46.7234 111.971 45.6322L119.181 42.6219L118.937 42.004ZM61.4966 40.2117V42.5196H66.9695C66.806 43.8181 66.3775 44.7661 65.7246 45.4249C64.9271 46.2296 63.6809 47.1162 61.4966 47.1162C58.1256 47.1162 55.4912 44.3746 55.4912 40.9741C55.4912 37.5724 58.1256 34.8321 61.4966 34.8321C63.3146 34.8321 64.6419 35.5536 65.6219 36.4811L67.2358 34.8525C65.8666 33.5335 64.0499 32.5229 61.4966 32.5229C56.8806 32.5229 53 36.3161 53 40.9741C53 45.6322 56.8806 49.4241 61.4966 49.4241C63.9877 49.4241 65.8666 48.5989 67.3372 47.0535C68.8496 45.5286 69.3187 43.3857 69.3187 41.6535C69.3187 41.1174 69.2781 40.6236 69.1957 40.2117H61.4966ZM75.5422 47.28C73.908 47.28 72.4983 45.92 72.4983 43.9831C72.4983 42.0245 73.908 40.685 75.5422 40.685C77.175 40.685 78.5848 42.0245 78.5848 43.9831C78.5848 45.92 77.175 47.28 75.5422 47.28ZM75.5422 38.5421C72.5591 38.5421 70.1288 40.8296 70.1288 43.9831C70.1288 47.1162 72.5591 49.4241 75.5422 49.4241C78.5239 49.4241 80.9543 47.1162 80.9543 43.9831C80.9543 40.8296 78.5239 38.5421 75.5422 38.5421ZM87.3489 47.28C85.7147 47.28 84.305 45.92 84.305 43.9831C84.305 42.0245 85.7147 40.685 87.3489 40.685C88.983 40.685 90.3915 42.0245 90.3915 43.9831C90.3915 45.92 88.983 47.28 87.3489 47.28ZM87.3489 38.5421C84.3671 38.5421 81.9368 40.8296 81.9368 43.9831C81.9368 47.1162 84.3671 49.4241 87.3489 49.4241C90.3307 49.4241 92.761 47.1162 92.761 43.9831C92.761 40.8296 90.3307 38.5421 87.3489 38.5421Z"
        fill="white" />
</svg>