<svg width="175" height="59" viewBox="0 0 175 59" fill="none" xmlns="http://www.w3.org/2000/svg">
    <rect x="0.726191" y="1.63049" width="172.833" height="56.6429" rx="7.9881" fill="black" />
    <rect x="0.726191" y="1.63049" width="172.833" height="56.6429" rx="7.9881" stroke="#A6A6A6"
        stroke-width="1.45238" />
    <path
        d="M35.8804 31.0604C35.8981 29.7244 36.2616 28.4144 36.9371 27.2523C37.6127 26.0903 38.5783 25.114 39.7442 24.4142C39.0035 23.3815 38.0264 22.5316 36.8905 21.932C35.7546 21.3325 34.4911 20.9998 33.2004 20.9603C30.4471 20.6782 27.778 22.5688 26.375 22.5688C24.9448 22.5688 22.7847 20.9884 20.4586 21.0351C18.954 21.0825 17.4876 21.5097 16.2024 22.2749C14.9172 23.0402 13.8569 24.1174 13.1249 25.4016C9.95401 30.7615 12.3192 38.6387 15.3567 42.9712C16.8764 45.0927 18.6525 47.4625 20.9765 47.3785C23.2507 47.2864 24.1001 45.9627 26.8452 45.9627C29.5649 45.9627 30.3618 47.3785 32.7329 47.325C35.1733 47.2864 36.7108 45.1941 38.1772 43.0525C39.2691 41.5409 40.1093 39.8701 40.6668 38.1023C39.249 37.5168 38.0391 36.5369 37.188 35.2847C36.3368 34.0324 35.8821 32.5633 35.8804 31.0604Z"
        fill="white" />
    <path
        d="M31.4021 18.1109C32.7326 16.5515 33.3881 14.5471 33.2294 12.5234C31.1966 12.7319 29.3189 13.6804 27.9703 15.18C27.311 15.9126 26.806 16.7649 26.4843 17.6881C26.1625 18.6114 26.0303 19.5875 26.0951 20.5606C27.1119 20.5708 28.1178 20.3557 29.037 19.9314C29.9563 19.507 30.7649 18.8846 31.4021 18.1109Z"
        fill="white" />
    <path
        d="M56.5082 21.9033H53.3841V12.4527H56.4559C59.2793 12.4527 61.1878 14.3611 61.1878 17.1845C61.1878 19.9949 59.3055 21.9033 56.5082 21.9033ZM56.3644 13.6291H54.6651V20.7138H56.4167C58.5212 20.7138 59.8545 19.3544 59.8545 17.1845C59.8545 14.9885 58.5212 13.6291 56.3644 13.6291ZM62.1901 18.7008C62.1901 16.727 63.6018 15.3415 65.5233 15.3415C67.4317 15.3415 68.8434 16.727 68.8434 18.7008C68.8434 20.6746 67.4317 22.0602 65.5233 22.0602C63.6018 22.0602 62.1901 20.6746 62.1901 18.7008ZM63.4319 18.7008C63.4319 20.0341 64.2815 20.9622 65.5233 20.9622C66.752 20.9622 67.6147 20.0341 67.6147 18.7008C67.6147 17.3675 66.752 16.4395 65.5233 16.4395C64.2815 16.4395 63.4319 17.3675 63.4319 18.7008ZM71.2825 21.9033L69.1911 15.5114H70.459L71.5178 18.8315C71.6616 19.3021 71.7923 19.7857 71.9099 20.3478C72.0145 19.7857 72.1844 19.2498 72.3282 18.8315L73.4001 15.5114H74.6549L75.7137 18.8315C75.8183 19.1452 76.0274 19.8903 76.132 20.3478C76.2366 19.838 76.3542 19.3936 76.5372 18.8315L77.6091 15.5114H78.8901L76.7071 21.9033H75.5438L74.4327 18.4786C74.2236 17.8381 74.0929 17.3414 74.0275 16.9885C73.9621 17.3022 73.8445 17.7205 73.6092 18.4917L72.4981 21.9033H71.2825ZM81.1721 21.9033H79.9433V15.5114H81.0544L81.1851 16.4917C81.5903 15.7597 82.4008 15.3284 83.3027 15.3284C84.9889 15.3284 85.7601 16.361 85.7601 17.995V21.9033H84.5314V18.2695C84.5314 16.9754 83.9301 16.4525 82.989 16.4525C81.8387 16.4525 81.1721 17.276 81.1721 18.5178V21.9033ZM88.7168 21.9033H87.4881V12.2827H88.7168V21.9033ZM90.1073 18.7008C90.1073 16.727 91.519 15.3415 93.4405 15.3415C95.3489 15.3415 96.7606 16.727 96.7606 18.7008C96.7606 20.6746 95.3489 22.0602 93.4405 22.0602C91.519 22.0602 90.1073 20.6746 90.1073 18.7008ZM91.3491 18.7008C91.3491 20.0341 92.1987 20.9622 93.4405 20.9622C94.6692 20.9622 95.5319 20.0341 95.5319 18.7008C95.5319 17.3675 94.6692 16.4395 93.4405 16.4395C92.1987 16.4395 91.3491 17.3675 91.3491 18.7008ZM99.99 22.0602C98.6175 22.0602 97.8071 21.289 97.8071 20.1256C97.8071 18.9492 98.6829 18.2172 100.186 18.0995L102.199 17.9427V17.7597C102.199 16.6878 101.559 16.3087 100.696 16.3087C99.6632 16.3087 99.075 16.7662 99.075 17.5375H98.0032C98.0032 16.2042 99.1012 15.3284 100.748 15.3284C102.33 15.3284 103.402 16.165 103.402 17.8904V21.9033H102.356L102.225 20.8707C101.898 21.6027 101.023 22.0602 99.99 22.0602ZM100.343 21.106C101.506 21.106 102.212 20.3478 102.212 19.1452V18.8054L100.578 18.9361C99.4933 19.0407 99.0489 19.459 99.0489 20.0864C99.0489 20.7661 99.5456 21.106 100.343 21.106ZM107.665 22.0602C105.809 22.0602 104.685 20.6746 104.685 18.727C104.685 16.7662 105.822 15.3284 107.718 15.3284C108.698 15.3284 109.521 15.7597 109.953 16.544V12.2827H111.168V21.9033H110.07L109.966 20.74C109.548 21.6157 108.685 22.0602 107.665 22.0602ZM107.914 20.9491C109.168 20.9491 109.94 20.021 109.94 18.6877C109.94 17.3806 109.168 16.4395 107.914 16.4395C106.659 16.4395 105.927 17.3806 105.927 18.6877C105.927 20.008 106.659 20.9491 107.914 20.9491ZM116.097 18.7008C116.097 16.727 117.509 15.3415 119.43 15.3415C121.339 15.3415 122.75 16.727 122.75 18.7008C122.75 20.6746 121.339 22.0602 119.43 22.0602C117.509 22.0602 116.097 20.6746 116.097 18.7008ZM117.339 18.7008C117.339 20.0341 118.188 20.9622 119.43 20.9622C120.659 20.9622 121.522 20.0341 121.522 18.7008C121.522 17.3675 120.659 16.4395 119.43 16.4395C118.188 16.4395 117.339 17.3675 117.339 18.7008ZM125.339 21.9033H124.11V15.5114H125.222L125.352 16.4917C125.757 15.7597 126.568 15.3284 127.47 15.3284C129.156 15.3284 129.927 16.361 129.927 17.995V21.9033H128.699V18.2695C128.699 16.9754 128.097 16.4525 127.156 16.4525C126.006 16.4525 125.339 17.276 125.339 18.5178V21.9033ZM137.007 21.9033H135.778V16.544H134.524V15.5114H135.778V13.5115H137.007V15.5114H138.262V16.544H137.007V21.9033ZM140.593 21.8902H139.365V12.2827H140.593V16.4917C140.999 15.799 141.77 15.3284 142.763 15.3284C144.397 15.3284 145.182 16.361 145.182 17.995V21.9033H143.953V18.2695C143.953 16.9754 143.338 16.4525 142.423 16.4525C141.234 16.4525 140.593 17.3152 140.593 18.4132V21.8902ZM149.641 22.0602C147.759 22.0602 146.465 20.7007 146.465 18.7139C146.465 16.714 147.733 15.3284 149.589 15.3284C151.406 15.3284 152.596 16.5832 152.596 18.4786V18.9361L147.655 18.9492C147.746 20.2955 148.452 21.0406 149.668 21.0406C150.622 21.0406 151.249 20.6485 151.458 19.9165H152.609C152.295 21.289 151.223 22.0602 149.641 22.0602ZM149.589 16.361C148.517 16.361 147.838 17.0015 147.681 18.1257H151.367C151.367 17.0669 150.674 16.361 149.589 16.361Z"
        fill="white" />
    <path
        d="M55.2664 46.9033H52.5998L59.5016 28.002H62.3511L69.279 46.9033H66.5863L64.887 42.1976H56.9396L55.2664 46.9033ZM60.5996 32.0803L57.7238 39.9755H64.1288L61.227 32.0803C61.0963 31.7143 60.9656 31.2699 60.9133 30.9823C60.861 31.2437 60.7303 31.6882 60.5996 32.0803ZM70.6907 52.6286V34.1195H72.9128L73.0958 36.42C73.9585 34.6685 75.6839 33.7535 77.7231 33.7535C81.3831 33.7535 83.6575 36.4985 83.6575 40.4199C83.6575 44.3152 81.5138 47.2432 77.7231 47.2432C75.6839 47.2432 73.9847 46.3805 73.1481 44.8119V52.6286H70.6907ZM73.1742 40.5245C73.1742 43.1387 74.6905 45.021 77.2002 45.021C79.7099 45.021 81.2001 43.1387 81.2001 40.5245C81.2001 37.884 79.7099 36.0017 77.2002 36.0017C74.6905 36.0017 73.1742 37.8579 73.1742 40.5245ZM85.6835 52.6286V34.1195H87.9057L88.0887 36.42C88.9514 34.6685 90.6768 33.7535 92.716 33.7535C96.376 33.7535 98.6504 36.4985 98.6504 40.4199C98.6504 44.3152 96.5067 47.2432 92.716 47.2432C90.6768 47.2432 88.9775 46.3805 88.141 44.8119V52.6286H85.6835ZM88.1671 40.5245C88.1671 43.1387 89.6834 45.021 92.1931 45.021C94.7028 45.021 96.193 43.1387 96.193 40.5245C96.193 37.884 94.7028 36.0017 92.1931 36.0017C89.6834 36.0017 88.1671 37.8579 88.1671 40.5245ZM106.463 33.0999C106.463 29.8582 109.077 27.6622 112.972 27.6622C116.58 27.6622 118.907 29.6752 119.116 32.943H116.528C116.397 31.0607 115.064 29.9627 112.946 29.9627C110.567 29.9627 109.025 31.1653 109.025 33.0215C109.025 34.5377 109.887 35.4527 111.665 35.871L114.776 36.603C117.861 37.3089 119.429 38.982 119.429 41.6486C119.429 45.0472 116.789 47.217 112.763 47.217C108.92 47.217 106.358 45.204 106.201 41.9623H108.815C108.868 43.7662 110.384 44.9165 112.763 44.9165C115.273 44.9165 116.867 43.74 116.867 41.8577C116.867 40.3676 116.057 39.4265 114.253 39.0082L111.142 38.3023C108.057 37.5965 106.463 35.8187 106.463 33.0999ZM125.156 46.9033H122.698V36.1847H120.189V34.1195H122.698V30.1196H125.156V34.1195H127.665V36.1847H125.156V46.9033ZM128.224 40.4983C128.224 36.5507 131.047 33.7796 134.89 33.7796C138.707 33.7796 141.531 36.5507 141.531 40.4983C141.531 44.4459 138.707 47.217 134.89 47.217C131.047 47.217 128.224 44.4459 128.224 40.4983ZM130.707 40.4983C130.707 43.1649 132.407 45.021 134.89 45.021C137.348 45.021 139.073 43.1649 139.073 40.4983C139.073 37.8317 137.348 35.9756 134.89 35.9756C132.407 35.9756 130.707 37.8317 130.707 40.4983ZM150.888 34.0149V36.2632H149.79C147.464 36.2632 146.026 37.6749 146.026 40.1323V46.9033H143.568V34.1456H145.869L146.026 36.0802C146.549 34.7469 147.83 33.858 149.581 33.858C150.026 33.858 150.392 33.9103 150.888 34.0149ZM157.567 47.217C153.803 47.217 151.214 44.4982 151.214 40.5245C151.214 36.5246 153.75 33.7535 157.463 33.7535C161.096 33.7535 163.475 36.2632 163.475 40.0539V40.9689L153.593 40.995C153.776 43.6877 155.188 45.1779 157.619 45.1779C159.528 45.1779 160.783 44.3936 161.201 42.9296H163.502C162.874 45.6746 160.73 47.217 157.567 47.217ZM157.463 35.8187C155.319 35.8187 153.959 37.0997 153.646 39.348H161.018C161.018 37.2305 159.632 35.8187 157.463 35.8187Z"
        fill="white" />
</svg>