<svg width="16" height="15" viewBox="0 0 16 15" fill="none" xmlns="http://www.w3.org/2000/svg">
<path d="M11.9833 4.26362C11.762 4.21962 11.5813 4.08162 11.4887 3.88428C10.454 1.70362 8.06 0.484283 5.66533 0.925617C3.484 1.32562 1.774 3.06695 1.40933 5.25962C1.30133 5.90695 1.30933 6.55495 1.43133 7.18628C1.47133 7.39228 1.38267 7.62162 1.20067 7.78695C0.437333 8.48095 0 9.46962 0 10.5003C0 12.5216 1.64467 14.1669 3.66667 14.1669H11C13.7573 14.1669 16 11.9243 16 9.16695C16 6.79028 14.3107 4.72828 11.9827 4.26428L11.9833 4.26362ZM11.0007 12.8329H3.66733C2.38067 12.8329 1.334 11.7863 1.334 10.4996C1.334 9.84428 1.61267 9.21428 2.098 8.77295C2.622 8.29628 2.868 7.59095 2.74 6.93095C2.648 6.45628 2.64267 5.96762 2.724 5.47695C2.99267 3.86228 4.30067 2.52962 5.90467 2.23562C6.16133 2.18895 6.41667 2.16628 6.668 2.16628C8.20933 2.16628 9.60533 3.02562 10.2827 4.45562C10.5587 5.03695 11.0827 5.44295 11.7213 5.57095C13.4273 5.91162 14.666 7.42295 14.666 9.16695C14.666 11.1883 13.0213 12.8336 10.9993 12.8336L11.0007 12.8329ZM10.0813 8.36162C10.342 8.62228 10.342 9.04362 10.0813 9.30428L8.27667 11.1089C8.01867 11.3669 7.67933 11.4969 7.34 11.4983L7.334 11.4996L7.328 11.4983C6.98867 11.4969 6.64933 11.3669 6.39133 11.1089L4.58667 9.30428C4.326 9.04362 4.326 8.62228 4.58667 8.36162C4.84733 8.10095 5.26867 8.10095 5.52933 8.36162L6.66733 9.49962V6.16628C6.66733 5.79762 6.966 5.49962 7.334 5.49962C7.702 5.49962 8.00067 5.79762 8.00067 6.16628V9.49962L9.13867 8.36162C9.39933 8.10095 9.82067 8.10095 10.0813 8.36162Z" fill="#8A2BE1"/>
</svg>
