<svg width="30" height="30" viewBox="0 0 30 30" fill="none" xmlns="http://www.w3.org/2000/svg">
<path d="M0 15.0068C0 6.72256 6.71573 0.00683594 15 0.00683594C23.2843 0.00683594 30 6.72256 30 15.0068C30 23.2911 23.2843 30.0068 15 30.0068C6.71573 30.0068 0 23.2911 0 15.0068Z" fill="white"/>
<g clip-path="url(#clip0_2214_160)">
<path d="M19.3466 11.7641C19.1253 11.7201 18.9446 11.5821 18.8519 11.3848C17.8173 9.20411 15.4233 7.98477 13.0286 8.42611C10.8473 8.8261 9.13728 10.5674 8.77261 12.7601C8.66461 13.4074 8.67261 14.0554 8.79461 14.6868C8.83461 14.8928 8.74595 15.1221 8.56395 15.2874C7.80061 15.9814 7.36328 16.9701 7.36328 18.0008C7.36328 20.0221 9.00795 21.6674 11.0299 21.6674H18.3633C21.1206 21.6674 23.3633 19.4248 23.3633 16.6674C23.3633 14.2908 21.6739 12.2288 19.3459 11.7648L19.3466 11.7641ZM18.3639 20.3334H11.0306C9.74395 20.3334 8.69728 19.2868 8.69728 18.0001C8.69728 17.3448 8.97595 16.7148 9.46128 16.2734C9.98528 15.7968 10.2313 15.0914 10.1033 14.4314C10.0113 13.9568 10.0059 13.4681 10.0873 12.9774C10.3559 11.3628 11.6639 10.0301 13.2679 9.73611C13.5246 9.68944 13.7799 9.66677 14.0313 9.66677C15.5726 9.66677 16.9686 10.5261 17.6459 11.9561C17.9219 12.5374 18.4459 12.9434 19.0846 13.0714C20.7906 13.4121 22.0293 14.9234 22.0293 16.6674C22.0293 18.6888 20.3846 20.3341 18.3626 20.3341L18.3639 20.3334ZM17.4446 15.8621C17.7053 16.1228 17.7053 16.5441 17.4446 16.8048L15.6399 18.6094C15.3819 18.8674 15.0426 18.9974 14.7033 18.9988L14.6973 19.0001L14.6913 18.9988C14.3519 18.9974 14.0126 18.8674 13.7546 18.6094L11.9499 16.8048C11.6893 16.5441 11.6893 16.1228 11.9499 15.8621C12.2106 15.6014 12.6319 15.6014 12.8926 15.8621L14.0306 17.0001V13.6668C14.0306 13.2981 14.3293 13.0001 14.6973 13.0001C15.0653 13.0001 15.3639 13.2981 15.3639 13.6668V17.0001L16.5019 15.8621C16.7626 15.6014 17.1839 15.6014 17.4446 15.8621Z" fill="#8A2BE1"/>
</g>
<defs>
<clipPath id="clip0_2214_160">
<rect width="16" height="16" fill="white" transform="translate(7.36328 7)"/>
</clipPath>
</defs>
</svg>
