<svg width="18" height="18" viewBox="0 0 18 18" fill="none" xmlns="http://www.w3.org/2000/svg">
<path d="M1.76005 1.5L4.75102 4.49097M16.7601 16.5L13.7694 13.5093M10.8224 14.6872C10.3165 14.7831 9.79432 14.8333 9.26043 14.8333C5.52906 14.8333 2.37047 12.3809 1.30859 8.99997C1.59767 8.07958 2.04214 7.22801 2.61125 6.47598M7.49228 7.23223C7.94469 6.77982 8.56969 6.5 9.26005 6.5C10.6408 6.5 11.7601 7.61929 11.7601 9C11.7601 9.69036 11.4802 10.3154 11.0278 10.7678M7.49228 7.23223L11.0278 10.7678M7.49228 7.23223L4.75102 4.49097M11.0278 10.7678L4.75102 4.49097M11.0278 10.7678L13.7694 13.5093M4.75102 4.49097C6.05087 3.65295 7.59885 3.16667 9.26042 3.16667C12.9918 3.16667 16.1504 5.61909 17.2123 9.00003C16.6232 10.8756 15.3888 12.4654 13.7694 13.5093" stroke="#858B93" stroke-width="1.5" stroke-linecap="round" stroke-linejoin="round"/>
</svg>
