<svg width="25" height="23" viewBox="0 0 25 23" fill="none" xmlns="http://www.w3.org/2000/svg">
    <path
        d="M4.52267 13.2478C5.37408 9.51969 8.93325 6.87076 12.9368 6.87076C16.9392 6.87076 20.4984 9.51969 21.351 13.2478C21.3848 13.3957 21.4816 13.5253 21.6202 13.6082C21.7588 13.691 21.9278 13.7202 22.0901 13.6894C22.2523 13.6586 22.3945 13.5703 22.4853 13.444C22.5762 13.3176 22.6082 13.1635 22.5744 13.0155C21.6044 8.77521 17.5472 5.73242 12.9368 5.73242C8.32653 5.73242 4.26925 8.77521 3.29925 13.0155C3.26548 13.1635 3.29754 13.3176 3.38837 13.444C3.47921 13.5703 3.62139 13.6586 3.78362 13.6894C3.94586 13.7202 4.11487 13.691 4.25347 13.6082C4.39207 13.5253 4.4889 13.3957 4.52267 13.2478ZM12.9244 9.14745C14.0832 9.14745 15.1946 9.56721 16.014 10.3144C16.8334 11.0616 17.2937 12.075 17.2937 13.1316C17.2937 14.1883 16.8334 15.2017 16.014 15.9489C15.1946 16.6961 14.0832 17.1158 12.9244 17.1158C11.7655 17.1158 10.6542 16.6961 9.83474 15.9489C9.01533 15.2017 8.55498 14.1883 8.55498 13.1316C8.55498 12.075 9.01533 11.0616 9.83474 10.3144C10.6542 9.56721 11.7655 9.14745 12.9244 9.14745Z"
        fill="#6A707C" />
</svg>