<svg width="42" height="42" viewBox="0 0 42 42" fill="none" xmlns="http://www.w3.org/2000/svg">
    <path
        d="M6 0C2.69063 0 0 2.69063 0 6V36C0 39.3094 2.69063 42 6 42H15.2062V28.3313H10.2563V21H15.2062V17.8406C15.2062 9.675 18.9 5.8875 26.925 5.8875C28.4438 5.8875 31.0687 6.1875 32.1469 6.4875V13.125C31.5844 13.0688 30.6 13.0312 29.3719 13.0312C25.4344 13.0312 23.9156 14.5219 23.9156 18.3937V21H31.7531L30.4031 28.3313H23.9062V42H36C39.3094 42 42 39.3094 42 36V6C42 2.69063 39.3094 0 36 0H6Z"
        fill="#1877F2" />
</svg>