<svg width="24" height="24" viewBox="0 0 24 24" fill="none" xmlns="http://www.w3.org/2000/svg">
    <path
        d="M12 21C16.9706 21 21 16.9706 21 12C21 7.02944 16.9706 3 12 3C7.02944 3 3 7.02944 3 12C3 16.9706 7.02944 21 12 21Z"
        stroke="#858B93" stroke-width="1.4087" stroke-linecap="round" stroke-linejoin="round" />
    <path
        d="M9.38097 9.30012C9.59256 8.69862 10.0102 8.19142 10.5599 7.86834C11.1097 7.54527 11.756 7.42717 12.3844 7.53496C13.0129 7.64276 13.5829 7.96949 13.9935 8.4573C14.4042 8.9451 14.6289 9.56249 14.628 10.2001C14.628 12.0001 11.928 12.9001 11.928 12.9001V14.4322"
        stroke="#858B93" stroke-width="1.4087" stroke-linecap="round" stroke-linejoin="round" />
    <path d="M12 17H12.0104" stroke="#858B93" stroke-width="1.56522" stroke-linecap="round"
        stroke-linejoin="round" />
</svg>