<svg width="25" height="25" viewBox="0 0 25 25" fill="none" xmlns="http://www.w3.org/2000/svg">
    <path
        d="M22.3055 10.7915H21.5V10.75H12.5V14.75H18.1515C17.327 17.0785 15.1115 18.75 12.5 18.75C9.1865 18.75 6.5 16.0635 6.5 12.75C6.5 9.4365 9.1865 6.75 12.5 6.75C14.0295 6.75 15.421 7.327 16.4805 8.2695L19.309 5.441C17.523 3.7765 15.134 2.75 12.5 2.75C6.9775 2.75 2.5 7.2275 2.5 12.75C2.5 18.2725 6.9775 22.75 12.5 22.75C18.0225 22.75 22.5 18.2725 22.5 12.75C22.5 12.0795 22.431 11.425 22.3055 10.7915Z"
        fill="#FFC107" />
    <path
        d="M3.65302 8.0955L6.93851 10.505C7.82752 8.304 9.98052 6.75 12.5 6.75C14.0295 6.75 15.421 7.327 16.4805 8.2695L19.309 5.441C17.523 3.7765 15.134 2.75 12.5 2.75C8.65902 2.75 5.32802 4.9185 3.65302 8.0955Z"
        fill="#FF3D00" />
    <path
        d="M12.5 22.75C15.083 22.75 17.43 21.7615 19.2045 20.154L16.1095 17.535C15.0717 18.3242 13.8037 18.751 12.5 18.75C9.89897 18.75 7.69047 17.0915 6.85847 14.777L3.59747 17.2895C5.25247 20.528 8.61347 22.75 12.5 22.75Z"
        fill="#4CAF50" />
    <path
        d="M22.3055 10.7915H21.5V10.75H12.5V14.75H18.1515C17.7571 15.8582 17.0467 16.8266 16.108 17.5355L16.1095 17.5345L19.2045 20.1535C18.9855 20.3525 22.5 17.75 22.5 12.75C22.5 12.0795 22.431 11.425 22.3055 10.7915Z"
        fill="#1976D2" />
</svg>