<svg width="25" height="24" viewBox="0 0 25 24" fill="none" xmlns="http://www.w3.org/2000/svg">
    <path
        d="M6.25 19H9.25V14C9.25 13.7167 9.346 13.4793 9.538 13.288C9.73 13.0967 9.96733 13.0007 10.25 13H14.25C14.5333 13 14.771 13.096 14.963 13.288C15.155 13.48 15.2507 13.7173 15.25 14V19H18.25V10L12.25 5.5L6.25 10V19ZM4.25 19V10C4.25 9.68333 4.321 9.38333 4.463 9.1C4.605 8.81667 4.80067 8.58333 5.05 8.4L11.05 3.9C11.4 3.63333 11.8 3.5 12.25 3.5C12.7 3.5 13.1 3.63333 13.45 3.9L19.45 8.4C19.7 8.58333 19.896 8.81667 20.038 9.1C20.18 9.38333 20.2507 9.68333 20.25 10V19C20.25 19.55 20.054 20.021 19.662 20.413C19.27 20.805 18.7993 21.0007 18.25 21H14.25C13.9667 21 13.7293 20.904 13.538 20.712C13.3467 20.52 13.2507 20.2827 13.25 20V15H11.25V20C11.25 20.2833 11.154 20.521 10.962 20.713C10.77 20.905 10.5327 21.0007 10.25 21H6.25C5.7 21 5.22933 20.8043 4.838 20.413C4.44667 20.0217 4.25067 19.5507 4.25 19Z"
        fill="#25632D" />
</svg>