<svg width="23" height="23" viewBox="0 0 23 23" fill="none" xmlns="http://www.w3.org/2000/svg">
<path d="M11.8701 0.0195312C12.426 0.0686894 12.9597 0.263679 13.416 0.584961L13.6367 0.755859L13.6426 0.759766L21.2373 7.26855H21.2363C21.5862 7.56544 21.8683 7.93529 22.0615 8.35156C22.2553 8.76939 22.3554 9.22496 22.3555 9.68555V19.4512C22.3553 20.2917 22.021 21.098 21.4268 21.6924C20.8323 22.2867 20.0261 22.6211 19.1855 22.6211H3.99609C3.15555 22.621 2.34929 22.2867 1.75488 21.6924C1.1607 21.098 0.826293 20.2916 0.826172 19.4512V9.68555C0.826225 9.22484 0.92719 8.76948 1.12109 8.35156C1.3142 7.93549 1.59469 7.56538 1.94434 7.26855L9.53906 0.759766L9.54492 0.755859L9.7666 0.584961C10.2988 0.210392 10.9355 0.00688409 11.5908 0.00683594L11.8701 0.0195312ZM11.5908 2.00684C11.3145 2.00689 11.047 2.10493 10.8359 2.2832L10.835 2.28223L3.24609 8.78711L3.24121 8.79199C3.11131 8.90178 3.0062 9.0391 2.93457 9.19336C2.86314 9.34744 2.82622 9.51571 2.82617 9.68555V19.4512C2.82629 19.7612 2.94984 20.0591 3.16895 20.2783C3.38829 20.4975 3.68598 20.621 3.99609 20.6211H7.33594V12.9414C7.33594 12.3885 7.55536 11.8578 7.94629 11.4668C8.33724 11.0758 8.86801 10.8565 9.4209 10.8564H13.7607C14.3137 10.8564 14.8444 11.0759 15.2354 11.4668C15.6264 11.8578 15.8457 12.3884 15.8457 12.9414V20.6211H19.1855C19.4957 20.6211 19.7933 20.4976 20.0127 20.2783C20.2319 20.059 20.3553 19.7612 20.3555 19.4512V9.68555L20.3486 9.55859C20.3348 9.43257 20.3006 9.30889 20.2471 9.19336C20.1754 9.03915 20.0703 8.90175 19.9404 8.79199L19.9355 8.78711L12.3457 2.28223V2.2832C12.1611 2.12738 11.9333 2.03294 11.6943 2.01172L11.5908 2.00684ZM9.4209 12.8564C9.39844 12.8565 9.37623 12.865 9.36035 12.8809C9.3445 12.8968 9.33594 12.9189 9.33594 12.9414V20.6211H13.8457V12.9414C13.8457 12.9189 13.8372 12.8968 13.8213 12.8809C13.8054 12.865 13.7832 12.8564 13.7607 12.8564H9.4209Z" fill=""/>
</svg>
