<svg width="50" height="50" viewBox="0 0 50 50" fill="none" xmlns="http://www.w3.org/2000/svg">
    <path
        d="M37.5 27.083C38.0902 27.083 38.5854 26.883 38.9854 26.483C39.3854 26.083 39.5847 25.5886 39.5833 24.9997C39.5819 24.4108 39.3819 23.9163 38.9833 23.5163C38.5847 23.1163 38.0902 22.9163 37.5 22.9163H31.25C30.6597 22.9163 30.1652 23.1163 29.7666 23.5163C29.368 23.9163 29.168 24.4108 29.1666 24.9997C29.1652 25.5886 29.3652 26.0837 29.7666 26.4851C30.168 26.8865 30.6625 27.0858 31.25 27.083H37.5ZM37.5 20.833C38.0902 20.833 38.5854 20.633 38.9854 20.233C39.3854 19.833 39.5847 19.3386 39.5833 18.7497C39.5819 18.1608 39.3819 17.6663 38.9833 17.2663C38.5847 16.8663 38.0902 16.6663 37.5 16.6663H31.25C30.6597 16.6663 30.1652 16.8663 29.7666 17.2663C29.368 17.6663 29.168 18.1608 29.1666 18.7497C29.1652 19.3386 29.3652 19.8337 29.7666 20.2351C30.168 20.6365 30.6625 20.8358 31.25 20.833H37.5ZM18.75 27.083C17.5 27.083 16.3715 27.1962 15.3645 27.4226C14.3576 27.649 13.4722 28.0045 12.7083 28.4893C11.9791 28.9406 11.4236 29.4531 11.0416 30.0268C10.6597 30.6004 10.4687 31.2163 10.4687 31.8747C10.4687 32.2913 10.625 32.6386 10.9375 32.9163C11.25 33.1941 11.6319 33.333 12.0833 33.333H25.4166C25.868 33.333 26.25 33.1851 26.5625 32.8893C26.875 32.5934 27.0312 32.2205 27.0312 31.7705C27.0312 31.1802 26.8402 30.6073 26.4583 30.0518C26.0763 29.4962 25.5208 28.9754 24.7916 28.4893C24.0277 28.0031 23.1423 27.6469 22.1354 27.4205C21.1284 27.1941 20 27.0816 18.75 27.083ZM18.75 24.9997C19.8958 24.9997 20.8763 24.592 21.6916 23.7768C22.5069 22.9615 22.9152 21.9802 22.9166 20.833C22.918 19.6858 22.5104 18.7052 21.6937 17.8913C20.877 17.0775 19.8958 16.6691 18.75 16.6663C17.6041 16.6636 16.6236 17.0719 15.8083 17.8913C14.993 18.7108 14.5847 19.6913 14.5833 20.833C14.5819 21.9747 14.9902 22.9559 15.8083 23.7768C16.6263 24.5976 17.6069 25.0052 18.75 24.9997ZM8.33329 41.6663C7.18746 41.6663 6.2069 41.2587 5.39163 40.4434C4.57635 39.6281 4.16801 38.6469 4.16663 37.4997V12.4997C4.16663 11.3538 4.57496 10.3733 5.39163 9.55801C6.20829 8.74273 7.18885 8.3344 8.33329 8.33301H41.6666C42.8125 8.33301 43.7937 8.74134 44.6104 9.55801C45.427 10.3747 45.8347 11.3552 45.8333 12.4997V37.4997C45.8333 38.6455 45.4257 39.6268 44.6104 40.4434C43.7951 41.2601 42.8139 41.6677 41.6666 41.6663H8.33329Z"
        fill="#E2B808" />
</svg>