<svg width="43" height="42" viewBox="0 0 43 42" fill="none" xmlns="http://www.w3.org/2000/svg">
    <g clip-path="url(#clip0_290_6890)">
        <path
            d="M32.6812 0H10.3687C4.9321 0 0.524902 4.4072 0.524902 9.84375V32.1562C0.524902 37.5928 4.9321 42 10.3687 42H32.6812C38.1177 42 42.5249 37.5928 42.5249 32.1562V9.84375C42.5249 4.4072 38.1177 0 32.6812 0Z"
            fill="url(#paint0_radial_290_6890)" />
        <path
            d="M32.6812 0H10.3687C4.9321 0 0.524902 4.4072 0.524902 9.84375V32.1562C0.524902 37.5928 4.9321 42 10.3687 42H32.6812C38.1177 42 42.5249 37.5928 42.5249 32.1562V9.84375C42.5249 4.4072 38.1177 0 32.6812 0Z"
            fill="url(#paint1_radial_290_6890)" />
        <path
            d="M21.5264 4.59375C17.0708 4.59375 16.5115 4.61327 14.7616 4.69284C13.015 4.77291 11.8227 5.04935 10.7796 5.45508C9.70043 5.87409 8.78512 6.4347 7.87326 7.34688C6.96058 8.25891 6.39998 9.17421 5.97965 10.2529C5.57278 11.2964 5.296 12.4891 5.21742 14.2349C5.13916 15.9849 5.11865 16.5444 5.11865 21.0002C5.11865 25.4559 5.13834 26.0134 5.21775 27.7633C5.29814 29.5099 5.57458 30.7022 5.97998 31.7453C6.39932 32.8245 6.95993 33.7398 7.87211 34.6516C8.78381 35.5643 9.69911 36.1262 10.7775 36.5452C11.8214 36.951 13.0138 37.2274 14.7601 37.3075C16.5102 37.3871 17.069 37.4066 21.5244 37.4066C25.9805 37.4066 26.538 37.3871 28.2879 37.3075C30.0345 37.2274 31.2281 36.951 32.272 36.5452C33.3507 36.1262 34.2647 35.5643 35.1762 34.6516C36.0889 33.7398 36.6493 32.8245 37.0698 31.7458C37.4731 30.7022 37.75 29.5096 37.8321 27.7636C37.9106 26.0138 37.9312 25.4559 37.9312 21.0002C37.9312 16.5444 37.9106 15.9853 37.8321 14.2352C37.75 12.4886 37.4731 11.2965 37.0698 10.2534C36.6493 9.17421 36.0889 8.25891 35.1762 7.34688C34.2637 6.43437 33.351 5.87377 32.271 5.45524C31.2251 5.04935 30.0322 4.77274 28.2856 4.69284C26.5355 4.61327 25.9784 4.59375 21.5213 4.59375H21.5264ZM20.0546 7.55032C20.4915 7.54966 20.9789 7.55032 21.5264 7.55032C25.907 7.55032 26.4261 7.56607 28.156 7.64466C29.7556 7.71783 30.6238 7.98509 31.2021 8.20969C31.9678 8.50697 32.5136 8.86249 33.0875 9.43687C33.6618 10.0111 34.0171 10.5579 34.3152 11.3236C34.5398 11.9011 34.8074 12.7693 34.8802 14.3689C34.9588 16.0985 34.9759 16.6179 34.9759 20.9964C34.9759 25.3749 34.9588 25.8945 34.8802 27.6239C34.8071 29.2235 34.5398 30.0917 34.3152 30.6694C34.0179 31.435 33.6618 31.9802 33.0875 32.5541C32.5133 33.1283 31.9681 33.4837 31.2021 33.7811C30.6245 34.0067 29.7556 34.2733 28.156 34.3465C26.4264 34.4251 25.907 34.4421 21.5264 34.4421C17.1456 34.4421 16.6263 34.4251 14.8969 34.3465C13.2973 34.2727 12.4291 34.0054 11.8503 33.7808C11.0848 33.4834 10.5378 33.128 9.96358 32.5538C9.38936 31.9796 9.034 31.434 8.7359 30.668C8.5113 30.0904 8.24371 29.2222 8.17087 27.6225C8.09229 25.893 8.07653 25.3736 8.07653 20.9923C8.07653 16.611 8.09229 16.0944 8.17087 14.3648C8.24404 12.7652 8.5113 11.897 8.7359 11.3187C9.03335 10.553 9.38936 10.0062 9.96375 9.43195C10.5381 8.85773 11.0848 8.50221 11.8505 8.20427C12.4288 7.97869 13.2973 7.71209 14.8969 7.63859C16.4104 7.57017 16.9969 7.54966 20.0546 7.54622V7.55032ZM30.284 10.2744C29.1971 10.2744 28.3153 11.1554 28.3153 12.2425C28.3153 13.3294 29.1971 14.2113 30.284 14.2113C31.371 14.2113 32.2528 13.3294 32.2528 12.2425C32.2528 11.1556 31.371 10.2738 30.284 10.2738V10.2744ZM21.5264 12.5747C16.8736 12.5747 13.1011 16.3472 13.1011 21.0002C13.1011 25.6531 16.8736 29.4238 21.5264 29.4238C26.1794 29.4238 29.9505 25.6531 29.9505 21.0002C29.9505 16.3474 26.179 12.5747 21.5261 12.5747H21.5264ZM21.5264 15.5313C24.5466 15.5313 26.9952 17.9796 26.9952 21.0002C26.9952 24.0204 24.5466 26.469 21.5264 26.469C18.5062 26.469 16.0577 24.0204 16.0577 21.0002C16.0577 17.9796 18.506 15.5313 21.5264 15.5313Z"
            fill="white" />
    </g>
    <defs>
        <radialGradient id="paint0_radial_290_6890" cx="0" cy="0" r="1"
            gradientUnits="userSpaceOnUse"
            gradientTransform="translate(11.6812 45.2348) rotate(-90) scale(41.6251 38.7146)">
            <stop stop-color="#FFDD55" />
            <stop offset="0.1" stop-color="#FFDD55" />
            <stop offset="0.5" stop-color="#FF543E" />
            <stop offset="1" stop-color="#C837AB" />
        </radialGradient>
        <radialGradient id="paint1_radial_290_6890" cx="0" cy="0" r="1"
            gradientUnits="userSpaceOnUse"
            gradientTransform="translate(-6.51026 3.02548) rotate(78.681) scale(18.6067 76.6972)">
            <stop stop-color="#3771C8" />
            <stop offset="0.128" stop-color="#3771C8" />
            <stop offset="1" stop-color="#6600FF" stop-opacity="0" />
        </radialGradient>
        <clipPath id="clip0_290_6890">
            <rect width="42" height="42" fill="white" transform="translate(0.524902)" />
        </clipPath>
    </defs>
</svg>