<svg width="25" height="23" viewBox="0 0 25 23" fill="none" xmlns="http://www.w3.org/2000/svg">
<path d="M7.9707 0.548828C9.38685 0.548828 10.7457 1.11196 11.7471 2.11328C11.9544 2.32061 12.142 2.54404 12.3105 2.7793C12.4792 2.5439 12.6676 2.32072 12.875 2.11328C13.8763 1.11198 15.2343 0.54896 16.6504 0.548828H22.0752C22.6281 0.548828 23.1588 0.768307 23.5498 1.15918C23.9408 1.55019 24.1602 2.08083 24.1602 2.63379V16.7383C24.1601 17.222 23.9923 17.6886 23.6885 18.0596L23.5498 18.2129C23.1588 18.6037 22.628 18.8232 22.0752 18.8232H15.5654C14.9676 18.8234 14.3935 19.0606 13.9707 19.4834C13.548 19.9062 13.3106 20.4802 13.3105 21.0781L13.3057 21.1807C13.2958 21.2773 13.2717 21.3696 13.2363 21.4561C13.2307 21.4697 13.2239 21.4827 13.2178 21.4961C13.1832 21.571 13.1401 21.6406 13.0889 21.7041C13.0806 21.7144 13.0721 21.7244 13.0635 21.7344C13.0545 21.7446 13.0455 21.7548 13.0361 21.7646C13.0238 21.7777 13.0111 21.7904 12.998 21.8027C12.9868 21.8134 12.9756 21.8239 12.9639 21.834C12.9535 21.8429 12.9433 21.8519 12.9326 21.8604C12.9184 21.8717 12.9035 21.882 12.8887 21.8926C12.8774 21.9006 12.8661 21.9085 12.8545 21.916C12.8398 21.9256 12.8248 21.9346 12.8096 21.9434C12.7992 21.9493 12.7889 21.9553 12.7783 21.9609C12.7557 21.9729 12.7326 21.9839 12.709 21.9941C12.7047 21.996 12.7006 21.9982 12.6963 22C12.6771 22.008 12.6574 22.0147 12.6377 22.0215C12.6234 22.0264 12.6093 22.0318 12.5947 22.0361C12.5764 22.0415 12.5578 22.0454 12.5391 22.0498C12.5292 22.0521 12.5197 22.0556 12.5098 22.0576C12.4911 22.0614 12.4722 22.0637 12.4531 22.0664C12.4066 22.073 12.3589 22.0781 12.3105 22.0781C12.2621 22.0781 12.2146 22.0731 12.168 22.0664C12.1489 22.0637 12.13 22.0614 12.1113 22.0576C12.1014 22.0556 12.0919 22.0521 12.082 22.0498C12.0633 22.0454 12.0446 22.0416 12.0264 22.0361C12.0118 22.0318 11.9977 22.0264 11.9834 22.0215C11.9637 22.0146 11.944 22.008 11.9248 22C11.9205 21.9982 11.9164 21.996 11.9121 21.9941C11.8888 21.984 11.8661 21.9728 11.8438 21.9609C11.8329 21.9552 11.8221 21.9495 11.8115 21.9434C11.7963 21.9346 11.7813 21.9256 11.7666 21.916C11.755 21.9085 11.7437 21.9006 11.7324 21.8926C11.7176 21.882 11.7027 21.8717 11.6885 21.8604C11.6778 21.8519 11.6675 21.8429 11.6572 21.834C11.6448 21.8233 11.6329 21.8121 11.6211 21.8008C11.6111 21.7912 11.6014 21.7814 11.5918 21.7715C11.5764 21.7556 11.5612 21.7396 11.5469 21.7227C11.5425 21.7175 11.5384 21.7122 11.5342 21.707C11.4821 21.6428 11.4384 21.572 11.4033 21.4961C11.3972 21.4828 11.3903 21.4697 11.3848 21.4561C11.3494 21.3696 11.3253 21.2772 11.3154 21.1807L11.3105 21.0781L11.2998 20.8555C11.2486 20.3392 11.0204 19.8534 10.6504 19.4834C10.2803 19.1134 9.79452 18.8852 9.27832 18.834L9.05566 18.8232H2.5459C2.0623 18.8231 1.59548 18.6553 1.22461 18.3516L1.07129 18.2129C0.729254 17.8708 0.518068 17.4216 0.470703 16.9443L0.460938 16.7383V2.63379C0.460939 2.08094 0.680442 1.55016 1.07129 1.15918C1.4622 0.76827 1.99308 0.548937 2.5459 0.548828H7.9707ZM16.6504 2.54883C15.7648 2.54896 14.9153 2.90111 14.2891 3.52734C13.7021 4.11441 13.3555 4.89745 13.3145 5.72266L13.3105 5.88867V17.4707C13.9815 17.0514 14.7616 16.8233 15.5654 16.8232H22.0752C22.0976 16.8232 22.1198 16.8146 22.1357 16.7988L22.1543 16.7705C22.1584 16.7605 22.1601 16.7493 22.1602 16.7383V2.63379C22.1602 2.61125 22.1517 2.58917 22.1357 2.57324C22.1198 2.55745 22.0976 2.54883 22.0752 2.54883H16.6504ZM2.5459 2.54883C2.52351 2.54893 2.50119 2.55741 2.48535 2.57324C2.46958 2.58916 2.46094 2.61138 2.46094 2.63379V16.7383L2.46777 16.7705C2.47197 16.7807 2.47744 16.7908 2.48535 16.7988L2.51367 16.8164C2.52374 16.8206 2.53481 16.8232 2.5459 16.8232H9.05566L9.2666 16.8281C9.99518 16.8643 10.6987 17.0865 11.3105 17.4688V5.88867C11.3105 5.00289 10.9584 4.15368 10.332 3.52734C9.7057 2.90111 8.85641 2.54883 7.9707 2.54883H2.5459Z" fill=""/>
</svg>
