<svg width="43" height="42" viewBox="0 0 43 42" fill="none" xmlns="http://www.w3.org/2000/svg">
    <path
        d="M38.8501 0.984527H4.7251C3.95082 0.976647 3.20505 1.27624 2.65141 1.81758C2.09777 2.35892 1.78149 3.09777 1.77197 3.87203V38.1348C1.78321 38.908 2.10025 39.6451 2.6537 40.1851C3.20715 40.725 3.95195 41.0237 4.7251 41.0158H38.8501C39.6244 41.0219 40.3697 40.7213 40.923 40.1796C41.4764 39.638 41.7928 38.8993 41.8032 38.125V3.86218C41.7894 3.0902 41.4715 2.35486 40.9185 1.81601C40.3655 1.27716 39.6222 0.978351 38.8501 0.984527Z"
        fill="#0076B2" />
    <path
        d="M7.69858 15.9893H13.6409V35.1091H7.69858V15.9893ZM10.6714 6.47363C11.3529 6.47363 12.0192 6.67578 12.5858 7.0545C13.1525 7.43322 13.5941 7.9715 13.8548 8.60124C14.1154 9.23098 14.1835 9.92389 14.0503 10.5923C13.9171 11.2607 13.5886 11.8746 13.1064 12.3563C12.6243 12.838 12.0101 13.1659 11.3415 13.2985C10.673 13.431 9.98014 13.3623 9.35065 13.1011C8.72116 12.8398 8.1833 12.3977 7.80512 11.8307C7.42694 11.2637 7.22543 10.5972 7.22608 9.91566C7.22695 9.00248 7.59032 8.12699 8.23634 7.48158C8.88237 6.83617 9.7582 6.47363 10.6714 6.47363ZM17.3684 15.9893H23.0647V18.6143H23.1434C23.9375 17.1114 25.8734 15.5266 28.7642 15.5266C34.782 15.5135 35.8976 19.4739 35.8976 24.6091V35.1091H29.9553V25.8068C29.9553 23.5919 29.9159 20.7405 26.8676 20.7405C23.8194 20.7405 23.3009 23.1555 23.3009 25.6624V35.1091H17.3684V15.9893Z"
        fill="white" />
</svg>