<svg width="24" height="25" viewBox="0 0 24 25" fill="none" xmlns="http://www.w3.org/2000/svg">
    <path
        d="M12 2.2998C15.31 2.2998 18 4.9598 18 8.2498C18 12.7098 12 19.2998 12 19.2998C12 19.2998 6 12.7098 6 8.2498C6 4.9598 8.69 2.2998 12 2.2998ZM12 6.2998C11.4696 6.2998 10.9609 6.51052 10.5858 6.88559C10.2107 7.26066 10 7.76937 10 8.2998C10 8.83024 10.2107 9.33894 10.5858 9.71402C10.9609 10.0891 11.4696 10.2998 12 10.2998C12.5304 10.2998 13.0391 10.0891 13.4142 9.71402C13.7893 9.33894 14 8.83024 14 8.2998C14 7.76937 13.7893 7.26066 13.4142 6.88559C13.0391 6.51052 12.5304 6.2998 12 6.2998ZM20 19.2998C20 21.5098 16.42 23.2998 12 23.2998C7.58 23.2998 4 21.5098 4 19.2998C4 18.0098 5.22 16.8598 7.11 16.1298L7.75 17.0398C6.67 17.4898 6 18.1098 6 18.7998C6 20.1798 8.69 21.2998 12 21.2998C15.31 21.2998 18 20.1798 18 18.7998C18 18.1098 17.33 17.4898 16.25 17.0398L16.89 16.1298C18.78 16.8598 20 18.0098 20 19.2998Z"
        fill="#D5DBE7" />
</svg>