<svg width="16" height="16" viewBox="0 0 16 16" fill="none" xmlns="http://www.w3.org/2000/svg">
    <path
        d="M6.66671 14.6666C4.87782 13.1444 3.54182 11.7306 2.65871 10.4253C1.7756 9.11992 1.33382 7.91147 1.33337 6.79992C1.33337 5.13325 1.8696 3.80547 2.94204 2.81659C4.01449 1.8277 5.25604 1.33325 6.66671 1.33325C8.07737 1.33325 9.31915 1.8277 10.392 2.81659C11.4649 3.80547 12.0009 5.13325 12 6.79992V7.08325C12 7.18325 11.9889 7.28325 11.9667 7.38325C11.3667 7.50547 10.8416 7.73614 10.3914 8.07525C9.94115 8.41436 9.57737 8.82258 9.30004 9.29992C9.02271 9.77725 8.84782 10.2939 8.77537 10.8499C8.70293 11.4059 8.7556 11.967 8.93337 12.5333C8.61115 12.8777 8.26115 13.2277 7.88337 13.5833C7.5056 13.9388 7.10004 14.2999 6.66671 14.6666ZM6.66671 9.99992C7.28893 9.99992 7.85004 9.84725 8.35004 9.54192C8.85004 9.23658 9.24449 8.8337 9.53337 8.33325C9.14449 8.01103 8.7056 7.76392 8.21671 7.59192C7.72782 7.41992 7.21115 7.3337 6.66671 7.33325C6.12226 7.33281 5.6056 7.41903 5.11671 7.59192C4.62782 7.76481 4.18893 8.01192 3.80004 8.33325C4.08893 8.83325 4.48337 9.23614 4.98337 9.54192C5.48337 9.8477 6.04449 10.0004 6.66671 9.99992ZM6.66671 6.66658C7.03337 6.66658 7.34737 6.53614 7.60871 6.27525C7.87004 6.01436 8.00049 5.70036 8.00004 5.33325C7.9996 4.96614 7.86915 4.65236 7.60871 4.39192C7.34826 4.13147 7.03426 4.00081 6.66671 3.99992C6.29915 3.99903 5.98537 4.1297 5.72537 4.39192C5.46537 4.65414 5.33471 4.96792 5.33337 5.33325C5.33204 5.69859 5.46271 6.01259 5.72537 6.27525C5.98804 6.53792 6.30182 6.66836 6.66671 6.66658ZM12.8334 13.9999L11.9 13.0666L12.95 11.9999H10.1667V10.6666H12.95L11.9 9.59992L12.8334 8.66658L15.5 11.3333L12.8334 13.9999Z"
        fill="#E2B808" />
</svg>