<svg width="24" height="24" viewBox="0 0 24 24" fill="none" xmlns="http://www.w3.org/2000/svg">
    <path
        d="M10.9998 22.95V20.95C8.91647 20.7167 7.1288 19.8543 5.6368 18.363C4.1448 16.8717 3.28247 15.084 3.0498 13H1.0498V11H3.0498C3.28314 8.91665 4.1458 7.12899 5.6378 5.63699C7.12981 4.14499 8.91714 3.28265 10.9998 3.04999V1.04999H12.9998V3.04999C15.0831 3.28332 16.8708 4.14599 18.3628 5.63799C19.8548 7.12999 20.7171 8.91732 20.9498 11H22.9498V13H20.9498C20.7165 15.0833 19.8541 16.871 18.3628 18.363C16.8715 19.855 15.0838 20.7173 12.9998 20.95V22.95H10.9998ZM11.9998 19C13.9331 19 15.5831 18.3167 16.9498 16.95C18.3165 15.5833 18.9998 13.9333 18.9998 12C18.9998 10.0667 18.3165 8.41665 16.9498 7.04999C15.5831 5.68332 13.9331 4.99999 11.9998 4.99999C10.0665 4.99999 8.41647 5.68332 7.0498 7.04999C5.68314 8.41665 4.9998 10.0667 4.9998 12C4.9998 13.9333 5.68314 15.5833 7.0498 16.95C8.41647 18.3167 10.0665 19 11.9998 19ZM11.9998 16C10.8998 16 9.95814 15.6083 9.1748 14.825C8.39147 14.0417 7.9998 13.1 7.9998 12C7.9998 10.9 8.39147 9.95832 9.1748 9.17499C9.95814 8.39165 10.8998 7.99999 11.9998 7.99999C13.0998 7.99999 14.0415 8.39165 14.8248 9.17499C15.6081 9.95832 15.9998 10.9 15.9998 12C15.9998 13.1 15.6081 14.0417 14.8248 14.825C14.0415 15.6083 13.0998 16 11.9998 16Z"
        fill="#25632D" />
</svg>