<svg width="24" height="25" viewBox="0 0 24 25" fill="none" xmlns="http://www.w3.org/2000/svg">
    <path
        d="M8 10.5V7.5C8 5.29 9.79 3.5 12 3.5C14.21 3.5 16 5.29 16 7.5V10.5M12 15.5C12.2652 15.5 12.5196 15.3946 12.7071 15.2071C12.8946 15.0196 13 14.7652 13 14.5C13 14.2348 12.8946 13.9804 12.7071 13.7929C12.5196 13.6054 12.2652 13.5 12 13.5C11.7348 13.5 11.4804 13.6054 11.2929 13.7929C11.1054 13.9804 11 14.2348 11 14.5C11 14.7652 11.1054 15.0196 11.2929 15.2071C11.4804 15.3946 11.7348 15.5 12 15.5ZM12 15.5V18.5M6.6 10.5H17.4C18.28 10.5 19 11.22 19 12.1V19.1C19 20.42 17.92 21.5 16.6 21.5H7.4C6.08 21.5 5 20.42 5 19.1V12.1C5 11.22 5.72 10.5 6.6 10.5Z"
        stroke="#858B93" stroke-width="1.5" stroke-miterlimit="10" stroke-linecap="round"
        stroke-linejoin="round" />
</svg>