<svg width="156" height="120" viewBox="0 0 156 120" fill="none" xmlns="http://www.w3.org/2000/svg">
    <path d="M135.462 35.0049V40.6639" stroke="#BABABA" stroke-width="0.573516"
        stroke-linecap="round" stroke-linejoin="round" />
    <path d="M132.639 37.8276H138.285" stroke="#BABABA" stroke-width="0.573516"
        stroke-linecap="round" stroke-linejoin="round" />
    <path d="M19.7075 13.1697V18.8156" stroke="#BABABA" stroke-width="0.573516"
        stroke-linecap="round" stroke-linejoin="round" />
    <path d="M16.8715 15.9924H22.5306" stroke="#BABABA" stroke-width="0.573516"
        stroke-linecap="round" stroke-linejoin="round" />
    <path
        d="M63.6407 2.57349C64.3513 2.57349 64.9274 1.9974 64.9274 1.28675C64.9274 0.576095 64.3513 0 63.6407 0C62.93 0 62.3539 0.576095 62.3539 1.28675C62.3539 1.9974 62.93 2.57349 63.6407 2.57349Z"
        fill="#CFCFCF" />
    <path
        d="M104.895 53.7278C93.9054 53.7278 82.7186 53.2814 72.2539 50.3665C61.9862 47.5173 52.5588 41.9895 44.1556 35.5952C38.6541 31.433 33.6515 28.1242 26.5088 28.6231C19.5151 29.006 12.8304 31.6302 7.44393 36.1073C-1.64208 43.9853 -0.276551 58.7304 3.36048 69.09C8.82258 84.6885 25.4452 95.4945 39.5732 102.559C55.8939 110.712 73.8295 115.439 91.8046 118.17C107.561 120.56 127.807 122.306 141.462 112.012C154.002 102.559 157.442 80.9727 154.369 66.3983C153.625 62.0889 151.332 58.1996 147.922 55.461C139.112 49.0273 125.969 53.3208 116.069 53.544C112.393 53.6228 108.65 53.7147 104.895 53.7278Z"
        fill="#F2F2F2" />
    <path
        d="M98.4783 4.36053L34.3048 13.0371C32.2495 13.315 30.8087 15.2064 31.0866 17.2616L43.5315 109.306C43.8094 111.361 45.7007 112.802 47.756 112.524L111.93 103.848C113.985 103.57 115.426 101.679 115.148 99.6233L102.703 7.57872C102.425 5.52349 100.534 4.08265 98.4783 4.36053Z"
        fill="#D5DBE7" />
    <path
        d="M119.798 17.8696H55.0406C52.9667 17.8696 51.2854 19.5509 51.2854 21.6248V114.507C51.2854 116.581 52.9667 118.262 55.0406 118.262H119.798C121.872 118.262 123.553 116.581 123.553 114.507V21.6248C123.553 19.5509 121.872 17.8696 119.798 17.8696Z"
        fill="white" stroke="#BABABA" stroke-width="0.573516" stroke-linecap="round"
        stroke-linejoin="round" />
    <path
        d="M102.978 89.9805H71.8468C70.6793 89.9805 69.7328 90.9269 69.7328 92.0944V92.1075C69.7328 93.275 70.6793 94.2215 71.8468 94.2215H102.978C104.146 94.2215 105.092 93.275 105.092 92.1075V92.0944C105.092 90.9269 104.146 89.9805 102.978 89.9805Z"
        fill="#D2D2D2" />
    <path
        d="M101.862 107.312H71.9915C71.6362 107.312 71.3481 107.6 71.3481 107.955V108.152C71.3481 108.507 71.6362 108.795 71.9915 108.795H101.862C102.218 108.795 102.506 108.507 102.506 108.152V107.955C102.506 107.6 102.218 107.312 101.862 107.312Z"
        fill="#D2D2D2" />
    <path
        d="M109.478 100.366H65.4788C65.0075 100.366 64.6254 100.748 64.6254 101.219C64.6254 101.691 65.0075 102.073 65.4788 102.073H109.478C109.949 102.073 110.331 101.691 110.331 101.219C110.331 100.748 109.949 100.366 109.478 100.366Z"
        fill="#D2D2D2" />
    <path
        d="M117.527 20.929H57.3121C55.8183 20.929 54.6073 22.1399 54.6073 23.6337V75.852C54.6073 77.3458 55.8183 78.5568 57.3121 78.5568H117.527C119.02 78.5568 120.231 77.3458 120.231 75.852V23.6337C120.231 22.1399 119.02 20.929 117.527 20.929Z"
        fill="white" stroke="#BABABA" stroke-width="0.573516" stroke-linecap="round"
        stroke-linejoin="round" />
    <path d="M26.0494 77.2307V82.8898" stroke="#BABABA" stroke-width="0.573516"
        stroke-linecap="round" stroke-linejoin="round" />
    <path d="M23.2263 80.0535H28.8853" stroke="#BABABA" stroke-width="0.573516"
        stroke-linecap="round" stroke-linejoin="round" />
    <path
        d="M133.072 81.2358C133.783 81.2358 134.359 80.6597 134.359 79.9491C134.359 79.2384 133.783 78.6624 133.072 78.6624C132.362 78.6624 131.786 79.2384 131.786 79.9491C131.786 80.6597 132.362 81.2358 133.072 81.2358Z"
        fill="#CFCFCF" />
    <path
        d="M100.225 36.8464L103.04 33.7498C103.291 33.4671 103.42 33.0969 103.4 32.7196C103.379 32.3422 103.211 31.9881 102.931 31.7339C102.652 31.4798 102.283 31.3461 101.906 31.3619C101.528 31.3777 101.172 31.5416 100.914 31.8182L98.0997 34.913C94.6724 32.2809 90.381 31.0331 86.0768 31.4174C81.7725 31.8016 77.77 33.7898 74.8632 36.9874C71.9564 40.185 70.3577 44.3584 70.3844 48.6797C70.4111 53.001 72.0611 57.1544 75.0072 60.3158L72.1924 63.4124C72.0629 63.5515 71.9623 63.7149 71.8965 63.8932C71.8306 64.0715 71.8008 64.261 71.8087 64.4509C71.8166 64.6408 71.8622 64.8272 71.9427 64.9993C72.0232 65.1715 72.1371 65.3259 72.2777 65.4537C72.4183 65.5816 72.583 65.6802 72.762 65.7439C72.941 65.8076 73.1309 65.8352 73.3207 65.825C73.5105 65.8148 73.6963 65.767 73.8675 65.6844C74.0387 65.6019 74.1917 65.4861 74.3178 65.344L77.1326 62.2492C80.5598 64.8813 84.8513 66.1291 89.1555 65.7448C93.4597 65.3606 97.4623 63.3724 100.369 60.1748C103.276 56.9772 104.875 52.8038 104.848 48.4825C104.821 44.1612 103.171 40.0078 100.225 36.8464ZM73.2551 48.5811C73.2567 45.9224 73.9963 43.3164 75.3916 41.0532C76.7868 38.7901 78.7829 36.9587 81.1575 35.763C83.5322 34.5673 86.1921 34.0543 88.8411 34.2811C91.4901 34.5078 94.0241 35.4655 96.1609 37.0474L76.9531 58.1814C74.5717 55.5512 73.2536 52.1293 73.2551 48.5811ZM87.6161 62.9421C84.5376 62.9454 81.5404 61.9536 79.0713 60.1148L98.2792 38.9808C100.138 41.0423 101.358 43.5985 101.793 46.3397C102.229 49.0809 101.86 51.8894 100.731 54.4252C99.6027 56.9609 97.7632 59.1151 95.4355 60.6267C93.1078 62.1384 90.3916 62.9426 87.6161 62.9421Z"
        fill="#D5DBE7" />
</svg>