<svg width="24" height="25" viewBox="0 0 24 25" fill="none" xmlns="http://www.w3.org/2000/svg">
    <rect y="0.168945" width="24" height="24" rx="12" fill="#25632D" />
    <path fill-rule="evenodd" clip-rule="evenodd"
        d="M12 24.1689C13.5759 24.1689 15.1363 23.8586 16.5922 23.2555C18.0481 22.6524 19.371 21.7685 20.4853 20.6542C21.5996 19.5399 22.4835 18.2171 23.0866 16.7611C23.6896 15.3052 24 13.7448 24 12.1689C24 10.5931 23.6896 9.03265 23.0866 7.57674C22.4835 6.12084 21.5996 4.79797 20.4853 3.68366C19.371 2.56936 18.0481 1.68545 16.5922 1.08239C15.1363 0.479334 13.5759 0.168945 12 0.168945C8.8174 0.168945 5.76516 1.43323 3.51472 3.68366C1.26428 5.9341 0 8.98635 0 12.1689C0 15.3515 1.26428 18.4038 3.51472 20.6542C5.76516 22.9047 8.8174 24.1689 12 24.1689ZM10.3773 6.82228L17.9027 11.0036C18.1104 11.1191 18.2835 11.2881 18.404 11.493C18.5245 11.6979 18.5881 11.9312 18.5881 12.1689C18.5881 12.4067 18.5245 12.64 18.404 12.8449C18.2835 13.0498 18.1104 13.2188 17.9027 13.3343L10.3773 17.5156C10.1337 17.6511 9.85884 17.7205 9.58008 17.717C9.30132 17.7135 9.02831 17.6373 8.78809 17.4958C8.54787 17.3544 8.34878 17.1526 8.21055 16.9105C8.07232 16.6684 7.99974 16.3944 8 16.1156V8.22228C7.99974 7.9435 8.07232 7.66949 8.21055 7.4274C8.34878 7.1853 8.54787 6.98353 8.78809 6.84206C9.02831 6.7006 9.30132 6.62436 9.58008 6.62088C9.85884 6.61741 10.1337 6.68684 10.3773 6.82228Z"
        fill="white" />
</svg>