<svg width="66" height="66" viewBox="0 0 66 66" fill="none" xmlns="http://www.w3.org/2000/svg">
    <path
        d="M33 0C26.4732 0 20.093 1.93542 14.6662 5.5615C9.23937 9.18759 5.00968 14.3415 2.51199 20.3714C0.0142984 26.4014 -0.639212 33.0366 0.6341 39.438C1.90741 45.8393 5.05036 51.7194 9.66549 56.3345C14.2806 60.9496 20.1607 64.0926 26.562 65.3659C32.9634 66.6392 39.5986 65.9857 45.6286 63.488C51.6585 60.9903 56.8124 56.7606 60.4385 51.3338C64.0646 45.907 66 39.5268 66 33C65.9891 24.2512 62.5088 15.8639 56.3225 9.67753C50.1361 3.4912 41.7488 0.0109155 33 0ZM45.6923 35.5385H35.5385V45.6923C35.5385 46.3655 35.271 47.0112 34.795 47.4873C34.3189 47.9633 33.6732 48.2308 33 48.2308C32.3268 48.2308 31.6811 47.9633 31.205 47.4873C30.729 47.0112 30.4615 46.3655 30.4615 45.6923V35.5385H20.3077C19.6345 35.5385 18.9888 35.271 18.5127 34.795C18.0367 34.3189 17.7692 33.6732 17.7692 33C17.7692 32.3268 18.0367 31.6811 18.5127 31.205C18.9888 30.729 19.6345 30.4615 20.3077 30.4615H30.4615V20.3077C30.4615 19.6344 30.729 18.9888 31.205 18.5127C31.6811 18.0367 32.3268 17.7692 33 17.7692C33.6732 17.7692 34.3189 18.0367 34.795 18.5127C35.271 18.9888 35.5385 19.6344 35.5385 20.3077V30.4615H45.6923C46.3656 30.4615 47.0112 30.729 47.4873 31.205C47.9633 31.6811 48.2308 32.3268 48.2308 33C48.2308 33.6732 47.9633 34.3189 47.4873 34.795C47.0112 35.271 46.3656 35.5385 45.6923 35.5385Z"
        fill="#25632D" />
</svg>