<svg width="19" height="23" viewBox="0 0 19 23" fill="none" xmlns="http://www.w3.org/2000/svg">
<path d="M13.0908 13.5752C14.4106 13.6407 15.6637 14.194 16.6025 15.1328C17.6036 16.1342 18.166 17.4923 18.166 18.9082V21.0781C18.166 21.6303 17.7182 22.078 17.166 22.0781C16.6138 22.0781 16.166 21.6304 16.166 21.0781V18.9082C16.166 18.0225 15.8138 17.1732 15.1875 16.5469C14.6004 15.9598 13.8175 15.6133 12.9922 15.5723L12.8262 15.5684H6.31641C5.43067 15.5684 4.58141 15.9206 3.95508 16.5469C3.32874 17.1732 2.97657 18.0224 2.97656 18.9082V21.0781C2.97655 21.6303 2.52875 22.078 1.97656 22.0781C1.42429 22.0781 0.976576 21.6304 0.976562 21.0781V18.9082C0.976569 17.492 1.5396 16.1342 2.54102 15.1328C3.54242 14.1315 4.90023 13.5684 6.31641 13.5684H12.8262L13.0908 13.5752ZM9.57129 0.548828C12.5203 0.54892 14.9111 2.93961 14.9111 5.88867C14.9111 8.8377 12.5203 11.2284 9.57129 11.2285C6.62221 11.2285 4.2315 8.83774 4.23145 5.88867C4.23146 2.93956 6.62218 0.548842 9.57129 0.548828ZM9.57129 2.54883C7.72675 2.54884 6.23146 4.04413 6.23145 5.88867C6.2315 7.73318 7.72678 9.2285 9.57129 9.22852C11.4157 9.22842 12.9111 7.73313 12.9111 5.88867C12.9111 4.04418 11.4158 2.54892 9.57129 2.54883Z" fill=""/>
</svg>
