<svg width="25" height="24" viewBox="0 0 25 24" fill="none" xmlns="http://www.w3.org/2000/svg">
    <path
        d="M3.5542 18.1501C3.5542 16.9567 4.0283 15.8121 4.87222 14.9682C5.71613 14.1243 6.86072 13.6501 8.0542 13.6501H17.0542C18.2477 13.6501 19.3923 14.1243 20.2362 14.9682C21.0801 15.8121 21.5542 16.9567 21.5542 18.1501C21.5542 18.7469 21.3171 19.3192 20.8952 19.7411C20.4732 20.1631 19.9009 20.4001 19.3042 20.4001H5.8042C5.20746 20.4001 4.63517 20.1631 4.21321 19.7411C3.79125 19.3192 3.5542 18.7469 3.5542 18.1501Z"
        stroke="#858B93" stroke-width="2" stroke-linejoin="round" />
    <path
        d="M12.5542 9.15015C14.4182 9.15015 15.9292 7.63911 15.9292 5.77515C15.9292 3.91119 14.4182 2.40015 12.5542 2.40015C10.6902 2.40015 9.1792 3.91119 9.1792 5.77515C9.1792 7.63911 10.6902 9.15015 12.5542 9.15015Z"
        stroke="#858B93" stroke-width="2" />
</svg>