<svg width="60" height="61" viewBox="0 0 60 61" fill="none" xmlns="http://www.w3.org/2000/svg">
    <path
        d="M46.875 18.2281V9.875C46.875 8.88044 46.4799 7.92661 45.7766 7.22335C45.0734 6.52009 44.1196 6.125 43.125 6.125H16.875C15.8804 6.125 14.9266 6.52009 14.2233 7.22335C13.5201 7.92661 13.125 8.88044 13.125 9.875V18.3125C13.1263 18.8944 13.2624 19.4682 13.5226 19.9887C13.7829 20.5092 14.1602 20.9623 14.625 21.3125L26.8758 30.5L14.625 39.6875C14.1602 40.0377 13.7829 40.4908 13.5226 41.0113C13.2624 41.5318 13.1263 42.1056 13.125 42.6875V51.125C13.125 52.1196 13.5201 53.0734 14.2233 53.7766C14.9266 54.4799 15.8804 54.875 16.875 54.875H43.125C44.1196 54.875 45.0734 54.4799 45.7766 53.7766C46.4799 53.0734 46.875 52.1196 46.875 51.125V42.7719C46.8737 42.1922 46.7387 41.6206 46.4806 41.1015C46.2225 40.5824 45.8481 40.1298 45.3867 39.7789L33.1102 30.5L45.3867 21.2211C45.8481 20.8702 46.2225 20.4176 46.4806 19.8985C46.7387 19.3794 46.8737 18.8078 46.875 18.2281ZM43.125 42.7719V51.125H16.875V42.6875L28.125 34.25V39.875C28.125 40.3723 28.3225 40.8492 28.6742 41.2008C29.0258 41.5525 29.5027 41.75 30 41.75C30.4973 41.75 30.9742 41.5525 31.3258 41.2008C31.6775 40.8492 31.875 40.3723 31.875 39.875V34.2688L43.125 42.7719ZM43.125 18.2281L41.7727 19.25H18.1242L16.875 18.3125V9.875H43.125V18.2281Z"
        fill="#25632D" />
</svg>