<svg width="60" height="61" viewBox="0 0 60 61" fill="none" xmlns="http://www.w3.org/2000/svg">
    <path fill-rule="evenodd" clip-rule="evenodd"
        d="M8.66 9.08383C5 12.7488 5 18.6388 5 30.4238C5 42.2088 5 48.1013 8.66 51.7613C12.325 55.4238 18.215 55.4238 30 55.4238C41.785 55.4238 47.6775 55.4238 51.3375 51.7613C55 48.1038 55 42.2088 55 30.4238C55 18.6388 55 12.7463 51.3375 9.08383C47.68 5.42383 41.785 5.42383 30 5.42383C18.215 5.42383 12.3225 5.42383 8.66 9.08383ZM20.9925 44.0413C21.1393 44.2393 21.3237 44.4063 21.5351 44.5329C21.7466 44.6596 21.9809 44.7433 22.2247 44.7793C22.4685 44.8152 22.717 44.8028 22.956 44.7427C23.195 44.6826 23.4198 44.5759 23.6175 44.4288C25.4598 43.0494 27.6985 42.3022 30 42.2988C32.3015 42.3022 34.5402 43.0494 36.3825 44.4288C36.5796 44.5822 36.8054 44.6947 37.0466 44.7596C37.2879 44.8246 37.5396 44.8406 37.7871 44.8069C38.0346 44.7732 38.2729 44.6904 38.4879 44.5633C38.703 44.4362 38.8905 44.2674 39.0394 44.0669C39.1883 43.8663 39.2956 43.638 39.3551 43.3954C39.4146 43.1528 39.425 42.9008 39.3857 42.6541C39.3463 42.4074 39.2582 42.171 39.1262 41.9589C38.9943 41.7468 38.8214 41.5632 38.6175 41.4188C36.129 39.5592 33.1066 38.5526 30 38.5488C26.8934 38.5526 23.871 39.5592 21.3825 41.4188C20.9831 41.7149 20.7176 42.1575 20.6445 42.6493C20.5713 43.1411 20.6965 43.6418 20.9925 44.0413ZM40 26.6738C40 28.7438 38.88 30.4238 37.5 30.4238C36.12 30.4238 35 28.7438 35 26.6738C35 24.6038 36.12 22.9238 37.5 22.9238C38.88 22.9238 40 24.6038 40 26.6738ZM22.5 30.4238C23.88 30.4238 25 28.7438 25 26.6738C25 24.6038 23.88 22.9238 22.5 22.9238C21.12 22.9238 20 24.6038 20 26.6738C20 28.7438 21.12 30.4238 22.5 30.4238Z"
        fill="#25632D" />
</svg>