<svg width="24" height="24" viewBox="0 0 24 24" fill="none" xmlns="http://www.w3.org/2000/svg">
    <path
        d="M7.05 6.46185C7.32215 6.55765 7.61182 6.59343 7.8991 6.56674C8.18639 6.54004 8.4645 6.45151 8.71434 6.30721C8.96419 6.1629 9.17985 5.96625 9.34654 5.73075C9.51322 5.49524 9.62698 5.22646 9.68 4.94285L10 3.22285C11.3158 2.92311 12.6822 2.92311 13.998 3.22285L14.32 4.94285C14.373 5.22646 14.4868 5.49524 14.6535 5.73075C14.8201 5.96625 15.0358 6.1629 15.2857 6.30721C15.5355 6.45151 15.8136 6.54004 16.1009 6.56674C16.3882 6.59343 16.6778 6.55765 16.95 6.46185L18.599 5.88185C19.5169 6.87063 20.2008 8.05312 20.6 9.34185L19.27 10.4819C19.051 10.6696 18.8751 10.9025 18.7546 11.1647C18.634 11.4268 18.5716 11.7119 18.5716 12.0004C18.5716 12.2889 18.634 12.5739 18.7546 12.8361C18.8751 13.0982 19.051 13.3311 19.27 13.5189L20.6 14.6579C20.2008 15.9466 19.5169 17.1291 18.599 18.1179L16.949 17.5379C16.6768 17.4421 16.3872 17.4063 16.0999 17.433C15.8126 17.4597 15.5345 17.5482 15.2847 17.6925C15.0348 17.8368 14.8191 18.0335 14.6525 18.269C14.4858 18.5045 14.372 18.7732 14.319 19.0569L14 20.7769C12.6842 21.0766 11.3178 21.0766 10.002 20.7769L9.68 19.0569C9.62698 18.7732 9.51322 18.5045 9.34654 18.269C9.17985 18.0335 8.96419 17.8368 8.71434 17.6925C8.4645 17.5482 8.18639 17.4597 7.8991 17.433C7.61182 17.4063 7.32215 17.4421 7.05 17.5379L5.401 18.1179C4.48309 17.1291 3.79923 15.9466 3.4 14.6579L4.73 13.5179C4.94888 13.3301 5.12456 13.0972 5.24501 12.8352C5.36546 12.5732 5.42782 12.2882 5.42782 11.9999C5.42782 11.7115 5.36546 11.4265 5.24501 11.1645C5.12456 10.9025 4.94888 10.6696 4.73 10.4819L3.4 9.34185C3.79894 8.05321 4.48245 6.87073 5.4 5.88185L7.05 6.46185ZM12 8.99985C12.7956 8.99985 13.5587 9.31592 14.1213 9.87853C14.6839 10.4411 15 11.2042 15 11.9999C15 12.7955 14.6839 13.5586 14.1213 14.1212C13.5587 14.6838 12.7956 14.9999 12 14.9999C11.2044 14.9999 10.4413 14.6838 9.87868 14.1212C9.31607 13.5586 9 12.7955 9 11.9999C9 11.2042 9.31607 10.4411 9.87868 9.87853C10.4413 9.31592 11.2044 8.99985 12 8.99985Z"
        stroke="#858B93" stroke-width="1.5" stroke-linecap="round" stroke-linejoin="round" />
</svg>