<svg width="21" height="22" viewBox="0 0 21 22" fill="none" xmlns="http://www.w3.org/2000/svg">
    <path fill-rule="evenodd" clip-rule="evenodd"
        d="M9.6249 3.09097C9.68534 2.89931 9.80531 2.7319 9.96738 2.61307C10.1295 2.49424 10.3252 2.43018 10.5262 2.43018C10.7271 2.43018 10.9229 2.49424 11.0849 2.61307C11.247 2.7319 11.367 2.89931 11.4274 3.09097L13.0549 8.09597H18.3049C18.5131 8.0881 18.7181 8.14859 18.8886 8.2682C19.0591 8.38781 19.1858 8.55997 19.2493 8.75836C19.3128 8.95675 19.3096 9.17047 19.2402 9.36687C19.1708 9.56326 19.039 9.73153 18.8649 9.84597L14.6037 12.9347L16.2311 17.9485C16.2955 18.1395 16.2971 18.346 16.2358 18.538C16.1744 18.7299 16.0533 18.8973 15.8901 19.0155C15.7269 19.1338 15.5302 19.1967 15.3286 19.1952C15.1271 19.1938 14.9313 19.1279 14.7699 19.0072L10.4999 15.8835L6.23865 18.981C6.07722 19.1016 5.88145 19.1675 5.67991 19.169C5.47838 19.1705 5.28165 19.1075 5.11845 18.9893C4.95525 18.871 4.83413 18.7037 4.77277 18.5117C4.71141 18.3198 4.71304 18.1132 4.7774 17.9222L6.4049 12.9085L2.14365 9.81972C1.9696 9.70528 1.8378 9.53701 1.76838 9.34062C1.69897 9.14422 1.69576 8.9305 1.75924 8.73211C1.82273 8.53372 1.94942 8.36156 2.11995 8.24195C2.29049 8.12234 2.4955 8.06185 2.70365 8.06972H7.95365L9.6249 3.09097Z"
        fill="#D5DBE7" />
</svg>