<svg width="24" height="24" viewBox="0 0 24 24" fill="none" xmlns="http://www.w3.org/2000/svg">
    <path
        d="M4 2.15039H20C20.1974 2.15039 20.3878 2.21866 20.5391 2.34277L20.6006 2.39941C20.76 2.55882 20.8496 2.77457 20.8496 3V21C20.8496 21.2254 20.76 21.4412 20.6006 21.6006C20.4412 21.76 20.2254 21.8496 20 21.8496H4C3.80259 21.8496 3.61225 21.7813 3.46094 21.6572L3.39941 21.6006C3.24001 21.4412 3.15039 21.2254 3.15039 21V3C3.15039 2.80259 3.21866 2.61225 3.34277 2.46094L3.39941 2.39941C3.5389 2.25993 3.72143 2.17361 3.91602 2.1543L4 2.15039ZM4.84961 20.1504H19.1504V3.84961H4.84961V20.1504ZM15.8496 15.1504V16.8496H8.15039V15.1504H15.8496ZM15.8496 11.1504V12.8496H8.15039V11.1504H15.8496ZM15.8496 7.15039V8.84961H8.15039V7.15039H15.8496Z"
        fill="#858B93" stroke="white" stroke-width="0.3" />
</svg>