<svg width="16" height="16" viewBox="0 0 16 16" fill="none" xmlns="http://www.w3.org/2000/svg">
    <path
        d="M6.3354 9.76093L11.8398 4.25656C12.0108 4.08552 12.2285 4 12.4928 4C12.7572 4 12.9749 4.08552 13.1459 4.25656C13.3169 4.4276 13.4025 4.64529 13.4025 4.90962C13.4025 5.17395 13.3169 5.39164 13.1459 5.56268L6.98846 11.7201C6.80187 11.9067 6.58418 12 6.3354 12C6.08661 12 5.86893 11.9067 5.68234 11.7201L3.25668 9.29446C3.08564 9.12342 3.00012 8.90573 3.00012 8.6414C3.00012 8.37706 3.08564 8.15938 3.25668 7.98834C3.42772 7.8173 3.64541 7.73178 3.90974 7.73178C4.17408 7.73178 4.39176 7.8173 4.5628 7.98834L6.3354 9.76093Z"
        fill="#25632D" />
</svg>