<svg width="24" height="25" viewBox="0 0 24 25" fill="none" xmlns="http://www.w3.org/2000/svg">
    <path
        d="M6 19.6504C6 20.7504 6.9 21.6504 8 21.6504H16C17.1 21.6504 18 20.7504 18 19.6504V9.65039C18 8.55039 17.1 7.65039 16 7.65039H8C6.9 7.65039 6 8.55039 6 9.65039V19.6504ZM18 4.65039H15.5L14.79 3.94039C14.61 3.76039 14.35 3.65039 14.09 3.65039H9.91C9.65 3.65039 9.39 3.76039 9.21 3.94039L8.5 4.65039H6C5.45 4.65039 5 5.10039 5 5.65039C5 6.20039 5.45 6.65039 6 6.65039H18C18.55 6.65039 19 6.20039 19 5.65039C19 5.10039 18.55 4.65039 18 4.65039Z"
        fill="#E2B808" />
</svg>