<svg width="21" height="21" viewBox="0 0 21 21" fill="none" xmlns="http://www.w3.org/2000/svg">
<g clip-path="url(#clip0_2117_3133)">
<path d="M16.8783 5.38496L13.9741 2.48079C12.8724 1.37913 11.4074 0.772461 9.84909 0.772461H6.08659C3.78909 0.771628 1.91992 2.64079 1.91992 4.93829V16.605C1.91992 18.9025 3.78909 20.7716 6.08659 20.7716H14.4199C16.7174 20.7716 18.5866 18.9025 18.5866 16.605V9.50913C18.5866 7.95079 17.9799 6.48746 16.8783 5.38496ZM15.6999 6.56329C15.9649 6.82829 16.1891 7.12246 16.3708 7.43829H12.7533C12.2941 7.43829 11.9199 7.06413 11.9199 6.60496V2.98746C12.2358 3.16913 12.5308 3.39329 12.7949 3.65829L15.6991 6.56246L15.6999 6.56329ZM16.9199 16.605C16.9199 17.9833 15.7983 19.105 14.4199 19.105H6.08659C4.70826 19.105 3.58659 17.9833 3.58659 16.605V4.93829C3.58659 3.55996 4.70826 2.43829 6.08659 2.43829H9.84909C9.98492 2.43829 10.1199 2.44496 10.2533 2.45746V6.60496C10.2533 7.98329 11.3749 9.10496 12.7533 9.10496H16.9008C16.9133 9.2383 16.9199 9.37329 16.9199 9.50913V16.605ZM13.3424 12.8391C13.6683 13.165 13.6683 13.6916 13.3424 14.0175C13.1799 14.18 12.9666 14.2616 12.7533 14.2616C12.5399 14.2616 12.3266 14.18 12.1641 14.0175L11.0866 12.94V16.605C11.0866 17.065 10.7133 17.4383 10.2533 17.4383C9.79326 17.4383 9.41992 17.065 9.41992 16.605V12.94L8.34242 14.0175C8.01659 14.3433 7.48992 14.3433 7.16409 14.0175C6.83826 13.6916 6.83826 13.165 7.16409 12.8391L8.50909 11.4941C9.47076 10.5325 11.0358 10.5325 11.9983 11.4941L13.3433 12.8391H13.3424Z" fill=""/>
</g>
<defs>
<clipPath id="clip0_2117_3133">
<rect width="20" height="20" fill="white" transform="translate(0.253906 0.771484)"/>
</clipPath>
</defs>
</svg>
