<svg width="268" height="268" viewBox="0 0 268 268" fill="none" xmlns="http://www.w3.org/2000/svg">
<path d="M203.865 61.6532C202.15 57.9821 200.353 54.3657 198.308 50.9203C174.708 11.1572 111.504 -10.4892 80.1864 30.6107C72.7221 40.4067 70.1209 52.2437 65.0964 63.4777C53.6694 89.0288 32.3205 104.304 18.9339 127.964C8.55698 146.305 9.94039 169.811 15.7292 189.638C22.0192 211.183 33.0897 226.23 50.797 237.668C70.6483 250.49 91.8798 246.93 113.337 242.468C122.987 240.461 132.936 238.414 142.803 239.18C155.156 240.138 167.353 244.001 179.609 245.879C192.355 247.832 205.58 248.294 217.859 244.038C257.18 230.41 266.495 166.546 250.325 129.963C244.602 117.013 234.901 107.023 225.893 96.8866C216.169 85.9452 210.209 75.2365 203.865 61.6532Z" fill="#8A2BE1"/>
<path opacity="0.8" d="M203.865 61.6532C202.15 57.9821 200.353 54.3657 198.308 50.9203C174.708 11.1572 111.504 -10.4892 80.1864 30.6107C72.7221 40.4067 70.1209 52.2437 65.0964 63.4777C53.6694 89.0288 32.3205 104.304 18.9339 127.964C8.55698 146.305 9.94039 169.811 15.7292 189.638C22.0192 211.183 33.0897 226.23 50.797 237.668C70.6483 250.49 91.8798 246.93 113.337 242.468C122.987 240.461 132.936 238.414 142.803 239.18C155.156 240.138 167.353 244.001 179.609 245.879C192.355 247.832 205.58 248.294 217.859 244.038C257.18 230.41 266.495 166.546 250.325 129.963C244.602 117.013 234.901 107.023 225.893 96.8866C216.169 85.9452 210.209 75.2365 203.865 61.6532Z" fill="white"/>
<path d="M8.17578 206.133H257.697" stroke="black" stroke-width="0.536" stroke-miterlimit="10" stroke-linecap="round" stroke-linejoin="round"/>
<path d="M114.69 25.7134H32.6309V132.73H114.69V25.7134Z" stroke="black" stroke-width="0.536" stroke-miterlimit="10" stroke-linecap="round" stroke-linejoin="round"/>
<path d="M109.039 33.0815H38.2793V125.362H109.039V33.0815Z" stroke="black" stroke-width="0.536" stroke-miterlimit="10" stroke-linecap="round" stroke-linejoin="round"/>
<path d="M89.9812 57.937H57.3398V100.506H89.9812V57.937Z" stroke="black" stroke-width="0.536" stroke-miterlimit="10" stroke-linecap="round" stroke-linejoin="round"/>
<path d="M245.022 35.9238H209.227V82.6062H245.022V35.9238Z" stroke="black" stroke-width="0.536" stroke-miterlimit="10" stroke-linecap="round" stroke-linejoin="round"/>
<path d="M242.558 39.1377H211.691V79.3918H242.558V39.1377Z" stroke="black" stroke-width="0.536" stroke-miterlimit="10" stroke-linecap="round" stroke-linejoin="round"/>
<path d="M234.245 49.9805H220.006V68.5497H234.245V49.9805Z" stroke="black" stroke-width="0.536" stroke-miterlimit="10" stroke-linecap="round" stroke-linejoin="round"/>
<path d="M204.728 22.1577H179.434V55.1458H204.728V22.1577Z" stroke="black" stroke-width="0.536" stroke-miterlimit="10" stroke-linecap="round" stroke-linejoin="round"/>
<path d="M202.987 24.4292H181.176V52.8747H202.987V24.4292Z" stroke="black" stroke-width="0.536" stroke-miterlimit="10" stroke-linecap="round" stroke-linejoin="round"/>
<path d="M197.113 32.0908H187.051V45.2126H197.113V32.0908Z" stroke="black" stroke-width="0.536" stroke-miterlimit="10" stroke-linecap="round" stroke-linejoin="round"/>
<path d="M157.152 76.7585C162.632 72.6807 166.598 73.7537 165.613 75.187C164.629 76.6203 164.486 76.8824 158.671 79.08C154.284 80.7383 150.327 83.1696 148.647 84.2647C148.55 84.8227 148.498 85.393 148.509 85.9783C148.541 87.7937 149.012 89.5577 149.759 91.2456C150.858 89.5539 152.765 87.6801 152.765 87.6801C152.765 87.6801 160.75 84.4909 165.191 83.4457C169.631 82.4005 170.412 82.9617 168.586 85.5666C166.759 88.1716 164.19 89.1487 159.45 91.1174C155.776 92.6434 153.063 94.4385 152.025 95.1712C153.179 96.813 154.497 98.3427 155.788 99.7374C156.141 98.8053 156.91 97.5972 158.592 96.5589C161.865 94.5387 169.67 92.6772 171.179 91.5296C172.687 90.3815 174.275 94.5741 166.289 97.7633C161.635 99.6222 159.436 101.34 158.41 102.45C160.181 104.206 161.92 105.778 163.601 107.184C164.418 106.589 165.551 105.793 167.113 104.731C175.315 99.1473 175.893 101.703 172.301 105.18C169.854 107.549 167.454 108.68 166.578 109.555C168.195 110.78 169.737 111.847 171.18 112.781C171.749 111.968 172.855 110.91 175.984 110.513C181.748 109.782 180.235 111.063 176.672 113.74C175.874 114.339 175.336 114.767 175.008 115.102C176.999 116.232 178.659 117.06 179.871 117.671C180.589 118.034 181.174 118.329 181.66 118.575C181.848 118.234 181.9 117.575 182.7 116.887C184.489 115.348 185.398 118.949 183.919 119.715C183.919 119.715 185.637 119.029 187.781 117.834C187.332 117.043 186.439 116.858 187.154 115.442C188.009 113.748 189.593 113.795 190.982 115.806C192.191 114.929 193.345 113.929 194.25 112.833C192.935 111.451 191.035 109.952 191.648 109.061C192.284 108.135 194.522 108.989 196.319 109.686C197.183 108.23 198.053 106.638 198.887 104.952C197.391 104.743 195.463 104.264 194.657 103.161C193.257 101.244 193.574 99.7873 194.908 99.8339C195.926 99.8698 198.462 100.97 200.368 101.753C201.016 100.252 201.619 98.7024 202.151 97.1265C200.055 96.7213 197.235 96.3327 196.295 94.5446C194.793 91.6899 196.664 91.6218 202.168 94.4841C202.415 94.6127 202.646 94.7247 202.87 94.8298C203.431 92.8739 203.868 90.8966 204.132 88.9418C201.449 87.649 197.003 86.9736 193.547 85.3742C188.557 83.064 192.626 81.2052 194.083 81.5231C195.17 81.7605 201.063 84.9181 204.369 86.517C204.557 83.3063 204.209 80.2098 203.112 77.4302C200.209 76.7291 195.462 76.3941 192.684 75.7359C188.714 74.7957 187.323 72.612 191.436 73.2901C194.343 73.7693 199.353 74.9876 202.102 75.3344C200.931 73.3062 199.27 71.5015 197.012 70.0189C194.773 68.5492 191.928 67.2033 188.903 66.3162C186.934 66.9755 185.288 68.063 184.545 68.1113C183.208 68.1976 184.459 66.7739 184.763 65.7169C184.791 65.6205 184.828 65.5315 184.87 65.4484C179.514 64.7227 174.178 65.8081 171.069 70.4579C171.369 70.0098 167.498 68.4071 167.231 68.3433C164.339 67.6503 161.238 68.9506 158.651 70.1979C155.643 71.6494 153.485 74.2838 151.852 77.1289C151.182 78.2942 150.469 79.475 149.873 80.6998C150.783 80.5223 153.078 79.7891 157.152 76.7585Z" fill="#8A2BE1"/>
<path d="M182.215 123.76C185.141 121.583 187.258 122.156 186.733 122.921C186.207 123.687 186.131 123.827 183.026 125C180.684 125.886 178.572 127.184 177.674 127.768C177.622 128.066 177.595 128.371 177.6 128.683C177.617 129.653 177.869 130.594 178.268 131.496C178.854 130.593 179.872 129.592 179.872 129.592C179.872 129.592 184.136 127.889 186.506 127.331C188.877 126.773 189.294 127.073 188.319 128.464C187.344 129.855 185.972 130.376 183.442 131.427C181.48 132.242 180.031 133.2 179.477 133.592C180.093 134.468 180.796 135.285 181.486 136.029C181.675 135.532 182.086 134.887 182.983 134.332C184.731 133.253 188.899 132.26 189.704 131.647C190.509 131.034 191.357 133.273 187.093 134.976C184.608 135.968 183.434 136.885 182.886 137.478C183.832 138.416 184.76 139.255 185.658 140.005C186.094 139.688 186.7 139.263 187.533 138.696C191.913 135.715 192.221 137.079 190.303 138.935C188.996 140.2 187.715 140.805 187.247 141.271C188.111 141.925 188.934 142.496 189.704 142.994C190.008 142.56 190.598 141.996 192.269 141.783C195.346 141.393 194.538 142.076 192.636 143.506C192.211 143.826 191.923 144.054 191.748 144.234C192.811 144.837 193.697 145.279 194.344 145.605C194.728 145.799 195.04 145.957 195.3 146.088C195.4 145.906 195.428 145.554 195.855 145.187C196.81 144.365 197.295 146.288 196.506 146.697C196.506 146.697 197.423 146.331 198.568 145.692C198.327 145.27 197.851 145.171 198.233 144.415C198.69 143.511 199.536 143.535 200.277 144.61C200.923 144.141 201.539 143.607 202.022 143.022C201.32 142.284 200.305 141.484 200.633 141.008C200.972 140.513 202.167 140.97 203.127 141.342C203.588 140.564 204.053 139.714 204.498 138.814C203.699 138.702 202.67 138.447 202.24 137.858C201.492 136.834 201.662 136.057 202.373 136.082C202.917 136.101 204.271 136.689 205.288 137.106C205.634 136.305 205.956 135.478 206.24 134.636C205.122 134.42 203.616 134.212 203.113 133.258C202.312 131.733 203.311 131.697 206.249 133.225C206.381 133.294 206.505 133.354 206.624 133.41C206.924 132.365 207.157 131.31 207.298 130.266C205.866 129.576 203.491 129.216 201.646 128.361C198.982 127.128 201.154 126.135 201.932 126.305C202.512 126.432 205.659 128.118 207.424 128.971C207.524 127.257 207.339 125.604 206.753 124.119C205.203 123.745 202.668 123.566 201.185 123.215C199.065 122.713 198.323 121.547 200.519 121.909C202.07 122.165 204.745 122.815 206.214 123C205.588 121.917 204.701 120.954 203.496 120.162C202.301 119.377 200.782 118.659 199.167 118.185C198.116 118.537 197.237 119.118 196.84 119.144C196.126 119.19 196.794 118.43 196.956 117.865C196.971 117.814 196.991 117.766 197.014 117.722C194.154 117.334 191.305 117.914 189.645 120.396C189.805 120.157 187.738 119.301 187.596 119.268C186.051 118.898 184.396 119.592 183.015 120.257C181.409 121.033 180.257 122.439 179.385 123.958C179.027 124.58 178.646 125.211 178.328 125.865C178.814 125.77 180.04 125.378 182.215 123.76Z" fill="#8A2BE1"/>
<path d="M155.613 155.984C158.54 153.807 160.657 154.38 160.131 155.145C159.605 155.911 159.529 156.05 156.425 157.224C154.082 158.109 151.97 159.407 151.073 159.992C151.021 160.29 150.993 160.595 150.999 160.907C151.016 161.876 151.267 162.818 151.666 163.719C152.253 162.816 153.271 161.816 153.271 161.816C153.271 161.816 157.534 160.113 159.905 159.555C162.276 158.997 162.693 159.296 161.718 160.687C160.743 162.078 159.371 162.6 156.84 163.651C154.878 164.466 153.429 165.424 152.875 165.815C153.492 166.692 154.195 167.508 154.885 168.253C155.073 167.756 155.484 167.11 156.382 166.556C158.13 165.477 162.297 164.483 163.102 163.871C163.907 163.257 164.755 165.496 160.492 167.199C158.006 168.192 156.833 169.109 156.285 169.701C157.23 170.639 158.159 171.478 159.057 172.229C159.493 171.912 160.098 171.487 160.931 170.92C165.311 167.938 165.619 169.303 163.701 171.159C162.395 172.424 161.113 173.028 160.646 173.495C161.509 174.149 162.332 174.719 163.102 175.218C163.406 174.784 163.997 174.219 165.667 174.007C168.745 173.616 167.937 174.3 166.035 175.73C165.609 176.05 165.321 176.278 165.146 176.457C166.209 177.06 167.096 177.502 167.743 177.829C168.126 178.022 168.439 178.18 168.698 178.311C168.798 178.129 168.827 177.777 169.253 177.41C170.208 176.588 170.693 178.511 169.904 178.92C169.904 178.92 170.821 178.554 171.966 177.915C171.726 177.493 171.25 177.394 171.632 176.638C172.088 175.734 172.933 175.759 173.676 176.833C174.321 176.364 174.937 175.83 175.42 175.245C174.718 174.507 173.704 173.707 174.031 173.231C174.37 172.737 175.566 173.193 176.525 173.565C176.987 172.787 177.451 171.937 177.896 171.037C177.098 170.925 176.068 170.67 175.638 170.081C174.89 169.058 175.06 168.28 175.772 168.304C176.315 168.324 177.669 168.911 178.687 169.329C179.033 168.527 179.355 167.7 179.639 166.859C178.52 166.642 177.014 166.435 176.512 165.48C175.71 163.956 176.709 163.92 179.648 165.448C179.78 165.516 179.903 165.576 180.023 165.632C180.323 164.588 180.555 163.532 180.696 162.489C179.264 161.798 176.89 161.438 175.045 160.584C172.38 159.351 174.553 158.358 175.33 158.528C175.911 158.655 179.057 160.341 180.822 161.194C180.923 159.48 180.737 157.827 180.151 156.343C178.601 155.968 176.067 155.789 174.583 155.438C172.463 154.936 171.72 153.77 173.916 154.132C175.468 154.388 178.143 155.038 179.611 155.223C178.986 154.141 178.099 153.177 176.894 152.385C175.699 151.601 174.18 150.882 172.565 150.408C171.514 150.761 170.635 151.341 170.237 151.367C169.523 151.413 170.191 150.653 170.354 150.088C170.369 150.037 170.389 149.989 170.411 149.945C167.551 149.557 164.702 150.137 163.042 152.619C163.202 152.38 161.135 151.524 160.993 151.49C159.449 151.12 157.793 151.814 156.412 152.48C154.806 153.255 153.654 154.662 152.782 156.181C152.425 156.803 152.044 157.433 151.726 158.087C152.213 157.993 153.438 157.602 155.613 155.984Z" fill="#8A2BE1"/>
<path d="M173.869 122.969C170.209 119.824 167.363 120.385 167.985 121.443C168.607 122.501 168.695 122.693 172.683 124.529C175.691 125.914 178.359 127.823 179.488 128.678C179.529 129.076 179.537 129.48 179.501 129.892C179.388 131.169 178.97 132.388 178.36 133.54C177.669 132.294 176.418 130.879 176.418 130.879C176.418 130.879 170.951 128.237 167.874 127.281C164.798 126.325 164.22 126.682 165.378 128.607C166.536 130.533 168.297 131.348 171.539 132.97C174.051 134.227 175.874 135.626 176.569 136.193C175.674 137.292 174.67 138.305 173.692 139.223C173.489 138.549 173.007 137.66 171.874 136.846C169.667 135.26 164.261 133.563 163.255 132.679C162.25 131.796 160.924 134.671 166.391 137.313C169.578 138.853 171.042 140.171 171.71 141.004C170.375 142.154 169.072 143.176 167.818 144.083C167.273 143.623 166.513 143.007 165.466 142.181C159.964 137.841 159.431 139.613 161.789 142.24C163.396 144.031 165.03 144.946 165.604 145.606C164.404 146.389 163.265 147.064 162.202 147.651C161.842 147.05 161.115 146.25 158.93 145.816C154.906 145.015 155.908 145.992 158.286 148.055C158.818 148.516 159.176 148.845 159.391 149.097C157.932 149.795 156.722 150.296 155.838 150.666C155.314 150.886 154.887 151.065 154.533 151.214C154.417 150.965 154.413 150.498 153.884 149.974C152.7 148.802 151.881 151.293 152.885 151.906C152.885 151.906 151.709 151.337 150.258 150.389C150.613 149.854 151.251 149.768 150.817 148.735C150.299 147.5 149.181 147.454 148.102 148.803C147.295 148.125 146.531 147.363 145.947 146.547C146.942 145.638 148.355 144.677 147.967 144.018C147.565 143.334 145.946 143.825 144.646 144.227C144.109 143.158 143.575 141.994 143.072 140.765C144.136 140.691 145.518 140.45 146.14 139.713C147.221 138.432 147.07 137.39 146.128 137.357C145.409 137.332 143.568 137.981 142.187 138.439C141.804 137.349 141.457 136.228 141.16 135.091C142.656 134.91 144.662 134.776 145.413 133.562C146.612 131.625 145.298 131.485 141.279 133.229C141.098 133.307 140.93 133.375 140.767 133.438C140.468 132.032 140.259 130.617 140.17 129.227C142.123 128.45 145.29 128.194 147.803 127.238C151.433 125.857 148.659 124.346 147.617 124.498C146.839 124.612 142.531 126.544 140.123 127.507C140.15 125.236 140.548 123.072 141.459 121.168C143.538 120.818 146.899 120.817 148.888 120.491C151.732 120.025 152.82 118.555 149.889 118.83C147.817 119.023 144.228 119.634 142.273 119.742C143.199 118.371 144.458 117.182 146.122 116.249C147.772 115.325 149.843 114.517 152.018 114.042C153.372 114.604 154.478 115.452 155 115.522C155.938 115.649 155.127 114.584 154.965 113.825C154.95 113.756 154.928 113.691 154.902 113.63C158.712 113.384 162.417 114.413 164.377 117.842C164.188 117.512 166.995 116.574 167.186 116.542C169.257 116.197 171.378 117.267 173.138 118.274C175.185 119.445 176.575 121.408 177.585 123.493C177.999 124.347 178.443 125.214 178.802 126.107C178.169 125.935 176.588 125.306 173.869 122.969Z" fill="#8A2BE1"/>
<path d="M155.708 108.699C155.411 105.753 151.735 104.022 149.47 103.943C149.47 103.943 145.097 99.2525 142.036 99.0118C138.976 98.7712 135.197 99.9729 133.757 102.992C132.317 106.01 130.834 117.835 130.834 117.835C130.834 117.835 135.174 116.768 139.917 115.969L139.977 115.887C139.977 115.887 143.62 110.944 143.573 112.277C143.543 113.118 142.747 114.621 142.163 115.617C143.153 115.476 144.133 115.354 145.069 115.265C146.525 115.127 147.902 114.85 149.155 114.472C149.454 112.629 149.938 109.925 150.293 110.911C150.59 111.735 150.872 112.955 151.047 113.782C154.024 112.489 155.897 110.577 155.708 108.699Z" fill="#8A2BE1"/>
<path d="M179.911 159.174C180.414 156.256 184.202 154.787 186.467 154.867C186.467 154.867 191.158 150.494 194.228 150.469C197.298 150.443 200.983 151.907 202.208 155.019C203.434 158.131 204.084 170.03 204.084 170.03C204.084 170.03 199.83 168.663 195.155 167.532L195.101 167.446C195.101 167.446 191.813 162.26 191.766 163.593C191.737 164.434 192.425 165.99 192.938 167.024C191.961 166.813 190.991 166.624 190.064 166.469C188.621 166.229 187.267 165.857 186.044 165.392C185.875 163.533 185.582 160.801 185.158 161.76C184.805 162.562 184.437 163.759 184.205 164.571C181.325 163.073 179.591 161.033 179.911 159.174Z" fill="#8A2BE1"/>
<path d="M172.038 206.529C171.963 204.052 171.886 200.4 171.797 196.172C171.37 175.823 170.574 137.943 167.694 123.023C164.338 105.64 150.86 106.334 150.288 106.373L150.215 105.304C150.363 105.293 165.207 104.484 168.747 122.82C171.644 137.83 172.441 175.768 172.869 196.151C172.958 200.376 173.035 204.025 173.11 206.497L172.038 206.529Z" fill="#8A2BE1"/>
<path d="M174.392 76.3386L173.32 76.3457L174.177 206.12L175.249 206.113L174.392 76.3386Z" fill="#8A2BE1"/>
<path d="M176.751 206.23C176.641 203.594 174.109 141.515 177.079 128.564C178.032 124.409 179.883 121.701 182.58 120.513C186.847 118.636 191.593 121.279 191.792 121.392L191.264 122.325C191.22 122.3 186.777 119.833 183.006 121.496C180.639 122.541 178.997 125 178.124 128.803C175.187 141.615 177.795 205.542 177.822 206.186L176.751 206.23Z" fill="#8A2BE1"/>
<path d="M178.872 206.094C178.452 201.2 174.897 158.186 179.284 154.8C181.201 153.321 183.67 153.187 186.422 154.407C188.435 155.3 189.885 156.594 189.945 156.649L189.228 157.446C189.175 157.398 183.813 152.659 179.939 155.649C179.2 156.219 177.575 159.914 178.438 181.854C178.916 193.995 179.929 205.884 179.94 206.003L178.872 206.094Z" fill="#8A2BE1"/>
<path d="M170.543 205.984L169.473 205.923C173.01 143.662 171.986 118.707 170.511 117.601C166.741 115.549 160.491 120.873 160.429 120.926L159.729 120.114C160.007 119.874 166.604 114.254 171.031 116.664C171.894 117.134 173.915 118.235 172.484 162.409C171.781 184.087 170.556 205.768 170.543 205.984Z" fill="#8A2BE1"/>
<path d="M192.27 196.982L194.752 142.68L245.64 141.439L242.848 201.171L230.743 201.565L192.27 196.982Z" fill="white" stroke="black" stroke-width="0.536" stroke-miterlimit="10" stroke-linecap="round" stroke-linejoin="round"/>
<path d="M184.822 139.267L194.752 142.681L245.64 141.439L233.849 136.94L184.822 139.267Z" fill="white" stroke="black" stroke-width="0.536" stroke-miterlimit="10" stroke-linecap="round" stroke-linejoin="round"/>
<path d="M230.744 201.565L233.85 136.94L245.641 141.439L242.849 201.171L230.744 201.565Z" fill="black" stroke="black" stroke-width="0.536" stroke-miterlimit="10" stroke-linecap="round" stroke-linejoin="round"/>
<path d="M184.822 139.267L183.115 195.43L193.026 196.652L194.751 142.68L184.822 139.267Z" fill="black" stroke="black" stroke-width="0.536" stroke-miterlimit="10" stroke-linecap="round" stroke-linejoin="round"/>
<path d="M131.076 199.614L180.34 210.507L180.991 229.368L132.214 214.572L131.076 199.614Z" fill="#8A2BE1" stroke="black" stroke-width="0.536" stroke-miterlimit="10" stroke-linecap="round" stroke-linejoin="round"/>
<path d="M180.34 210.507L230.743 201.565V217.499L180.991 229.368L180.34 210.507Z" fill="black" stroke="black" stroke-width="0.536" stroke-miterlimit="10" stroke-linecap="round" stroke-linejoin="round"/>
<path d="M230.743 201.566L178.552 193.599L131.076 199.615L180.34 210.508L230.743 201.566Z" fill="white" stroke="black" stroke-width="0.536" stroke-miterlimit="10" stroke-linecap="round" stroke-linejoin="round"/>
<path d="M144.302 209.564C144.302 209.564 143.27 211.242 143.528 213.563C143.786 215.885 146.397 219.943 152.428 222.205C157.703 224.184 163.166 222.218 164.682 220.399C166.617 218.077 166.746 214.853 166.23 214.208C165.714 213.563 165.585 213.434 165.069 214.337C164.553 215.24 164.166 216.272 161.844 216.917C159.522 217.562 154.363 217.433 150.751 216.143C147.14 214.853 146.624 213.821 146.237 211.886C145.85 209.951 145.463 208.146 144.302 209.564Z" fill="black" stroke="black" stroke-width="0.536" stroke-miterlimit="10" stroke-linecap="round" stroke-linejoin="round"/>
<path d="M198.089 198.963C198.089 201.873 185.139 204.226 169.167 204.226C161.85 204.226 155.166 203.733 150.069 202.918C146.564 202.356 143.809 201.643 142.12 200.833C140.909 200.254 140.244 199.622 140.244 198.963C140.244 196.058 153.194 193.699 169.167 193.699C175.572 193.699 181.489 194.08 186.287 194.718C189.272 195.12 191.818 195.623 193.774 196.197C196.508 197.001 198.089 197.95 198.089 198.963Z" fill="black" stroke="black" stroke-width="0.536" stroke-miterlimit="10" stroke-linecap="round" stroke-linejoin="round"/>
<path d="M161.422 199.156L142.121 200.834C143.809 201.643 146.565 202.356 150.07 202.919L162.998 199.322L161.422 199.156ZM186.287 194.718L176.66 196.755L176.5 197.414L193.775 196.197C191.818 195.624 189.272 195.12 186.287 194.718Z" fill="white" stroke="black" stroke-width="0.536" stroke-miterlimit="10" stroke-linecap="round" stroke-linejoin="round"/>
<path d="M180.016 197.803C180.016 198.893 175.158 199.777 169.167 199.777C163.176 199.777 158.318 198.894 158.318 197.803C158.318 196.712 163.176 195.828 169.167 195.828C175.158 195.828 180.016 196.712 180.016 197.803Z" fill="white" stroke="black" stroke-width="0.536" stroke-miterlimit="10" stroke-linecap="round" stroke-linejoin="round"/>
<path d="M170.062 197.803C170.062 197.893 169.661 197.966 169.167 197.966C168.672 197.966 168.271 197.893 168.271 197.803C168.271 197.713 168.672 197.64 169.167 197.64C169.661 197.64 170.062 197.713 170.062 197.803Z" fill="white" stroke="black" stroke-width="0.536" stroke-miterlimit="10" stroke-linecap="round" stroke-linejoin="round"/>
<path d="M169.166 197.802V196.808" stroke="black" stroke-width="0.536" stroke-miterlimit="10" stroke-linecap="round" stroke-linejoin="round"/>
<path d="M179.299 199.881C179.028 199.881 178.796 199.676 178.767 199.4C178.736 199.105 178.95 198.842 179.245 198.811L208.347 195.824C208.645 195.795 208.905 196.008 208.936 196.303C208.966 196.597 208.752 196.86 208.457 196.891L179.355 199.878C179.336 199.88 179.318 199.881 179.299 199.881Z" fill="white" stroke="black" stroke-width="0.536" stroke-miterlimit="10" stroke-linecap="round" stroke-linejoin="round"/>
<path d="M179.299 199.881L179.444 201.614C179.478 202.022 179.843 202.322 180.25 202.277L187.279 201.488C187.647 201.446 187.925 201.135 187.925 200.765V199.181L179.299 199.881Z" fill="white" stroke="black" stroke-width="0.536" stroke-miterlimit="10" stroke-linecap="round" stroke-linejoin="round"/>
<path d="M209.656 199.804V201.16C209.656 201.682 210.791 202.105 212.19 202.105C213.59 202.105 214.725 201.682 214.725 201.16V199.804H209.656Z" fill="black" stroke="black" stroke-width="0.536" stroke-miterlimit="10" stroke-linecap="round" stroke-linejoin="round"/>
<path d="M214.725 199.803C214.725 200.268 213.59 200.644 212.19 200.644C210.791 200.644 209.656 200.268 209.656 199.803C209.656 199.339 210.791 198.962 212.19 198.962C213.59 198.962 214.725 199.339 214.725 199.803Z" fill="black" stroke="black" stroke-width="0.536" stroke-miterlimit="10" stroke-linecap="round" stroke-linejoin="round"/>
<path d="M215.825 193.637C214.91 193.473 213.873 193.544 213.155 193.61C212.716 193.65 206.91 194.428 206.91 194.657V200.156L209.316 200.516L216.258 199.6C217.152 199.482 217.821 198.719 217.821 197.817C217.821 197.817 217.821 195.611 217.821 195.602C217.82 194.355 216.909 193.832 215.825 193.637Z" fill="black" stroke="black" stroke-width="0.536" stroke-miterlimit="10" stroke-linecap="round" stroke-linejoin="round"/>
<path d="M199.695 202.407V203.763C199.695 204.285 200.83 204.708 202.23 204.708C203.629 204.708 204.764 204.285 204.764 203.763V202.407H199.695Z" fill="black" stroke="black" stroke-width="0.536" stroke-miterlimit="10" stroke-linecap="round" stroke-linejoin="round"/>
<path d="M204.764 202.406C204.764 202.871 203.629 203.248 202.23 203.248C200.83 203.248 199.695 202.871 199.695 202.406C199.695 201.942 200.83 201.565 202.23 201.565C203.629 201.565 204.764 201.942 204.764 202.406Z" fill="white" stroke="black" stroke-width="0.536" stroke-miterlimit="10" stroke-linecap="round" stroke-linejoin="round"/>
<path d="M191.146 203.807V205.164C191.146 205.686 192.281 206.109 193.681 206.109C195.08 206.109 196.215 205.686 196.215 205.164V203.807H191.146Z" fill="black" stroke="black" stroke-width="0.536" stroke-miterlimit="10" stroke-linecap="round" stroke-linejoin="round"/>
<path d="M193.681 204.648C195.08 204.648 196.215 204.272 196.215 203.807C196.215 203.342 195.08 202.965 193.681 202.965C192.281 202.965 191.146 203.342 191.146 203.807C191.146 204.272 192.281 204.648 193.681 204.648Z" fill="white" stroke="black" stroke-width="0.536" stroke-miterlimit="10" stroke-linecap="round" stroke-linejoin="round"/>
<path d="M181.363 206.265V207.069C181.363 207.378 182.036 207.629 182.866 207.629C183.695 207.629 184.368 207.378 184.368 207.069V206.265H181.363Z" fill="black" stroke="black" stroke-width="0.536" stroke-miterlimit="10" stroke-linecap="round" stroke-linejoin="round"/>
<path d="M184.369 206.264C184.369 206.54 183.696 206.763 182.866 206.763C182.037 206.763 181.363 206.54 181.363 206.264C181.363 205.989 182.036 205.765 182.866 205.765C183.696 205.765 184.369 205.989 184.369 206.264Z" fill="white" stroke="black" stroke-width="0.536" stroke-miterlimit="10" stroke-linecap="round" stroke-linejoin="round"/>
<path d="M93.1414 140.311C93.1414 140.311 109.645 142.495 112.436 145.893C115.227 149.291 115.591 152.446 116.076 154.994C116.562 157.542 120.93 186.909 121.537 192.976C122.144 199.044 122.872 201.471 121.78 203.898C120.687 206.325 114.742 210.329 111.708 210.693C108.674 211.057 105.761 210.814 103.699 209.965C101.636 209.116 94.9616 204.868 94.9616 204.868L23.8516 210.329C23.8516 210.329 40.1122 151.718 43.146 147.106C46.1797 142.495 58.6787 138.855 66.202 137.641C73.7258 136.428 93.1414 140.311 93.1414 140.311Z" fill="#8A2BE1" stroke="black" stroke-width="0.536" stroke-miterlimit="10" stroke-linecap="round" stroke-linejoin="round"/>
<path d="M101.271 183.147C101.271 183.147 106.489 179.992 113.77 183.147" stroke="black" stroke-width="0.536" stroke-miterlimit="10" stroke-linecap="round" stroke-linejoin="round"/>
<path d="M101.635 180.113C101.635 180.113 106.974 174.531 112.92 172.468" stroke="black" stroke-width="0.536" stroke-miterlimit="10" stroke-linecap="round" stroke-linejoin="round"/>
<path d="M108.477 165.731C108.978 165.07 109.455 164.472 109.887 163.974" stroke="black" stroke-width="0.536" stroke-miterlimit="10" stroke-linecap="round" stroke-linejoin="round"/>
<path d="M101.15 176.594C101.15 176.594 104.164 171.745 107.015 167.729" stroke="black" stroke-width="0.536" stroke-miterlimit="10" stroke-linecap="round" stroke-linejoin="round"/>
<path d="M56.0343 86.3736C56.0343 86.3736 46.635 85.702 41.6668 89.7306C36.6986 93.7591 40.7267 95.2358 40.7267 95.2358C40.7267 95.2358 32.4015 98.0557 32.4015 102.755C32.4015 107.455 35.49 105.575 35.49 105.575C35.49 105.575 27.4333 115.243 27.7019 119.674C27.9704 124.105 31.999 121.554 31.999 121.554C31.999 121.554 31.0588 131.088 33.2077 134.042C35.356 136.996 39.9216 135.921 39.9216 135.921C39.9216 135.921 39.5191 140.756 41.9359 140.621C44.3527 140.487 47.8442 138.204 47.8442 138.204C47.8442 138.204 48.5158 146.261 52.0068 147.604C55.4983 148.946 59.5263 148.544 60.6005 147.335C61.6746 146.126 62.6148 144.113 62.6148 144.113C62.6148 144.113 63.8235 148.007 65.3001 145.187C66.7774 142.367 66.3743 137.667 65.5687 136.458C64.7631 135.25 59.6603 124.239 59.6603 122.36C59.6603 120.48 67.3139 102.889 67.5824 102.352C67.851 101.815 83.4271 105.575 83.9642 105.978C84.5013 106.381 92.8264 128.939 92.8264 128.939C92.8264 128.939 90.4096 132.968 90.8121 136.592C91.2147 140.218 92.6919 142.232 97.2575 137.667C101.823 133.101 106.254 125.313 106.254 125.313C106.254 125.313 107.328 132.295 110.417 125.447C113.505 118.6 110.014 111.349 108.806 107.992C107.597 104.635 104.777 101.009 104.777 101.009C104.777 101.009 108.671 103.829 108.403 98.9948C108.134 94.1606 94.3036 81.2703 88.6638 78.9875C83.0241 76.7047 74.6989 77.2418 74.6989 77.2418C74.6989 77.2418 77.6528 74.8249 74.4304 74.6904C71.2074 74.5575 52.4088 75.2285 56.0343 86.3736Z" fill="black" stroke="black" stroke-width="0.536" stroke-miterlimit="10" stroke-linecap="round" stroke-linejoin="round"/>
<path d="M92.401 127.21C96.0433 126.491 98.234 122.046 97.2941 117.28C96.3542 112.514 92.6396 109.233 88.9973 109.952C85.355 110.67 83.1643 115.116 84.1042 119.881C85.0441 124.647 88.7587 127.928 92.401 127.21Z" fill="white" stroke="black" stroke-width="0.536" stroke-miterlimit="10" stroke-linecap="round" stroke-linejoin="round"/>
<path d="M60.6193 142.495C60.6193 142.495 60.0125 152.567 60.6193 162.153C61.226 171.739 60.0125 175.137 61.1049 175.259C62.1973 175.38 62.0756 175.623 63.4102 173.803C64.7449 171.982 69.5989 164.095 70.2056 164.459C70.8124 164.823 71.1763 166.764 71.4191 168.463C71.6619 170.162 76.6371 178.899 76.6371 178.899C76.6371 178.899 80.2776 171.861 81.1272 170.284C81.9767 168.706 81.9767 168.463 82.8258 166.279C83.6753 164.095 84.2821 166.765 86.5874 169.799C88.8933 172.832 92.4121 177.565 92.7761 175.866C93.14 174.167 90.3491 167.372 89.9851 160.455C89.6212 153.538 90.4707 144.316 89.7423 141.767C89.0144 139.219 81.4906 135.215 70.084 135.215C58.6774 135.215 60.6193 142.495 60.6193 142.495Z" fill="white" stroke="black" stroke-width="0.536" stroke-miterlimit="10" stroke-linecap="round" stroke-linejoin="round"/>
<path d="M65.5684 136.459C65.5684 136.459 69.8435 150.868 72.0277 162.032C74.2119 173.196 76.6389 178.899 76.6389 178.899C76.6389 178.899 81.2501 167.614 83.7983 158.27C86.3464 148.926 87.196 140.917 87.196 140.917L65.5684 136.459Z" fill="#CCCCCC" stroke="black" stroke-width="0.536" stroke-miterlimit="10" stroke-linecap="round" stroke-linejoin="round"/>
<path d="M86.468 143.223C86.468 143.223 82.4636 147.592 82.0996 152.324" stroke="black" stroke-width="0.536" stroke-miterlimit="10" stroke-linecap="round" stroke-linejoin="round"/>
<path d="M71.7754 160.775C71.8617 161.198 71.9469 161.618 72.0278 162.032C74.212 173.196 76.639 178.9 76.639 178.9C76.639 178.9 80.3219 169.885 82.9237 161.298C79.356 162.368 74.7518 161.549 71.7754 160.775Z" fill="black" stroke="black" stroke-width="0.536" stroke-miterlimit="10" stroke-linecap="round" stroke-linejoin="round"/>
<path d="M64.4938 96.5786L55.7656 120.345C55.7656 120.345 59.3911 131.087 61.0023 133.907C62.6136 136.727 65.702 138.607 69.193 140.218C72.6839 141.829 84.2321 144.649 86.6489 143.709C89.0657 142.769 94.84 133.37 95.3771 131.221C95.9142 129.073 89.7373 106.38 89.2002 105.306C88.6637 104.232 64.4938 96.5786 64.4938 96.5786Z" fill="#CCCCCC" stroke="black" stroke-width="0.536" stroke-miterlimit="10" stroke-linecap="round" stroke-linejoin="round"/>
<path d="M67.9844 120.346C67.9844 120.346 72.0124 121.823 74.9668 119.003" stroke="black" stroke-width="0.536" stroke-miterlimit="10" stroke-linecap="round" stroke-linejoin="round"/>
<path d="M65.0312 116.049C65.0312 116.049 66.1054 112.961 68.6568 111.887C71.2081 110.813 74.8336 111.618 74.6991 112.558C74.5646 113.499 72.0137 112.693 70.5365 112.827C69.0593 112.961 65.0312 116.049 65.0312 116.049Z" fill="black"/>
<path d="M82.2188 112.558C82.2188 112.558 83.0244 110.006 84.5016 109.872C85.9788 109.738 90.9068 111.247 89.4698 111.081C88.2814 110.944 83.7866 110.772 82.2188 112.558Z" fill="black"/>
<path d="M84.7695 117.257C84.7695 117.257 88.395 117.929 89.8723 115.915" stroke="black" stroke-width="0.536" stroke-miterlimit="10" stroke-linecap="round" stroke-linejoin="round"/>
<path d="M82.2193 112.558C82.2193 112.558 81.1451 114.572 82.4878 117.257" stroke="black" stroke-width="0.536" stroke-miterlimit="10" stroke-linecap="round" stroke-linejoin="round"/>
<path d="M86.6489 124.374C86.6489 124.374 84.9032 125.985 83.0234 126.522" stroke="black" stroke-width="0.536" stroke-miterlimit="10" stroke-linecap="round" stroke-linejoin="round"/>
<path d="M73.625 127.462C73.625 127.462 75.6393 130.148 78.1907 130.416C80.742 130.685 85.3071 129.611 86.6503 128.805" stroke="black" stroke-width="0.536" stroke-miterlimit="10" stroke-linecap="round" stroke-linejoin="round"/>
<path d="M74.5636 126.522L72.8184 128.537" stroke="black" stroke-width="0.536" stroke-miterlimit="10" stroke-linecap="round" stroke-linejoin="round"/>
<path d="M51.1103 119.806C51.1103 119.806 45.4378 109.835 49.1024 99.99C52.5307 90.7794 57.338 89.0695 57.3954 88.9908C57.3954 88.9908 51.0229 88.9034 47.0072 98.2443C42.9915 107.585 47.9677 121.64 47.9677 121.64L51.1103 119.806Z" fill="white" stroke="black" stroke-width="0.536" stroke-miterlimit="10" stroke-linecap="round" stroke-linejoin="round"/>
<path d="M113.649 201.471C111.708 199.772 111.101 198.194 110.252 198.073C109.402 197.952 108.917 197.223 106.126 197.952C104.035 198.497 98.9463 198.974 96.5263 199.18L96.5397 199.044C96.5397 199.044 91.0789 199.044 79.7934 199.044C68.5079 199.044 54.7954 197.831 54.7954 197.831L51.8828 213.97C51.8828 213.97 57.4647 213.121 67.4156 212.15C73.5651 211.55 82.9542 209.514 89.2334 208.046L95.5684 207.175C95.5684 207.175 100.786 208.388 104.184 207.903C107.582 207.418 109.524 205.476 109.524 205.476C109.524 205.476 109.524 206.81 110.13 207.174C110.737 207.538 115.591 206.446 116.441 206.203C117.29 205.961 117.29 205.84 117.411 204.504C117.532 203.169 115.591 203.169 113.649 201.471Z" fill="#CCCCCC" stroke="black" stroke-width="0.536" stroke-miterlimit="10" stroke-linecap="round" stroke-linejoin="round"/>
<path d="M92.0493 187.879C92.0493 187.879 86.7097 192.126 87.1953 193.218C87.6809 194.311 89.9862 197.102 89.9862 197.708C89.9862 198.315 86.9525 206.081 89.0155 207.538C91.0786 208.994 97.9952 212.149 105.762 212.028C113.528 211.906 117.29 205.839 118.261 204.261C119.231 202.684 117.533 193.947 116.077 189.821C114.62 185.695 108.553 184.118 103.214 184.846C97.874 185.574 92.0493 187.879 92.0493 187.879Z" fill="white" stroke="black" stroke-width="0.536" stroke-miterlimit="10" stroke-linecap="round" stroke-linejoin="round"/>
<path d="M56.166 133.126C56.166 133.126 57.6282 138.426 62.5621 147.564C67.4965 156.702 70.0548 175.891 72.6137 183.018C75.172 190.146 77.3654 192.522 77.3654 192.522C77.3654 192.522 81.5687 179.546 85.2236 166.936C88.8786 154.326 93.9326 143.109 93.142 140.311" stroke="black" stroke-width="0.536" stroke-miterlimit="10" stroke-linecap="round" stroke-linejoin="round"/>
<path d="M91.8073 129.146C91.8073 129.146 87.6817 134 88.4096 134.607C89.1375 135.214 89.7443 135.699 90.351 135.335C90.9578 134.971 91.9285 134.364 91.9285 134.364C91.9285 134.364 87.924 139.218 86.4677 143.222C85.0114 147.227 86.5888 146.863 86.9533 149.654C87.3173 152.445 90.8366 186.301 91.2006 190.913C91.5645 195.524 92.6569 198.557 97.8748 199.285C103.093 200.013 109.524 195.524 110.131 194.189C110.738 192.854 111.223 191.155 110.252 188.242C109.281 185.33 93.0718 152.536 94.2343 150.138C96.1757 146.134 103.214 133.392 103.578 132.179C103.942 130.965 97.7537 127.931 96.6613 127.082C95.569 126.234 92.2929 127.933 91.8073 129.146Z" fill="#CCCCCC" stroke="black" stroke-width="0.536" stroke-miterlimit="10" stroke-linecap="round" stroke-linejoin="round"/>
<path d="M91.8066 129.146C91.8066 129.146 92.899 127.812 94.4765 128.418C96.0539 129.025 98.602 131.209 98.2381 132.18" stroke="black" stroke-width="0.536" stroke-miterlimit="10" stroke-linecap="round" stroke-linejoin="round"/>
<path d="M94.3555 127.205C94.3555 127.205 95.8118 126.962 97.8748 128.297C99.9379 129.632 101.515 130.845 101.394 131.574" stroke="black" stroke-width="0.536" stroke-miterlimit="10" stroke-linecap="round" stroke-linejoin="round"/>
<path d="M91.9277 134.364L93.748 133.029L92.6562 132.18" stroke="black" stroke-width="0.536" stroke-miterlimit="10" stroke-linecap="round" stroke-linejoin="round"/>
<path d="M48.9708 142.98C48.9708 142.98 42.9033 142.737 36.9575 149.048C31.0116 155.358 29.6764 164.581 29.6764 164.581C29.6764 164.581 23.3661 190.185 21.0608 200.499C18.7554 210.814 18.9977 213.12 23.8517 215.062C28.7057 217.003 33.5598 216.275 37.3214 216.275C41.083 216.275 44.2385 215.425 44.2385 215.425L51.3978 196.617L52.9753 189.578C52.9753 189.578 58.6789 183.026 58.8 172.468" fill="#8A2BE1"/>
<path d="M48.9708 142.98C48.9708 142.98 42.9033 142.737 36.9575 149.048C31.0116 155.358 29.6764 164.581 29.6764 164.581C29.6764 164.581 23.3661 190.185 21.0608 200.499C18.7554 210.814 18.9977 213.12 23.8517 215.062C28.7057 217.003 33.5598 216.275 37.3214 216.275C41.083 216.275 44.2385 215.425 44.2385 215.425L51.3978 196.617L52.9753 189.578C52.9753 189.578 58.6789 183.026 58.8 172.468" stroke="black" stroke-width="0.536" stroke-miterlimit="10" stroke-linecap="round" stroke-linejoin="round"/>
<path d="M48.4891 171.142C48.2431 170.451 47.9976 169.833 47.7559 169.313" stroke="black" stroke-width="0.536" stroke-miterlimit="10" stroke-linecap="round" stroke-linejoin="round"/>
<path d="M52.9736 189.578C52.9736 189.578 51.1662 179.833 49.1953 173.309" stroke="black" stroke-width="0.536" stroke-miterlimit="10" stroke-linecap="round" stroke-linejoin="round"/>
<path d="M46.0582 195.282C46.0582 195.282 40.5975 189.214 34.166 187.516" stroke="black" stroke-width="0.536" stroke-miterlimit="10" stroke-linecap="round" stroke-linejoin="round"/>
<path d="M29.1879 192.862C28.4332 192.866 27.7348 192.937 27.127 193.097" stroke="black" stroke-width="0.536" stroke-miterlimit="10" stroke-linecap="round" stroke-linejoin="round"/>
<path d="M41.5687 195.767C41.5687 195.767 35.5125 193.374 30.6777 192.932" stroke="black" stroke-width="0.536" stroke-miterlimit="10" stroke-linecap="round" stroke-linejoin="round"/>
<path d="M55.8877 197.466C55.8877 197.466 55.5238 211.664 55.1598 213.12C54.7959 214.577 54.5531 214.698 53.0967 215.426C51.6404 216.154 39.5059 217.125 37.2001 217.125C34.8947 217.125 32.346 212.999 34.1663 204.99C35.9866 196.981 39.8699 192.37 42.782 192.37C45.694 192.37 55.4021 196.374 55.4021 196.374L55.8877 197.466Z" fill="white" stroke="black" stroke-width="0.536" stroke-miterlimit="10" stroke-linecap="round" stroke-linejoin="round"/>
<path d="M58.5549 124.298C60.476 128.76 59.2689 133.566 55.8589 135.035C52.4488 136.503 48.1276 134.076 46.2066 129.615C44.2855 125.153 45.4926 120.346 48.9026 118.878C52.3121 117.41 56.6339 119.837 58.5549 124.298Z" fill="white" stroke="black" stroke-width="0.536" stroke-miterlimit="10" stroke-linecap="round" stroke-linejoin="round"/>
<path d="M55.0057 126.55C56.2782 129.506 55.4785 132.689 53.2198 133.662C50.9611 134.635 48.0983 133.028 46.8258 130.072C45.5534 127.117 46.3531 123.933 48.6118 122.96C50.8705 121.988 53.7333 123.595 55.0057 126.55Z" fill="white" stroke="black" stroke-width="0.536" stroke-miterlimit="10" stroke-linecap="round" stroke-linejoin="round"/>
<path d="M182.869 203.876V206.106" stroke="black" stroke-width="1.072" stroke-miterlimit="10" stroke-linecap="round" stroke-linejoin="round"/>
<path d="M77.3652 192.521C77.3652 192.521 80.2891 198.187 80.8374 204.4C81.3858 210.614 87.9646 218.838 104.413 219.204C120.861 219.569 127.988 221.396 141.877 224.504C155.766 227.61 164.721 227.062 167.645 218.29C170.569 209.517 178.793 204.949 182.869 203.876" stroke="black" stroke-width="0.536" stroke-miterlimit="10" stroke-linecap="round" stroke-linejoin="round"/>
<path d="M64.8185 215.75L25.8379 237.534L94.6271 251.75L128.104 225.151L64.8185 215.75Z" fill="#8A2BE1" stroke="black" stroke-width="0.536" stroke-miterlimit="10" stroke-linecap="round" stroke-linejoin="round"/>
<path d="M45.5449 226.513C45.5449 226.513 50.0109 227.387 52.6737 225.187C54.1574 223.961 53.4745 222.021 53.4745 222.021L45.5449 226.513Z" fill="#8A2BE1" stroke="black" stroke-width="0.536" stroke-miterlimit="10" stroke-linecap="round" stroke-linejoin="round"/>
<path d="M125.403 231.471C125.403 237.065 109.507 241.589 89.8995 241.589C80.9183 241.589 72.7137 240.64 66.4565 239.075C62.1535 237.993 58.7713 236.623 56.6991 235.067C55.2123 233.954 54.3965 232.738 54.3965 231.471C54.3965 225.886 70.2926 221.353 89.9001 221.353C97.7626 221.353 105.027 222.084 110.916 223.31C114.58 224.083 117.706 225.051 120.107 226.154C123.462 227.699 125.403 229.523 125.403 231.471Z" fill="black" stroke="black" stroke-width="0.536" stroke-miterlimit="10" stroke-linecap="round" stroke-linejoin="round"/>
<path d="M80.3926 231.842L56.6992 235.067C58.7719 236.623 62.1536 237.993 66.4566 239.075L82.3265 232.161L80.3926 231.842ZM110.915 223.31L99.0979 227.226L98.9007 228.493L120.107 226.154C117.705 225.051 114.58 224.083 110.915 223.31Z" fill="white" stroke="black" stroke-width="0.536" stroke-miterlimit="10" stroke-linecap="round" stroke-linejoin="round"/>
<path d="M103.216 229.24C103.216 231.337 97.2539 233.036 89.899 233.036C82.544 233.036 76.582 231.337 76.582 229.24C76.582 227.144 82.5445 225.444 89.899 225.444C97.2534 225.444 103.216 227.144 103.216 229.24Z" fill="white" stroke="black" stroke-width="0.536" stroke-miterlimit="10" stroke-linecap="round" stroke-linejoin="round"/>
<path d="M135.52 80.1483C135.52 79.8063 135.359 79.4847 135.084 79.2794C134.81 79.0752 134.456 79.0103 134.128 79.1084L122.731 82.4847C122.271 82.6214 121.955 83.0443 121.955 83.524V96.5708C121.581 96.4261 121.177 96.3387 120.751 96.3387C118.898 96.3387 117.396 97.8406 117.396 99.6924C117.396 101.545 118.898 103.047 120.751 103.047C122.503 103.047 123.925 101.698 124.076 99.9846H124.123V90.0316L133.352 87.2969V93.0584C132.983 92.919 132.588 92.8332 132.171 92.8332C130.318 92.8332 128.817 94.3351 128.817 96.187C128.817 98.0394 130.318 99.5413 132.171 99.5413C134.023 99.5413 135.525 98.0394 135.525 96.187C135.525 96.1698 135.52 96.1538 135.519 96.1366V80.1483H135.52ZM133.352 85.0361L124.123 87.7707V84.3339L133.352 81.5998V85.0361Z" fill="black"/>
</svg>
