<svg width="33" height="32" viewBox="0 0 33 32" fill="none" xmlns="http://www.w3.org/2000/svg">
    <path
        d="M32.4062 16.4713C32.3131 16.6962 32.1553 16.8884 31.953 17.0237C31.7506 17.159 31.5127 17.2312 31.2693 17.2313H25.1156V29.5386C25.1156 30.1914 24.8563 30.8175 24.3947 31.2791C23.9331 31.7407 23.307 32.0001 22.6541 32.0001H10.3468C9.69401 32.0001 9.06792 31.7407 8.60631 31.2791C8.14469 30.8175 7.88536 30.1914 7.88536 29.5386V17.2313H1.7317C1.48814 17.2315 1.25001 17.1594 1.04744 17.0242C0.844865 16.889 0.68697 16.6967 0.593739 16.4717C0.500508 16.2467 0.476133 15.999 0.523702 15.7602C0.57127 15.5213 0.688642 15.3019 0.860958 15.1298L15.6297 0.361018C15.744 0.246589 15.8798 0.155812 16.0292 0.0938758C16.1786 0.0319401 16.3387 6.10352e-05 16.5005 6.10352e-05C16.6622 6.10352e-05 16.8224 0.0319401 16.9718 0.0938758C17.1212 0.155812 17.2569 0.246589 17.3712 0.361018L32.14 15.1298C32.3121 15.302 32.4292 15.5214 32.4766 15.7602C32.524 15.999 32.4994 16.2464 32.4062 16.4713Z"
        fill="#25632D" />
</svg>