<svg width="12" height="12" viewBox="0 0 12 12" fill="none" xmlns="http://www.w3.org/2000/svg">
<path d="M11.4688 7.08157V10.5816C11.4688 10.7556 11.3996 10.9225 11.2765 11.0456C11.1535 11.1687 10.9865 11.2378 10.8125 11.2378H1.1875C1.01345 11.2378 0.846532 11.1687 0.723461 11.0456C0.60039 10.9225 0.53125 10.7556 0.53125 10.5816V7.08157C0.53125 6.90752 0.60039 6.7406 0.723461 6.61753C0.846532 6.49446 1.01345 6.42532 1.1875 6.42532C1.36155 6.42532 1.52847 6.49446 1.65154 6.61753C1.77461 6.7406 1.84375 6.90752 1.84375 7.08157V9.92532H10.1562V7.08157C10.1562 6.90752 10.2254 6.7406 10.3485 6.61753C10.4715 6.49446 10.6385 6.42532 10.8125 6.42532C10.9865 6.42532 11.1535 6.49446 11.2765 6.61753C11.3996 6.7406 11.4688 6.90752 11.4688 7.08157ZM4.2768 3.60837L5.34375 2.54251V7.08157C5.34375 7.25562 5.41289 7.42254 5.53596 7.54561C5.65903 7.66868 5.82595 7.73782 6 7.73782C6.17405 7.73782 6.34097 7.66868 6.46404 7.54561C6.58711 7.42254 6.65625 7.25562 6.65625 7.08157V2.54251L7.7232 3.61001C7.78425 3.67105 7.85672 3.71948 7.93648 3.75251C8.01623 3.78555 8.10172 3.80255 8.18805 3.80255C8.27438 3.80255 8.35986 3.78555 8.43962 3.75251C8.51938 3.71948 8.59185 3.67105 8.65289 3.61001C8.71393 3.54897 8.76236 3.4765 8.79539 3.39674C8.82843 3.31698 8.84544 3.2315 8.84544 3.14517C8.84544 3.05884 8.82843 2.97335 8.79539 2.89359C8.76236 2.81384 8.71393 2.74137 8.65289 2.68032L6.46539 0.492822C6.40442 0.431642 6.33198 0.383099 6.25221 0.349977C6.17244 0.316855 6.08692 0.299805 6.00055 0.299805C5.91418 0.299805 5.82865 0.316855 5.74888 0.349977C5.66912 0.383099 5.59667 0.431642 5.5357 0.492822L3.3482 2.68032C3.28716 2.74137 3.23874 2.81384 3.2057 2.89359C3.17266 2.97335 3.15566 3.05884 3.15566 3.14517C3.15566 3.31952 3.22492 3.48673 3.3482 3.61001C3.47149 3.73329 3.6387 3.80255 3.81305 3.80255C3.9874 3.80255 4.15461 3.73329 4.27789 3.61001L4.2768 3.60837Z" fill="white"/>
</svg>
