<svg width="24" height="25" viewBox="0 0 24 25" fill="none" xmlns="http://www.w3.org/2000/svg">
    <g clip-path="url(#clip0_2182_14231)">
        <path
            d="M18 7.58105V18.0811C18 18.4789 17.842 18.8604 17.5607 19.1417C17.2794 19.423 16.8978 19.5811 16.5 19.5811H3C2.60218 19.5811 2.22064 19.423 1.93934 19.1417C1.65804 18.8604 1.5 18.4789 1.5 18.0811V7.58105C1.5 7.18323 1.65804 6.8017 1.93934 6.52039C2.22064 6.23909 2.60218 6.08105 3 6.08105H16.5C16.8978 6.08105 17.2794 6.23909 17.5607 6.52039C17.842 6.8017 18 7.18323 18 7.58105ZM23.4375 7.60449C23.3317 7.5786 23.2216 7.57541 23.1145 7.59512C23.0073 7.61483 22.9056 7.65701 22.8159 7.71887L19.6669 9.81793C19.6155 9.8522 19.5734 9.89863 19.5443 9.95309C19.5152 10.0076 19.5 10.0684 19.5 10.1301V15.532C19.5 15.5937 19.5152 15.6546 19.5443 15.709C19.5734 15.7635 19.6155 15.8099 19.6669 15.8442L22.8337 17.9554C22.9523 18.0345 23.0909 18.0782 23.2333 18.0813C23.3758 18.0845 23.5162 18.047 23.6381 17.9732C23.7509 17.9015 23.8434 17.8021 23.9068 17.6844C23.9702 17.5667 24.0022 17.4347 24 17.3011V8.33105C24.0001 8.16472 23.9449 8.00307 23.843 7.87155C23.7412 7.74002 23.5986 7.64608 23.4375 7.60449Z"
            fill="#25632D" />
    </g>
    <defs>
        <clipPath id="clip0_2182_14231">
            <rect width="24" height="24" fill="white" transform="translate(0 0.831055)" />
        </clipPath>
    </defs>
</svg>