<svg width="60" height="61" viewBox="0 0 60 61" fill="none" xmlns="http://www.w3.org/2000/svg">
    <path
        d="M55.5006 44.5076L35.0045 8.91305C34.4923 8.04099 33.7611 7.31793 32.8834 6.81553C32.0057 6.31313 31.0119 6.04883 30.0006 6.04883C28.9892 6.04883 27.9954 6.31313 27.1177 6.81553C26.24 7.31793 25.5088 8.04099 24.9967 8.91305L4.50056 44.5076C4.00775 45.3511 3.74805 46.3104 3.74805 47.2873C3.74805 48.2641 4.00775 49.2235 4.50056 50.067C5.00618 50.9443 5.73612 51.6713 6.61547 52.1734C7.49482 52.6754 8.49193 52.9345 9.50447 52.924H50.4967C51.5084 52.9337 52.5045 52.6742 53.383 52.1722C54.2614 51.6701 54.9906 50.9436 55.4959 50.067C55.9894 49.2239 56.2499 48.2648 56.2507 47.2879C56.2516 46.311 55.9927 45.3515 55.5006 44.5076ZM28.1256 24.799C28.1256 24.3017 28.3231 23.8248 28.6747 23.4732C29.0264 23.1215 29.5033 22.924 30.0006 22.924C30.4978 22.924 30.9748 23.1215 31.3264 23.4732C31.678 23.8248 31.8756 24.3017 31.8756 24.799V34.174C31.8756 34.6713 31.678 35.1482 31.3264 35.4998C30.9748 35.8514 30.4978 36.049 30.0006 36.049C29.5033 36.049 29.0264 35.8514 28.6747 35.4998C28.3231 35.1482 28.1256 34.6713 28.1256 34.174V24.799ZM30.0006 45.424C29.4443 45.424 28.9005 45.259 28.438 44.95C27.9755 44.6409 27.615 44.2017 27.4021 43.6878C27.1893 43.1739 27.1336 42.6084 27.2421 42.0628C27.3506 41.5172 27.6185 41.0161 28.0118 40.6227C28.4052 40.2294 28.9063 39.9615 29.4519 39.853C29.9974 39.7445 30.5629 39.8002 31.0769 40.0131C31.5908 40.2259 32.03 40.5864 32.3391 41.0489C32.6481 41.5115 32.8131 42.0552 32.8131 42.6115C32.8131 43.3574 32.5167 44.0728 31.9893 44.6002C31.4619 45.1277 30.7465 45.424 30.0006 45.424Z"
        fill="#E1171A" />
</svg>