<svg width="9" height="14" viewBox="0 0 9 14" fill="none" xmlns="http://www.w3.org/2000/svg">
    <path
        d="M3.945 13.895V12.68C1.755 12.5 0.375 11.21 0.375 9.275H2.79C2.79 9.995 3.195 10.43 3.945 10.565V7.97L3.54 7.895C1.53 7.49 0.54 6.395 0.54 4.625C0.54 2.81 1.92 1.475 3.945 1.235V-0.0100008H5.325V1.235C7.29 1.475 8.505 2.72 8.505 4.61H6.165C6.165 3.995 5.865 3.575 5.325 3.38V6.035L5.76 6.125C7.8 6.545 8.685 7.46 8.685 9.155C8.685 11.045 7.38 12.35 5.325 12.635V13.895H3.945ZM2.91 4.535C2.91 5.18 3.21 5.555 3.945 5.75V3.35C3.285 3.5 2.91 3.92 2.91 4.535ZM6.33 9.395C6.33 8.75 5.985 8.39 5.325 8.255V10.505C5.955 10.325 6.33 9.935 6.33 9.395Z"
        fill="#E2B808" />
</svg>